<?xml version="1.0" encoding="UTF-8" standalone="no"?>
<svg
   width="400"
   height="54"
   viewBox="0 0 400 54"
   fill="none"
   version="1.1"
   id="svg26"
   sodipodi:docname="orcanauts-logo.ba1ba1aa.svg"
   inkscape:version="1.1.1 (3bf5ae0d25, 2021-09-20)"
   xmlns:inkscape="http://www.inkscape.org/namespaces/inkscape"
   xmlns:sodipodi="http://sodipodi.sourceforge.net/DTD/sodipodi-0.dtd"
   xmlns:xlink="http://www.w3.org/1999/xlink"
   xmlns="http://www.w3.org/2000/svg"
   xmlns:svg="http://www.w3.org/2000/svg">
  <defs
     id="defs30">
    <linearGradient
       id="linearGradient111072"
       inkscape:swatch="solid">
      <stop
         style="stop-color:#000000;stop-opacity:1;"
         offset="0"
         id="stop111070" />
    </linearGradient>
    <linearGradient
       id="linearGradient111066"
       inkscape:swatch="solid">
      <stop
         style="stop-color:#0fe6df;stop-opacity:1;"
         offset="0"
         id="stop111064" />
    </linearGradient>
    <linearGradient
       id="linearGradient109963"
       inkscape:swatch="solid">
      <stop
         style="stop-color:#000000;stop-opacity:1;"
         offset="0"
         id="stop109961" />
    </linearGradient>
    <linearGradient
       id="linearGradient107171"
       inkscape:swatch="solid">
      <stop
         style="stop-color:#0fe6df;stop-opacity:1;"
         offset="0"
         id="stop107169" />
    </linearGradient>
    <linearGradient
       inkscape:collect="always"
       xlink:href="#linearGradient111066"
       id="linearGradient111068"
       x1="-16.341614"
       y1="99.50067"
       x2="13.649074"
       y2="99.50067"
       gradientUnits="userSpaceOnUse"
       gradientTransform="translate(3.4031906,-1.5678482)" />
    <linearGradient
       inkscape:collect="always"
       xlink:href="#linearGradient111066"
       id="linearGradient111074"
       x1="-16.341614"
       y1="99.500671"
       x2="13.649074"
       y2="99.500671"
       gradientUnits="userSpaceOnUse"
       gradientTransform="translate(3.4031906,-1.5678482)" />
  </defs>
  <sodipodi:namedview
     id="namedview28"
     pagecolor="#ffffff"
     bordercolor="#666666"
     borderopacity="1.0"
     inkscape:pageshadow="2"
     inkscape:pageopacity="0.0"
     inkscape:pagecheckerboard="0"
     showgrid="false"
     inkscape:zoom="4"
     inkscape:cx="123.625"
     inkscape:cy="104.625"
     inkscape:window-width="1920"
     inkscape:window-height="1020"
     inkscape:window-x="0"
     inkscape:window-y="0"
     inkscape:window-maximized="1"
     inkscape:current-layer="svg26"
     inkscape:object-paths="true"
     inkscape:snap-bbox="true"
     inkscape:snap-global="true" />
  <path
     d="m 268.82171,87.791676 h 0.803 c 1.32,0.1147 2.64,0.1721 3.96,0.3443 2.697,0.2869 5.107,-1.3199 5.508,-3.73 0.46,-2.41014 -1.032,-4.47598 -3.729,-5.04982 -1.492,-0.34431 -3.042,-0.40169 -4.534,-0.57384 -1.32,-0.11477 -2.582,-0.11477 -3.845,-0.22954 -3.156,-0.22954 -6.369,-0.51646 -9.583,-0.57384 -1.492,-0.0574 -3.041,0.28692 -4.476,0.80338 -2.41,0.91814 -3.443,3.38567 -2.582,5.56626 0.746,2.0085 2.984,3.2135 5.222,2.8119 1.205,-0.2296 2.41,-0.2296 3.673,-0.1722 0,0.2869 0.057,0.5165 0.057,0.6886 -0.344,7.7469 -0.918,18.076104 -1.263,25.823004 0,0.8607 0.058,1.8363 0.173,2.697 0.401,2.5249 2.754,4.1891 5.222,3.7874 2.639,-0.4591 4.016,-2.1806 4.131,-5.0498 0.086,-2.76758 0.22006,-5.89612 0.36924,-9.1127 0.24984,-5.38698 0.54206,-11.020935 0.72176,-15.620004 0,-0.746 0.114,-1.5494 0.172,-2.4101 z"
     fill="#de5cff"
     id="path8-2-9"
     sodipodi:nodetypes="cccccccccccccccccscc" />
  <path
     d="m 245.16887,103.36093 c 0.861,-5.623709 0.861,-11.132502 0.861,-17.330102 -0.057,-1.951 -0.975,-3.443 -2.754,-4.2464 -3.156,-1.43461 -6.657,0.8608 -6.714,4.3038 -0.058,4.0169 -0.115,8.0338 -0.287,12.0507 -0.402,10.501402 -11.936,12.854102 -10.846,0.6887 0.459,-4.8203 1.607,-9.698 2.009,-14.5183 0.229,-2.5823 -1.722,-4.64812 -4.304,-4.76289 -2.41,-0.11477 -4.361,1.26245 -4.993,3.67259 -0.516,2.1232 -0.918,4.3612 -1.319,6.5418 -0.804,4.8203 -1.32,9.6406 -0.746,14.460902 2.238,17.2727 25.937,15.0921 29.093,-0.8608 z"
     fill="#ff6680"
     id="path10-6"
     sodipodi:nodetypes="cccccccccccc" />
  <path
     d="m 200.36551,109.52891 c -0.172,1.2624 -0.287,2.4675 -0.459,3.6152 -0.402,2.238 0.746,4.3612 2.869,5.1072 3.099,1.1477 6.255,-0.8034 6.714,-4.2464 0.746,-7.6322 0.861,-15.206899 -0.574,-24.216198 -0.574,-2.6971 -1.262,-5.3368 -2.697,-7.7469 -3.156,-5.39414 -9.239,-6.82875 -14.461,-3.44307 -4.82,3.09877 -8.034,9.00937 -9.411,14.74777 -1.492,6.254896 -1.033,12.567198 0,18.822098 0.115,0.5164 0.345,1.0903 0.631,1.5493 1.148,2.0085 3.616,2.8693 5.854,2.1233 2.238,-0.8034 3.385,-2.7545 3.041,-5.1646 -0.057,-0.2296 0,-0.4017 0,-0.6313 2.812,-0.1721 5.509,-0.3443 8.493,-0.5164 z m 0.172,-9.0094 c -3.271,0.1722 -6.312,0.3444 -9.354,0.5165 -0.573,-3.557798 0.919,-8.550298 3.157,-11.935898 4.992,-7.8043 5.508,5.0498 6.025,8.2633 0.057,1.032899 0.115,2.008496 0.172,3.156098 z"
     fill="#ff6680"
     id="path12-0"
     sodipodi:nodetypes="ccccccccccccccccccc" />
  <path
     d="m 151.22376,100.44883 c 0.344,0.4017 0.631,0.746 0.918,1.0903 2.123,2.9266 4.189,5.9106 6.37,8.7798 1.205,1.6068 2.582,3.1562 3.959,4.6482 1.033,1.0903 2.353,1.7789 3.845,1.951 2.869,0.287 5.222,-1.6067 5.796,-4.7629 0.344,-1.8363 0.516,-3.73 0.688,-5.5663 0.402,-5.3367 0.746,-10.673403 1.148,-16.010203 0.172,-2.0084 0.402,-4.0743 0.517,-6.0827 0.172,-2.0085 -0.574,-3.61524 -2.411,-4.59077 -2.984,-1.54938 -6.541,0.11477 -6.943,3.50047 -0.517,4.3612 -0.803,8.7798 -1.148,13.1984 -0.172,1.492004 -0.229,2.984001 -0.401,4.762903 -0.517,-0.6886 -0.861,-1.0903 -1.148,-1.492002 -3.099,-4.590801 -6.198,-9.181501 -9.354,-13.772301 -0.861,-1.3198 -1.721,-2.6396 -2.812,-3.7873 -1.492,-1.60679 -3.385,-2.00848 -5.451,-1.2625 -1.951,0.6312 -3.156,2.3528 -3.156,4.5908 -0.172,8.6076 -0.287,17.272703 -0.402,25.937703 0,0.9755 0.172,1.9511 0.803,2.7544 1.148,1.5494 2.755,2.238 4.649,1.8937 1.951,-0.3443 3.27,-1.4346 3.787,-3.3857 0.172,-0.6886 0.229,-1.3772 0.287,-2.1232 0.115,-3.2135 0.172,-6.4844 0.287,-9.7553 0,-0.1148 0.115,-0.2296 0.172,-0.5165 z"
     fill="#fa9e00"
     id="path14-6"
     sodipodi:nodetypes="ccccccccccccccccccccccccc" />
  <path
     style="opacity:1;mix-blend-mode:normal;fill:url(#linearGradient111068);fill-opacity:1;fill-rule:nonzero;stroke:url(#linearGradient111074);stroke-width:0.149589;stroke-opacity:1"
     d="m -9.0964424,118.65982 c -1.5990536,-0.55293 -2.8446186,-1.56128 -3.3128456,-2.6819 -0.115943,-0.2775 -0.280013,-1.05647 -0.3646,-1.73107 -0.168196,-1.34138 -0.192766,-0.81483 0.76572,-16.409943 0.32615,-5.306656 0.657552,-10.961107 0.736448,-12.565445 0.162985,-3.314267 0.309007,-4.181802 0.923243,-5.485134 1.0482836,-2.224328 3.1852496,-3.164483 6.240982,-2.745713 2.098445,0.287579 3.098496,0.670079 3.93253302,1.504116 0.400917,0.400917 0.72894,0.840965 0.72894,0.977884 0,0.181659 0.09097,0.227764 0.336574,0.17058 0.18511598,-0.0431 0.84143598,-0.197141 1.45848898,-0.342312 1.622635,-0.381749 4.629158,-0.353755 6.154605,0.05731 3.877337,1.044824 7.239033,4.222043 8.113526,7.668288 1.029694,4.057868 -0.187308,8.607898 -3.157504,11.805031 -2.041683,2.197668 -4.307144,3.641638 -6.847351,4.364398 -1.526953,0.43446 -4.572235,0.4789 -5.97717698,0.0872 -0.49014,-0.13664 -0.899416,-0.23435 -0.909501,-0.21714 -0.01009,0.0172 -0.0981,1.54588 -0.195589,3.39704 -0.39899,7.5762 -0.465488,8.34845 -0.79462702,9.22815 -0.537339,1.43617 -1.834618,2.46422 -3.754509,2.97533 -1.098402,0.29241 -3.1502864,0.26388 -4.0773564,-0.0567 z M 3.363354,96.79176 C 4.153128,96.433304 5.248072,95.318563 5.927693,94.181057 6.536503,93.162068 7.235685,91.253425 7.369396,90.245456 7.459356,89.567335 7.424826,89.464113 6.804569,88.556638 6.058919,87.46571 4.986145,86.579964 4.005266,86.245364 3.175825,85.962424 1.896467,85.95448 1.241357,86.228204 c -0.48665898,0.203339 -0.50229898,0.237549 -0.59841498,1.3089 -0.276155,3.078162 -0.506465,8.433241 -0.373389,8.681897 0.218764,0.408762 1.18415298,0.856339 1.85510498,0.860068 0.329095,0.0018 0.886509,-0.127458 1.238696,-0.287307 z"
     id="path29559"
     sodipodi:nodetypes="csssssssssssssssssssccsssssssscss" />
  <path
     style="fill:#0fe6df;fill-opacity:1;stroke-width:0.149589"
     d="m 3.7617114,170.08698 c -1.571337,-0.54282 -2.85868897,-1.7116 -3.31476197,-3.00945 -0.321419,-0.91467 -0.35272,-3.25047 -0.09722,-7.25505 0.95425797,-14.95666 1.40477697,-22.50077 1.42425397,-23.84966 0.05421,-3.75437 1.085417,-6.07319 3.142029,-7.06529 1.230673,-0.59368 4.057263,-0.5492 6.2371256,0.0982 0.85324,0.25339 2.011681,1.18578 2.280959,1.83588 l 0.175424,0.42351 1.378134,-0.35509 c 1.604363,-0.41337 4.199397,-0.50114 5.790999,-0.19586 2.243053,0.43023 4.481489,1.65756 6.222172,3.4116 1.189652,1.19878 1.861303,2.25372 2.42368,3.80676 0.366936,1.01333 0.397565,1.28008 0.400779,3.4906 0.004,2.77806 -0.161994,3.58318 -1.172254,5.68436 -1.58725,3.30124 -4.881779,6.20148 -8.41994,7.41225 -1.405059,0.48082 -1.575168,0.50452 -3.642919,0.50764 -1.553759,0.002 -2.408634,-0.0651 -3.013696,-0.23775 l -0.844662,-0.24102 -0.08771,0.91669 c -0.04824,0.50418 -0.160754,2.39762 -0.250036,4.20764 -0.307445,6.23284 -0.368954,6.84608 -0.775799,7.73475 -0.887244,1.938 -2.8688546,2.96077 -5.7236886,2.95418 -0.905467,-0.002 -1.603853,-0.0921 -2.132873,-0.27484 z M 16.374696,148.22505 c 1.564243,-0.75724 3.155161,-3.16991 3.812846,-5.78228 l 0.308187,-1.22414 -0.327936,-0.64281 c -0.533922,-1.04657 -2.01777,-2.41803 -3.022275,-2.79336 -0.993403,-0.37118 -2.136077,-0.41705 -2.859494,-0.11479 -0.629433,0.263 -0.606207,0.1239 -0.920708,5.51387 -0.27524,4.71712 -0.299139,4.51745 0.607054,5.0715 0.593523,0.36288 1.619586,0.35092 2.402326,-0.028 z"
     id="path29598"
     sodipodi:nodetypes="csssssscsssscsscscssscccsscsssssss" />
  <path
     style="fill:#0fe6df;fill-opacity:1;stroke-width:0.149589"
     d="m 28.100683,120.03721 c -1.982485,-0.4031 -3.735947,-1.79427 -4.192288,-3.3261 -0.505461,-1.69672 -0.535423,-2.24808 -1.045809,-19.245012 -0.124761,-4.154824 -0.293382,-8.422129 -0.374712,-9.4829 -0.390037,-5.08715 0.0042,-7.205667 1.602631,-8.612687 1.285548,-1.131585 3.680989,-1.502283 6.375846,-0.986671 1.371697,0.262448 2.147524,0.642998 2.780406,1.36381 0.984018,1.120735 1.177694,2.241352 1.355949,7.845599 0.254064,7.987611 0.739241,21.052401 0.909465,24.490011 0.188334,3.80331 0.100653,4.56407 -0.654419,5.678 -0.261726,0.38612 -0.80182,0.92452 -1.200207,1.19645 -1.374057,0.93791 -3.86927,1.42263 -5.556862,1.0795 z"
     id="path29637"
     sodipodi:nodetypes="ssssssssssss" />
  <path
     style="fill:#0fe6df;fill-opacity:1;stroke-width:0.149589"
     d="m 41.07236,171.10479 c -0.370232,-0.16377 -0.956406,-0.37005 -1.30261,-0.45838 -1.309579,-0.33416 -2.702314,-1.83483 -3.020529,-3.25463 -0.314494,-1.4032 -0.466337,-4.60153 -0.687188,-14.47451 -0.123306,-5.51234 -0.301523,-11.90725 -0.396037,-14.21092 -0.128422,-3.13012 -0.128948,-4.50344 -0.0021,-5.43493 0.405083,-2.97423 1.728887,-4.35836 4.171563,-4.36166 0.594957,-8.1e-4 1.548129,0.0785 2.118158,0.17626 0.7991,0.13703 3.171722,0.13777 10.361789,0.003 l 9.325372,-0.17451 0.822737,0.40816 c 1.555565,0.77171 2.022548,2.02631 1.901774,5.10933 -0.08936,2.28105 -0.266085,2.98269 -0.928067,3.6846 -0.809704,0.85853 -0.968537,0.87267 -11.669294,1.03865 -3.208676,0.0498 -6.02945,0.12817 -6.268387,0.17422 l -0.434431,0.0837 0.09653,2.77405 c 0.05309,1.52572 0.118711,2.79622 0.145821,2.82333 0.02711,0.0271 2.95701,-0.0176 6.51089,-0.0994 7.009994,-0.16129 7.067494,-0.1566 7.927687,0.64577 0.956894,0.89258 1.359237,2.80123 1.085144,5.14775 -0.20511,1.75595 -0.607307,2.67476 -1.35944,3.10559 -0.483747,0.2771 -0.916011,0.30882 -5.684368,0.41715 -2.838445,0.0645 -5.860731,0.15659 -6.716191,0.20467 l -1.555384,0.0874 0.08314,2.98704 c 0.04573,1.64288 0.119507,3.02342 0.163955,3.06787 0.107573,0.10757 10.355558,-0.50238 13.126225,-0.78127 2.926922,-0.29461 3.977058,-0.0981 4.950071,0.92652 0.931792,0.98118 1.420459,3.06124 1.259484,5.36115 -0.121029,1.72919 -0.301354,2.35533 -0.862335,2.99425 -0.637363,0.72591 -1.544376,0.95296 -4.46542,1.11782 -1.357517,0.0766 -5.430067,0.34328 -9.050112,0.5926 -3.620045,0.24932 -7.120419,0.49009 -7.778609,0.53506 -0.990499,0.0677 -1.312702,0.0305 -1.869858,-0.21601 z"
     id="path29676"
     sodipodi:nodetypes="csssscssccssscscsscssssscssssssssscc" />
  <path
     style="fill:#0fe6df;fill-opacity:1"
     d="m 44.950241,117.92128 c -2.0286,-2.242 -1.4656,-5.079 2.342,-11.804 1.9075,-3.369 3.3823,-6.456 3.2773,-6.8601 -0.105,-0.4041 -1.784,-3.674 -3.7311,-7.2663 -2.0776,-3.833 -3.5403,-7.2713 -3.5403,-8.3221 0,-1.9914 2.4741,-4.5929 4.3681,-4.5929 1.4115,0 3.6256,2.6285 6.0578,7.1918 1.049,1.9682 2.0867,3.5786 2.3058,3.5786 0.2192,0 1.4836,-1.9402 2.8098,-4.3116 2.9641,-5.2998 4.9194,-6.9611 7.0502,-5.9903 0.8164,0.372 1.8956,1.4716 2.3983,2.4436 1.1546,2.2328 0.6797,3.7091 -3.6559,11.3647 -1.7512,3.0923 -3.184,5.884 -3.184,6.2037 0,0.3198 1.5421,3.3049 3.4269,6.6339 3.765,6.649 4.3232,9.496 2.3007,11.731 -1.4192,1.568 -4.1455,1.608 -5.5677,0.081 -0.5959,-0.639 -2.02,-2.926 -3.1647,-5.08 -1.1447,-2.155 -2.2159,-3.919 -2.3804,-3.919 -0.1646,0 -1.2357,1.764 -2.3804,3.919 -1.1447,2.154 -2.5688,4.441 -3.1647,5.08 -1.4222,1.527 -4.1485,1.487 -5.5677,-0.081 z"
     id="path29715"
     sodipodi:nodetypes="csscsscsccccsccccsccc" />
  <path
     style="fill:#53eabc;fill-opacity:1;stroke-width:0.598355"
     d="m 79.424364,169.48473 c -1.25303,-1.25303 -1.273326,-1.55213 -0.883063,-13.01421 0.219694,-6.45244 0.56079,-13.26623 0.757991,-15.14177 l 0.358549,-3.41007 -3.75232,-0.18006 c -3.26935,-0.15688 -3.906355,-0.38694 -4.949054,-1.78742 -1.042148,-1.39974 -1.101396,-1.83754 -0.458671,-3.38921 1.19746,-2.89092 3.127457,-3.31022 13.086299,-2.84305 9.9884,0.46857 13.216031,1.04057 14.309451,2.53591 1.3012,1.77949 0.92277,4.19349 -0.88151,5.62314 -1.40621,1.11423 -2.13813,1.25319 -5.033531,0.95562 l -3.38804,-0.34819 -0.34368,4.92176 c -0.18902,2.70697 -0.56126,9.4654 -0.82719,15.01873 -0.45699,9.54321 -0.55952,10.15852 -1.86934,11.21915 -1.84726,1.49582 -4.540229,1.42534 -6.125891,-0.16033 z"
     id="path55257"
     sodipodi:nodetypes="ssscssssssscssss" />
  <path
     style="fill:#53eabc;fill-opacity:1;stroke-width:0.598355"
     d="m 114.4034,119.56629 c -2.60228,-1.0548 -2.90433,-2.15696 -3.3456,-12.20779 -0.23329,-5.31363 -0.44639,-13.333638 -0.47355,-17.822236 -0.0435,-7.190731 0.0867,-8.329044 1.09519,-9.573672 0.94481,-1.166048 1.67981,-1.404874 4.2113,-1.368397 4.66862,0.06727 5.00791,0.66511 5.49626,9.68452 0.22702,4.192964 0.43613,10.423963 0.46469,13.846655 l 0.0519,6.2231 6.5316,-0.3967 c 8.14241,-0.49454 8.42727,-0.3033 8.42727,5.65754 0,5.11915 0.15544,5.03046 -10.33292,5.89589 -8.83312,0.72886 -10.45851,0.73705 -12.12615,0.0611 z"
     id="path55296"
     sodipodi:nodetypes="ssssssscsssss" />
  <path
     style="fill:#fa9e00;fill-opacity:1;stroke-width:0.5"
     d="m 143.82538,172.665 c -2.27874,-0.22073 -4.67473,-0.74962 -5.32444,-1.17533 -2.652,-1.73765 -2.68976,-5.28006 -0.0745,-6.99362 1.04759,-0.6864 1.8897,-0.75203 5.14732,-0.40115 6.49344,0.69942 8.64482,0.18572 8.64482,-2.06421 0,-1.60308 -1.06576,-2.36863 -7.51062,-5.395 -7.64997,-3.59225 -10.00307,-6.35845 -9.9784,-11.73021 0.0216,-4.69839 2.84946,-8.47014 8.23902,-10.98899 2.63785,-1.23282 3.58407,-1.40207 7.83834,-1.40207 4.13261,0 5.04424,0.15307 6.25,1.04945 2.21127,1.64389 2.22915,5.58523 0.0308,6.77976 -0.63184,0.34332 -3.10967,0.62173 -5.69087,0.63943 -5.19264,0.0356 -6.67823,0.78786 -6.67823,3.38158 0,2.03087 1.72166,3.54735 6.59054,5.80512 4.85764,2.25255 6.97066,3.91035 8.63202,6.77236 2.63896,4.5461 2.09217,8.65042 -1.65113,12.39373 -3.2395,3.2395 -6.83854,4.06785 -14.46459,3.32915 z"
     id="path76623"
     sodipodi:nodetypes="ssssssssssssssssss" />
  <path
     style="fill:#ff6680;fill-opacity:1;stroke-width:0.5"
     d="M 201.56743,117.21371 C 200.3665,116.26906 200.25,115.86533 200.25,112.64829 v -3.52913 l -1.875,0.30992 c -1.03125,0.17045 -2.94375,0.31239 -4.25,0.31542 -2.2109,0.005 -2.375,0.0936 -2.375,1.28033 0,1.63089 -1.22626,4.01314 -2.2724,4.41458 -1.25814,0.48279 -3.68874,0.36657 -4.8028,-0.22966 -1.79979,-0.96321 -2.53609,-3.78485 -2.80656,-10.75527 -0.19455,-5.013645 -0.06,-7.417546 0.57499,-10.27163 2.19708,-9.875431 8.51547,-17.075707 14.98429,-17.075707 8.42104,0 12.39298,8.770764 12.28598,27.129737 -0.0514,8.81266 -0.48783,11.40559 -2.16237,12.84597 -1.70493,1.46652 -4.21587,1.52143 -5.9837,0.13086 z M 199.13209,100.75 h 1.7354 l -0.34976,-3.732412 c -0.77058,-8.223278 -2.24776,-11.566797 -4.46099,-10.097265 -1.60508,1.065737 -4.16836,6.196416 -4.81933,9.646412 -0.8606,4.560975 -0.63217,4.893115 3.09713,4.503325 1.68418,-0.17603 3.84308,-0.32006 4.79755,-0.32006 z"
     id="path76701"
     sodipodi:nodetypes="sscscsssscssssscsssss" />
  <path
     style="fill:#ff6680;fill-opacity:1;stroke-width:0.5"
     d="m 214.99882,170.70471 c -4.7785,-1.18612 -8.93609,-4.83759 -11.26328,-9.89217 -1.50676,-3.27263 -2.10349,-10.38203 -1.16394,-13.86715 1.97682,-7.33276 11.68449,-13.86352 19.42062,-13.06508 5.79211,0.5978 11.66444,5.15138 13.40631,10.39566 1.02926,3.09881 1.05373,9.27956 0.0498,12.58336 -2.74445,9.03178 -12.6965,15.76984 -20.44953,13.84538 z m 7.56044,-10.28382 c 6.38692,-5.46697 6.06798,-16.44811 -0.50872,-17.51536 -2.45424,-0.39827 -5.65235,0.61591 -7.74999,2.45767 -3.28735,2.88632 -3.99071,6.62792 -2.16385,11.51066 1.12765,3.01392 2.67373,4.71798 4.79537,5.2854 2.10462,0.56286 3.40975,0.15967 5.62719,-1.73837 z"
     id="path82432"
     sodipodi:nodetypes="ssssssssssssss" />
  <path
     style="fill:#de5cff;fill-opacity:1;stroke-width:0.5"
     d="m 242.83924,172.72749 c -1.26532,-0.51055 -2.59142,-1.86106 -3.07847,-3.13516 -0.28846,-0.75457 -0.26593,-4.15605 0.0596,-9 0.28783,-4.28283 0.73707,-11.65957 0.99831,-16.39276 0.64624,-11.70841 1.35973,-12.95687 7.16487,-12.53696 2.27592,0.16462 3.21004,0.47127 3.85248,1.26465 0.74665,0.92207 1.21473,1.01409 3.91359,0.76937 3.91959,-0.35542 6.99275,0.50192 9.50387,2.65134 2.59617,2.22223 3.5882,4.45146 3.57475,8.03295 -0.0271,7.2116 -5.91648,13.20712 -13.00666,13.24103 -1.62101,0.008 -3.18018,-0.12984 -3.46483,-0.30575 -0.28464,-0.17592 -0.53459,-0.0253 -0.55545,0.33465 -0.72301,12.47878 -0.70778,12.37749 -2.06511,13.73481 -0.97343,0.97344 -1.92672,1.35097 -3.72745,1.4762 -1.33074,0.0925 -2.75702,0.0321 -3.16952,-0.13437 z m 14.2156,-22.85132 c 0.87103,-0.92355 1.86816,-2.6287 2.21586,-3.7892 0.7516,-2.50862 0.0543,-3.99618 -2.49002,-5.31189 -2.3183,-1.19884 -3.74302,-0.62883 -4.11935,1.64809 -0.55297,3.34571 -0.37462,8.52766 0.30291,8.80105 1.47978,0.5971 2.60618,0.2259 4.0906,-1.34805 z"
     id="path86954"
     sodipodi:nodetypes="ssssssssscscssssssssss" />
  <path
     style="fill:#ff6680;fill-opacity:1;stroke-width:0.25"
     d="m 169.61066,172.92411 c -1.11558,-0.58934 -1.86451,-1.50378 -2.22031,-2.71098 -0.56553,-1.91873 -1.42283,-33.16882 -0.96796,-35.28357 0.57667,-2.68104 2.61426,-3.87051 5.57674,-3.2555 3.05371,0.63395 3.38589,1.55595 3.58222,9.943 l 0.14191,6.0625 3.40118,-0.002 c 1.87064,-9.8e-4 4.16848,-0.0742 5.1063,-0.1628 l 1.70513,-0.16102 -0.17778,-6.04463 c -0.20077,-6.82641 -0.038,-8.122 1.19679,-9.5284 0.89048,-1.01419 2.26889,-1.44254 3.89679,-1.21093 2.42404,0.34488 3.38081,1.21487 3.83218,3.48455 0.10938,0.55 0.37373,7.24375 0.58745,14.875 0.57805,20.64044 0.57607,19.99151 0.064,20.9295 -1.38239,2.53205 -4.67463,3.34091 -6.84873,1.68265 -1.60333,-1.22292 -1.86869,-2.25788 -2.13966,-8.34522 -0.1913,-4.29747 -0.31956,-5.48073 -0.63189,-5.82943 -0.34634,-0.38667 -0.92724,-0.4375 -4.99958,-0.4375 h -4.60771 l 0.084,6.70405 0.0839,6.70405 -0.671,1.01566 c -1.2523,1.89554 -4.01083,2.61844 -5.99395,1.57079 z"
     id="path91711"
     sodipodi:nodetypes="cssssccccssssscsssscccscc" />
  <path
     style="fill:#53eabc;fill-opacity:1;stroke-width:0.25"
     d="m 82.316207,120.58887 c -0.074,-0.11974 -0.493123,-0.28942 -0.931376,-0.37707 -0.997633,-0.19953 -2.353284,-1.21676 -2.817242,-2.11395 -0.64888,-1.2548 -0.876089,-4.57653 -1.199834,-17.54127 -0.438314,-17.552767 -0.429204,-18.34845 0.226605,-19.791415 0.955896,-2.103241 0.261137,-1.997629 13.778489,-2.094493 13.429691,-0.09624 12.999901,-0.149919 13.894591,1.735497 0.55436,1.168227 0.5908,4.968943 0.0598,6.239744 -0.72921,1.745233 -0.81419,1.762074 -10.019511,1.985573 -4.54383,0.110321 -8.402134,0.247568 -8.574009,0.304992 -0.350715,0.117177 -0.405986,1.652328 -0.148265,4.118066 l 0.164234,1.571311 6.43304,-0.123717 c 7.025781,-0.135117 7.513151,-0.06479 8.375391,1.208597 0.41087,0.606779 0.4881,1.155998 0.4881,3.470844 0,2.873471 -0.29151,3.811181 -1.3275,4.270231 -0.23237,0.10297 -3.403751,0.26959 -7.047501,0.37028 -3.64375,0.10069 -6.656808,0.19464 -6.695687,0.20878 -0.03888,0.0142 -0.03888,1.28884 0,2.83266 l 0.07069,2.80694 0.692301,0.24301 c 0.469596,0.16483 3.137166,0.0951 8.292406,-0.2167 7.440351,-0.45003 7.617091,-0.44977 8.408311,0.0126 1.25335,0.73235 1.81531,2.08192 1.93833,4.655 0.0795,1.66287 0.002,2.47818 -0.31236,3.30232 -0.61334,1.60601 -1.28117,1.8334 -6.299461,2.14496 -2.32074,0.14409 -6.58203,0.42662 -9.46953,0.62785 -6.049832,0.42162 -7.791652,0.45423 -7.98004,0.14941 z"
     id="path97584"
     sodipodi:nodetypes="csssssscssscssssscscsscscsscc" />
</svg>
