<?xml version="1.0" encoding="UTF-8" standalone="no"?>
<svg
   width="318.07324"
   height="113.49383"
   viewBox="0 0 318.07324 113.49383"
   fill="none"
   version="1.1"
   id="svg26"
   sodipodi:docname="pixelnaut-logo2.svg"
   inkscape:version="1.1.1 (3bf5ae0d25, 2021-09-20)"
   inkscape:export-filename="/home/phil48/WebstormProjects/pixelnaut-riptide/public/pixelnaut-logo.png"
   inkscape:export-xdpi="96"
   inkscape:export-ydpi="96"
   xmlns:inkscape="http://www.inkscape.org/namespaces/inkscape"
   xmlns:sodipodi="http://sodipodi.sourceforge.net/DTD/sodipodi-0.dtd"
   xmlns:xlink="http://www.w3.org/1999/xlink"
   xmlns="http://www.w3.org/2000/svg"
   xmlns:svg="http://www.w3.org/2000/svg">
  <defs
     id="defs30">
    <linearGradient
       id="linearGradient111072"
       inkscape:swatch="solid">
      <stop
         style="stop-color:#000000;stop-opacity:1;"
         offset="0"
         id="stop111070" />
    </linearGradient>
    <linearGradient
       id="linearGradient111066"
       inkscape:swatch="solid">
      <stop
         style="stop-color:#002a7a;stop-opacity:1;"
         offset="0"
         id="stop111064" />
    </linearGradient>
    <linearGradient
       id="linearGradient109963"
       inkscape:swatch="solid">
      <stop
         style="stop-color:#000000;stop-opacity:1;"
         offset="0"
         id="stop109961" />
    </linearGradient>
    <linearGradient
       id="linearGradient107171"
       inkscape:swatch="solid">
      <stop
         style="stop-color:#0fe6df;stop-opacity:1;"
         offset="0"
         id="stop107169" />
    </linearGradient>
    <linearGradient
       inkscape:collect="always"
       xlink:href="#linearGradient111066"
       id="linearGradient111068"
       x1="-16.341614"
       y1="99.500671"
       x2="13.649074"
       y2="99.500671"
       gradientUnits="userSpaceOnUse"
       gradientTransform="translate(-229.88035,-90.841875)" />
    <linearGradient
       inkscape:collect="always"
       xlink:href="#linearGradient107171"
       id="linearGradient148193"
       gradientUnits="userSpaceOnUse"
       gradientTransform="translate(22.142942,-70.640783)"
       x1="-16.341614"
       y1="99.500671"
       x2="13.649074"
       y2="99.500671" />
    <linearGradient
       inkscape:collect="always"
       xlink:href="#linearGradient111066"
       id="linearGradient1270"
       gradientUnits="userSpaceOnUse"
       gradientTransform="translate(-229.88035,-90.841875)"
       x1="-16.341614"
       y1="99.500671"
       x2="13.649074"
       y2="99.500671" />
    <linearGradient
       inkscape:collect="always"
       xlink:href="#linearGradient111066"
       id="linearGradient1272"
       gradientUnits="userSpaceOnUse"
       gradientTransform="translate(-229.88035,-90.841875)"
       x1="-16.341614"
       y1="99.500671"
       x2="13.649074"
       y2="99.500671" />
    <linearGradient
       inkscape:collect="always"
       xlink:href="#linearGradient111066"
       id="linearGradient1274"
       gradientUnits="userSpaceOnUse"
       gradientTransform="translate(-229.88035,-90.841875)"
       x1="-16.341614"
       y1="99.500671"
       x2="13.649074"
       y2="99.500671" />
    <linearGradient
       inkscape:collect="always"
       xlink:href="#linearGradient107171"
       id="linearGradient1276"
       gradientUnits="userSpaceOnUse"
       gradientTransform="translate(22.142942,-70.640783)"
       x1="-16.341614"
       y1="99.500671"
       x2="13.649074"
       y2="99.500671" />
  </defs>
  <sodipodi:namedview
     id="namedview28"
     pagecolor="#ffffff"
     bordercolor="#666666"
     borderopacity="1.0"
     inkscape:pageshadow="2"
     inkscape:pageopacity="0.0"
     inkscape:pagecheckerboard="0"
     showgrid="false"
     inkscape:zoom="1.4142136"
     inkscape:cx="100.40916"
     inkscape:cy="119.8546"
     inkscape:window-width="1920"
     inkscape:window-height="1020"
     inkscape:window-x="0"
     inkscape:window-y="0"
     inkscape:window-maximized="1"
     inkscape:current-layer="svg26"
     inkscape:object-paths="true"
     inkscape:snap-bbox="true"
     inkscape:snap-global="false"
     fit-margin-top="0"
     fit-margin-left="0"
     fit-margin-right="0"
     fit-margin-bottom="0" />
  <g
     id="g2669"
     transform="translate(-0.28462946,0.18700522)">
    <path
       sodipodi:type="inkscape:offset"
       inkscape:radius="7.9430919"
       inkscape:original="M 288.14062 8.90625 C 286.64862 8.84885 285.10102 9.1925244 283.66602 9.7089844 C 281.25602 10.627124 280.22298 13.094801 281.08398 15.275391 C 281.82998 17.283891 284.06669 18.489491 286.30469 18.087891 C 287.50969 17.858291 288.71552 17.858616 289.97852 17.916016 C 289.97852 18.202916 290.03516 18.431416 290.03516 18.603516 C 289.69116 26.350416 289.11648 36.680834 288.77148 44.427734 C 288.77148 45.288434 288.83031 46.262347 288.94531 47.123047 C 289.34631 49.647947 291.69997 51.313809 294.16797 50.912109 C 296.80697 50.453009 298.18383 48.730528 298.29883 45.861328 C 298.38483 43.093748 298.51879 39.964627 298.66797 36.748047 C 298.91781 31.361067 299.20897 25.727975 299.38867 21.128906 C 299.38867 20.382906 299.50255 19.57945 299.56055 18.71875 L 300.36523 18.71875 C 301.68523 18.83345 303.00422 18.8903 304.32422 19.0625 C 307.02122 19.3494 309.43103 17.744084 309.83203 15.333984 C 310.29203 12.923844 308.80052 10.857043 306.10352 10.283203 C 304.61152 9.9388931 303.06231 9.8811344 301.57031 9.7089844 C 300.25031 9.5942144 298.98761 9.5952388 297.72461 9.4804688 C 294.56861 9.2509287 291.35462 8.96363 288.14062 8.90625 z "
       xlink:href="#path8-2-9"
       id="path275942"
       inkscape:href="#path8-2-9"
       style="fill:#002a7a;fill-opacity:1"
       d="M 288.40234,0.97265625 C 285.50283,0.86871271 283.05616,1.4859241 280.97656,2.234375 a 7.9438862,7.9438862 0 0 0 -0.13867,0.052734 c -6.09442,2.3217974 -9.50274,9.7169196 -7.17187,15.8007816 1.43478,3.811427 4.52503,6.257692 8.08398,7.322265 -0.31437,6.32215 -0.66219,13.00821 -0.91406,18.664063 a 7.9438862,7.9438862 0 0 0 -0.008,0.353515 c 0,1.222648 0.0721,2.460189 0.24415,3.748047 a 7.9438862,7.9438862 0 0 0 0.0273,0.19336 c 1.07132,6.745593 7.64856,11.472544 14.34375,10.382812 a 7.9438862,7.9438862 0 0 0 0.0859,-0.01367 c 2.74226,-0.477064 5.79273,-1.951682 7.8125,-4.435547 2.01977,-2.483864 2.78877,-5.484491 2.89453,-8.123046 a 7.9438862,7.9438862 0 0 0 0.002,-0.07227 c 0.0838,-2.697413 0.21495,-5.793927 0.36328,-8.992188 0.16526,-3.563337 0.32362,-6.978365 0.48242,-10.425781 5.01763,-0.861858 9.58544,-4.408018 10.55664,-9.955078 1.14298,-6.297619 -3.97981,-12.9322402 -9.84765,-14.2050781 -2.41091,-0.5426757 -4.26047,-0.5895515 -5.3125,-0.7109375 a 7.9438862,7.9438862 0 0 0 -0.22266,-0.023437 c -1.75955,-0.1529874 -3.03088,-0.1534054 -3.81445,-0.2246094 a 7.9438862,7.9438862 0 0 0 -0.14258,-0.011719 C 295.2704,1.3381898 291.94673,1.04169 288.40234,0.97265625 Z" />
    <path
       d="m 299.56145,18.718736 h 0.803 c 1.32,0.1147 2.64,0.1721 3.96,0.3443 2.697,0.2869 5.107,-1.3199 5.508,-3.73 0.46,-2.41014 -1.032,-4.47598 -3.729,-5.04982 -1.492,-0.34431 -3.042,-0.40169 -4.534,-0.57384 -1.32,-0.11477 -2.582,-0.11477 -3.845,-0.22954 -3.156,-0.22954 -6.369,-0.51646 -9.583,-0.57384 -1.492,-0.0574 -3.041,0.28692 -4.476,0.80338 -2.41,0.91814 -3.443,3.38567 -2.582,5.56626 0.746,2.0085 2.984,3.2135 5.222,2.8119 1.205,-0.2296 2.41,-0.2296 3.673,-0.1722 0,0.2869 0.057,0.5165 0.057,0.6886 -0.344,7.7469 -0.918,18.076104 -1.263,25.823004 0,0.8607 0.058,1.8363 0.173,2.697 0.401,2.5249 2.754,4.1891 5.222,3.7874 2.639,-0.4591 4.016,-2.1806 4.131,-5.0498 0.086,-2.76758 0.22006,-5.89612 0.36924,-9.1127 0.24984,-5.38698 0.54206,-11.020935 0.72176,-15.620004 0,-0.746 0.114,-1.5494 0.172,-2.4101 z"
       fill="#de5cff"
       id="path8-2-9"
       sodipodi:nodetypes="cccccccccccccccccscc" />
    <path
       sodipodi:type="inkscape:offset"
       inkscape:radius="6.3754573"
       inkscape:original="M 247.87305 10.472656 C 245.46305 10.357886 243.51286 11.736344 242.88086 14.146484 C 242.36486 16.269684 241.9635 18.5069 241.5625 20.6875 C 240.7585 25.5078 240.24241 30.328135 240.81641 35.148438 C 243.05441 52.421138 266.7522 50.240009 269.9082 34.287109 C 270.7692 28.6634 270.76953 23.154631 270.76953 16.957031 C 270.71253 15.006031 269.79462 13.514338 268.01562 12.710938 C 264.85962 11.276328 261.35778 13.572625 261.30078 17.015625 C 261.24278 21.032525 261.18567 25.049506 261.01367 29.066406 C 260.61167 39.567808 249.07797 41.919308 250.16797 29.753906 C 250.62697 24.933606 251.77573 20.056628 252.17773 15.236328 C 252.40673 12.654028 250.45505 10.587426 247.87305 10.472656 z "
       xlink:href="#path10-6"
       id="path255600"
       inkscape:href="#path10-6"
       style="fill:#002a7a;fill-opacity:1"
       d="m 248.16211,4.1054688 c -4.99177,-0.230434 -10.15152,3.4825018 -11.44727,8.4238282 a 6.3760948,6.3760948 0 0 0 -0.0293,0.111328 c -0.57955,2.384658 -0.99501,4.732569 -1.39258,6.894531 a 6.3760948,6.3760948 0 0 0 -0.0195,0.103516 c -0.84464,5.063933 -1.47318,10.502266 -0.78711,16.263672 a 6.3760948,6.3760948 0 0 0 0.008,0.06445 c 0.74593,5.757008 3.55102,10.629373 7.49805,13.644531 3.94703,3.015158 8.76442,4.198378 13.39258,3.931641 9.25631,-0.533476 18.62049,-7.117124 20.77734,-18.019531 a 6.3760948,6.3760948 0 0 0 0.0488,-0.271485 c 0.95522,-6.239124 0.93359,-12.097095 0.93359,-18.294922 a 6.3760948,6.3760948 0 0 0 -0.002,-0.185547 c -0.11254,-3.851961 -2.77493,-8.1846975 -6.5,-9.8691402 -4.83472,-2.190745 -10.24881,-0.2884471 -13.29297,3.5507812 -1.73305,-3.5286322 -5.21303,-6.1684704 -9.1875,-6.3476562 z" />
    <path
       d="m 269.90861,34.28799 c 0.861,-5.623709 0.861,-11.132502 0.861,-17.330102 -0.057,-1.951 -0.975,-3.443 -2.754,-4.2464 -3.156,-1.43461 -6.657,0.8608 -6.714,4.3038 -0.058,4.0169 -0.115,8.0338 -0.287,12.0507 -0.402,10.501402 -11.936,12.854102 -10.846,0.6887 0.459,-4.8203 1.607,-9.698 2.009,-14.5183 0.229,-2.5823 -1.722,-4.64812 -4.304,-4.76289 -2.41,-0.11477 -4.361,1.26245 -4.993,3.67259 -0.516,2.1232 -0.918,4.3612 -1.319,6.5418 -0.804,4.8203 -1.32,9.6406 -0.746,14.460902 2.238,17.2727 25.937,15.0921 29.093,-0.8608 z"
       fill="#ff6680"
       id="path10-6"
       sodipodi:nodetypes="cccccccccccc" />
    <path
       d="m 223.10525,40.45597 c -0.172,1.2624 -0.287,2.4675 -0.459,3.6152 -0.402,2.238 0.746,4.3612 2.869,5.1072 3.099,1.1477 6.255,-0.8034 6.714,-4.2464 0.746,-7.6322 0.861,-15.206899 -0.574,-24.216198 -0.574,-2.6971 -1.262,-5.3368 -2.697,-7.7469 -3.156,-5.39414 -9.239,-6.82875 -14.461,-3.44307 -4.82,3.09877 -8.034,9.00937 -9.411,14.74777 -1.492,6.254896 -1.033,12.567198 0,18.822098 0.115,0.5164 0.345,1.0903 0.631,1.5493 1.148,2.0085 3.616,2.8693 5.854,2.1233 2.238,-0.8034 3.385,-2.7545 3.041,-5.1646 -0.057,-0.2296 0,-0.4017 0,-0.6313 2.812,-0.1721 5.509,-0.3443 8.493,-0.5164 z m 0.172,-9.0094 c -3.271,0.1722 -6.312,0.3444 -9.354,0.5165 -0.573,-3.557798 0.919,-8.550298 3.157,-11.935898 4.992,-7.8043 5.508,5.0498 6.025,8.2633 0.057,1.032899 0.115,2.008496 0.172,3.156098 z"
       fill="#ff6680"
       id="path12-0"
       sodipodi:nodetypes="ccccccccccccccccccc" />
    <path
       sodipodi:type="inkscape:offset"
       inkscape:radius="9.1559477"
       inkscape:original="M 192.50586 10.25 C 190.22773 10.223102 188.15111 11.792756 187.84961 14.332031 C 187.33261 18.693231 187.04812 23.11265 186.70312 27.53125 C 186.53113 29.023254 186.47278 30.51602 186.30078 32.294922 C 185.78378 31.606322 185.4413 31.204436 185.1543 30.802734 C 182.0553 26.211933 178.95483 21.620097 175.79883 17.029297 C 174.93783 15.709497 174.07928 14.389887 172.98828 13.242188 C 171.49628 11.635397 169.60311 11.234489 167.53711 11.980469 C 165.58611 12.611669 164.38086 14.332313 164.38086 16.570312 C 164.20886 25.177912 164.09352 33.842812 163.97852 42.507812 C 163.97852 43.483312 164.15025 44.460372 164.78125 45.263672 C 165.92925 46.813072 167.53569 47.50055 169.42969 47.15625 C 171.38069 46.81195 172.6998 45.722584 173.2168 43.771484 C 173.3888 43.082884 173.44591 42.394437 173.50391 41.648438 C 173.61891 38.434938 173.67602 35.163478 173.79102 31.892578 C 173.79102 31.777778 173.90589 31.6619 173.96289 31.375 C 174.30689 31.7767 174.59386 32.122497 174.88086 32.466797 C 177.00386 35.393397 179.07095 38.376894 181.25195 41.246094 C 182.45695 42.852894 183.83394 44.402531 185.21094 45.894531 C 186.24394 46.984831 187.56269 47.673603 189.05469 47.845703 C 191.92369 48.132703 194.27756 46.238231 194.85156 43.082031 C 195.19556 41.245731 195.36706 39.351925 195.53906 37.515625 C 195.94106 32.178925 196.2855 26.842659 196.6875 21.505859 C 196.8595 19.497459 197.09008 17.432228 197.20508 15.423828 C 197.37708 13.415328 196.62997 11.807561 194.79297 10.832031 C 194.04697 10.444686 193.26523 10.258966 192.50586 10.25 z "
       xlink:href="#path14-6"
       id="path209290"
       inkscape:href="#path14-6"
       d="m 192.61328,1.09375 c -4.8109,-0.056803 -9.54317,2.7928558 -12.0664,7.0625 -0.3515,-0.4285712 -0.45951,-0.7216099 -0.88086,-1.1679688 -3.57302,-3.8194592 -10.36199,-5.270456 -15.07813,-3.6484374 -5.46243,1.8468383 -9.36328,7.7525592 -9.36328,13.2304682 -0.1708,8.588012 -0.2862,17.21235 -0.40039,25.816407 a 9.1568633,9.1568633 0 0 0 -0.002,0.121093 c 0,2.020449 0.40507,5.308163 2.67578,8.279297 2.82946,3.742788 8.68807,6.252607 13.55078,5.376953 2.50766,-0.450184 5.16881,-2.063313 7.32031,-4.195312 0.0366,0.03972 0.0768,0.09527 0.11328,0.134766 a 9.1568633,9.1568633 0 0 0 0.082,0.08789 c 2.38471,2.51699 5.79698,4.329621 9.44141,4.75 a 9.1568633,9.1568633 0 0 0 0.13672,0.01563 c 7.32909,0.733165 14.45966,-5.372458 15.71289,-12.224609 0.44694,-2.398837 0.62957,-4.556259 0.79883,-6.363281 a 9.1568633,9.1568633 0 0 0 0.0156,-0.166016 c 0.40672,-5.399319 0.7516,-10.732882 1.14844,-16.001953 1.9e-4,-0.0026 -1.9e-4,-0.0053 0,-0.0078 0.15238,-1.760254 0.37295,-3.800618 0.50781,-6.013671 C 206.7136,11.51382 203.6892,5.1895965 199.08789,2.7460938 a 9.1568633,9.1568633 0 0 0 -0.0762,-0.039063 C 197.00634,1.665781 194.79101,1.1194628 192.61328,1.09375 Z" />
    <path
       sodipodi:type="inkscape:offset"
       inkscape:radius="6.6479516"
       inkscape:original="M 192.50586 10.25 C 190.22773 10.223102 188.15111 11.792756 187.84961 14.332031 C 187.33261 18.693231 187.04812 23.11265 186.70312 27.53125 C 186.53113 29.023254 186.47278 30.51602 186.30078 32.294922 C 185.78378 31.606322 185.4413 31.204436 185.1543 30.802734 C 182.0553 26.211933 178.95483 21.620097 175.79883 17.029297 C 174.93783 15.709497 174.07928 14.389887 172.98828 13.242188 C 171.49628 11.635397 169.60311 11.234489 167.53711 11.980469 C 165.58611 12.611669 164.38086 14.332313 164.38086 16.570312 C 164.20886 25.177912 164.09352 33.842812 163.97852 42.507812 C 163.97852 43.483312 164.15025 44.460372 164.78125 45.263672 C 165.92925 46.813072 167.53569 47.50055 169.42969 47.15625 C 171.38069 46.81195 172.6998 45.722584 173.2168 43.771484 C 173.3888 43.082884 173.44591 42.394437 173.50391 41.648438 C 173.61891 38.434938 173.67602 35.163478 173.79102 31.892578 C 173.79102 31.777778 173.90589 31.6619 173.96289 31.375 C 174.30689 31.7767 174.59386 32.122497 174.88086 32.466797 C 177.00386 35.393397 179.07095 38.376894 181.25195 41.246094 C 182.45695 42.852894 183.83394 44.402531 185.21094 45.894531 C 186.24394 46.984831 187.56269 47.673603 189.05469 47.845703 C 191.92369 48.132703 194.27756 46.238231 194.85156 43.082031 C 195.19556 41.245731 195.36706 39.351925 195.53906 37.515625 C 195.94106 32.178925 196.2855 26.842659 196.6875 21.505859 C 196.8595 19.497459 197.09008 17.432228 197.20508 15.423828 C 197.37708 13.415328 196.62997 11.807561 194.79297 10.832031 C 194.04697 10.444686 193.26523 10.258966 192.50586 10.25 z "
       xlink:href="#path14-6"
       id="path236873"
       inkscape:href="#path14-6"
       style="fill:#002a7a;fill-opacity:1"
       d="m 192.58398,3.6015625 c -5.304,-0.062625 -10.46308,4.0775415 -11.26367,9.7246095 v 0.002 c -2.1e-4,0.0015 -0.002,0.0024 -0.002,0.0039 -0.84463,-1.296367 -1.88358,-2.939662 -3.48242,-4.6308591 -3.0017,-3.2120146 -8.45517,-4.3758304 -12.43946,-2.9941407 -4.50021,1.5120698 -7.66406,6.2731908 -7.66406,10.8632808 -0.17113,8.593624 -0.28597,17.228728 -0.40039,25.84961 a 6.6486164,6.6486164 0 0 0 -0.002,0.08789 c 0,1.737948 0.34894,4.405617 2.18554,6.789063 2.37162,3.12464 7.04887,5.126225 11.08594,4.400391 2.9275,-0.522436 6.03066,-2.716223 7.8125,-5.544922 0.64371,0.738054 1.28744,1.573161 1.91211,2.25 a 6.6486164,6.6486164 0 0 0 0.0586,0.06445 c 2.01445,2.126191 4.85336,3.630051 7.9082,3.982422 a 6.6486164,6.6486164 0 0 0 0.0996,0.01172 c 6.10839,0.611051 11.93242,-4.342918 12.99804,-10.183594 0.41838,-2.244052 0.59771,-4.328959 0.76758,-6.142578 a 6.6486164,6.6486164 0 0 0 0.01,-0.119141 c 0.40557,-5.384071 0.75,-10.720329 1.14844,-16.009766 0.15731,-1.823362 0.37982,-3.865875 0.50976,-6.027343 0.33184,-3.937958 -2.06988,-8.9751058 -5.91601,-11.0175785 a 6.6486164,6.6486164 0 0 0 -0.0547,-0.029297 C 196.19506,4.069508 194.3732,3.622688 192.58398,3.6015625 Z" />
    <path
       d="m 173.9635,31.37589 c 0.344,0.4017 0.631,0.746 0.918,1.0903 2.123,2.9266 4.189,5.9106 6.37,8.7798 1.205,1.6068 2.582,3.1562 3.959,4.6482 1.033,1.0903 2.353,1.7789 3.845,1.951 2.869,0.287 5.222,-1.6067 5.796,-4.7629 0.344,-1.8363 0.516,-3.73 0.688,-5.5663 0.402,-5.3367 0.746,-10.673403 1.148,-16.010203 0.172,-2.0084 0.402,-4.0743 0.517,-6.0827 0.172,-2.0085 -0.574,-3.61524 -2.411,-4.59077 -2.984,-1.54938 -6.541,0.11477 -6.943,3.50047 -0.517,4.3612 -0.803,8.7798 -1.148,13.1984 -0.172,1.492004 -0.229,2.984001 -0.401,4.762903 -0.517,-0.6886 -0.861,-1.0903 -1.148,-1.492002 -3.099,-4.590801 -6.198,-9.181501 -9.354,-13.772301 -0.861,-1.3198 -1.721,-2.6396 -2.812,-3.7873 -1.492,-1.60679 -3.385,-2.00848 -5.451,-1.2625 -1.951,0.6312 -3.156,2.3528 -3.156,4.5908 -0.172,8.6076 -0.287,17.272703 -0.402,25.937703 0,0.9755 0.172,1.9511 0.803,2.7544 1.148,1.5494 2.755,2.238 4.649,1.8937 1.951,-0.3443 3.27,-1.4346 3.787,-3.3857 0.172,-0.6886 0.229,-1.3772 0.287,-2.1232 0.115,-3.2135 0.172,-6.4844 0.287,-9.7553 0,-0.1148 0.115,-0.2296 0.172,-0.5165 z"
       fill="#fa9e00"
       id="path14-6"
       sodipodi:nodetypes="ccccccccccccccccccccccccc" />
    <path
       style="mix-blend-mode:normal;fill:url(#linearGradient1270);fill-opacity:1;fill-rule:nonzero;stroke:url(#linearGradient1272);stroke-width:0.149589;stroke-opacity:1"
       sodipodi:type="inkscape:offset"
       inkscape:radius="0"
       inkscape:original="M 12.515625 7.9082031 C 10.576327 8.1002195 9.176835 9.0446506 8.390625 10.712891 C 7.776385 12.016231 7.63174 12.884949 7.46875 16.199219 C 7.38986 17.803559 7.0585719 23.457019 6.7324219 28.763672 C 5.7739419 44.358784 5.7986069 43.832448 5.9667969 45.173828 C 6.0513869 45.848428 6.2141381 46.626797 6.3300781 46.904297 C 6.7983081 48.024917 8.0435281 49.033007 9.6425781 49.585938 C 10.569648 49.906517 12.622293 49.934988 13.720703 49.642578 C 15.640593 49.131468 16.937269 48.104139 17.474609 46.667969 C 17.803739 45.788269 17.870541 45.015653 18.269531 37.439453 C 18.367021 35.588293 18.454744 34.060169 18.464844 34.042969 C 18.474934 34.025759 18.88486 34.123126 19.375 34.259766 C 20.77995 34.651466 23.824613 34.608288 25.351562 34.173828 C 27.891773 33.451068 30.157539 32.006261 32.199219 29.808594 C 35.169419 26.611466 36.387122 22.061776 35.357422 18.003906 C 34.482932 14.557656 31.121471 11.380757 27.244141 10.335938 C 25.718691 9.9248775 22.710521 9.8955937 21.087891 10.277344 C 20.470831 10.422514 19.815969 10.577994 19.630859 10.621094 C 19.385279 10.678284 19.292969 10.630879 19.292969 10.449219 C 19.292969 10.312299 18.965373 9.8735662 18.564453 9.4726562 C 17.730413 8.6386162 16.731253 8.2543769 14.632812 7.9667969 C 13.868877 7.8621044 13.162058 7.8441977 12.515625 7.9082031 z M 19.980469 17.154297 C 20.635579 16.880617 21.914701 16.888935 22.744141 17.171875 C 23.725021 17.506475 24.799272 18.393455 25.544922 19.484375 C 26.165152 20.391855 26.199375 20.493755 26.109375 21.171875 C 25.975665 22.179845 25.276779 24.088432 24.667969 25.107422 C 23.988349 26.244932 22.893286 27.360294 22.103516 27.71875 C 21.751326 27.878599 21.194334 28.007659 20.865234 28.005859 C 20.194284 28.00213 19.228526 27.555246 19.009766 27.146484 C 18.876686 26.897828 19.106652 21.543004 19.382812 18.464844 C 19.478923 17.393494 19.493809 17.357637 19.980469 17.154297 z "
       xlink:href="#path29559"
       id="path113612"
       inkscape:href="#path29559"
       d="m 12.515625,7.9082031 c -1.939298,0.1920164 -3.33879,1.1364475 -4.125,2.8046879 -0.61424,1.30334 -0.758885,2.172058 -0.921875,5.486328 -0.07889,1.60434 -0.4101781,7.2578 -0.7363281,12.564453 -0.95848,15.595112 -0.933815,15.068776 -0.765625,16.410156 0.08459,0.6746 0.2473412,1.452969 0.3632812,1.730469 0.46823,1.12062 1.71345,2.12871 3.3125,2.681641 0.9270699,0.320579 2.9797149,0.34905 4.0781249,0.05664 1.91989,-0.51111 3.216566,-1.538439 3.753906,-2.974609 0.32913,-0.8797 0.395932,-1.652316 0.794922,-9.228516 0.09749,-1.85116 0.185213,-3.379284 0.195313,-3.396484 0.01009,-0.01721 0.420016,0.08016 0.910156,0.216797 1.40495,0.3917 4.449613,0.348522 5.976562,-0.08594 2.540211,-0.72276 4.805977,-2.167567 6.847657,-4.365234 2.9702,-3.197128 4.187903,-7.746818 3.158203,-11.804688 -0.87449,-3.44625 -4.235951,-6.623149 -8.113281,-7.667968 -1.52545,-0.4110605 -4.53362,-0.4403443 -6.15625,-0.05859 -0.61706,0.14517 -1.271922,0.30065 -1.457032,0.34375 -0.24558,0.05719 -0.33789,0.0098 -0.33789,-0.171875 0,-0.13692 -0.327596,-0.5756528 -0.728516,-0.9765628 -0.83404,-0.83404 -1.8332,-1.2182793 -3.931641,-1.5058593 -0.763935,-0.1046925 -1.470754,-0.1225992 -2.117187,-0.058594 z m 7.464844,9.2460939 c 0.65511,-0.27368 1.934232,-0.265362 2.763672,0.01758 0.98088,0.3346 2.055131,1.22158 2.800781,2.3125 0.62023,0.90748 0.654453,1.00938 0.564453,1.6875 -0.13371,1.00797 -0.832596,2.916557 -1.441406,3.935547 -0.67962,1.13751 -1.774683,2.252872 -2.564453,2.611328 -0.35219,0.159849 -0.909182,0.288909 -1.238282,0.287109 -0.67095,-0.0037 -1.636708,-0.450613 -1.855468,-0.859375 -0.13308,-0.248656 0.09689,-5.60348 0.373046,-8.68164 0.09611,-1.07135 0.110997,-1.107207 0.597657,-1.310547 z" />
    <path
       style="mix-blend-mode:normal;fill:url(#linearGradient1274);fill-opacity:1;fill-rule:nonzero;stroke:url(#linearGradient111068);stroke-width:0.149589;stroke-opacity:1"
       sodipodi:type="inkscape:offset"
       inkscape:radius="6.091434"
       inkscape:original="M 12.515625 7.9082031 C 10.576327 8.1002195 9.176835 9.0446506 8.390625 10.712891 C 7.776385 12.016231 7.63174 12.884949 7.46875 16.199219 C 7.38986 17.803559 7.0585719 23.457019 6.7324219 28.763672 C 5.7739419 44.358784 5.7986069 43.832448 5.9667969 45.173828 C 6.0513869 45.848428 6.2141381 46.626797 6.3300781 46.904297 C 6.7983081 48.024917 8.0435281 49.033007 9.6425781 49.585938 C 10.569648 49.906517 12.622293 49.934988 13.720703 49.642578 C 15.640593 49.131468 16.937269 48.104139 17.474609 46.667969 C 17.803739 45.788269 17.870541 45.015653 18.269531 37.439453 C 18.367021 35.588293 18.454744 34.060169 18.464844 34.042969 C 18.474934 34.025759 18.88486 34.123126 19.375 34.259766 C 20.77995 34.651466 23.824613 34.608288 25.351562 34.173828 C 27.891773 33.451068 30.157539 32.006261 32.199219 29.808594 C 35.169419 26.611466 36.387122 22.061776 35.357422 18.003906 C 34.482932 14.557656 31.121471 11.380757 27.244141 10.335938 C 25.718691 9.9248775 22.710521 9.8955937 21.087891 10.277344 C 20.470831 10.422514 19.815969 10.577994 19.630859 10.621094 C 19.385279 10.678284 19.292969 10.630879 19.292969 10.449219 C 19.292969 10.312299 18.965373 9.8735662 18.564453 9.4726562 C 17.730413 8.6386162 16.731253 8.2543769 14.632812 7.9667969 C 13.868877 7.8621044 13.162058 7.8441977 12.515625 7.9082031 z M 19.980469 17.154297 C 20.635579 16.880617 21.914701 16.888935 22.744141 17.171875 C 23.725021 17.506475 24.799272 18.393455 25.544922 19.484375 C 26.165152 20.391855 26.199375 20.493755 26.109375 21.171875 C 25.975665 22.179845 25.276779 24.088432 24.667969 25.107422 C 23.988349 26.244932 22.893286 27.360294 22.103516 27.71875 C 21.751326 27.878599 21.194334 28.007659 20.865234 28.005859 C 20.194284 28.00213 19.228526 27.555246 19.009766 27.146484 C 18.876686 26.897828 19.106652 21.543004 19.382812 18.464844 C 19.478923 17.393494 19.493809 17.357637 19.980469 17.154297 z "
       xlink:href="#path29559"
       id="path148197"
       inkscape:href="#path29559"
       d="M 11.916016,1.8457031 C 8.3137286,2.2023776 4.4775014,4.7273573 2.8808594,8.1152344 1.9788469,10.029191 1.5538751,12.461687 1.3847656,15.900391 c -0.072281,1.469935 -0.40702841,7.195891 -0.73242185,12.490234 -0.47917886,7.796561 -0.71243772,11.535524 -0.81054687,13.638672 -0.0981092,2.103147 0.0127924,3.365714 0.08007812,3.902344 0.13262981,1.057714 -0.10911127,1.175226 0.78710938,3.320312 1.44834482,3.46634 4.10622932,5.110754 6.94335942,6.091797 3.4464432,1.191774 4.6183092,0.988564 7.6347652,0.185547 3.221895,-0.857728 6.562271,-3.170998 7.892579,-6.726563 0.32226,-0.861339 0.609112,-2.261055 0.734374,-3.714843 0.07785,-0.903576 0.179424,-2.906114 0.271485,-4.554688 0.904433,-0.133511 1.752553,-0.192302 2.833984,-0.5 3.678387,-1.046602 6.977471,-3.2094 9.642578,-6.078125 4.366494,-4.7001 6.177894,-11.229474 4.59961,-17.449219 C 39.69143,10.317557 34.846694,6.076894 28.828125,4.4550781 26.018807,3.6980558 23.800299,3.7188404 21.265625,4.1445312 19.494115,3.0032923 17.426703,2.2013059 15.458984,1.9316406 14.286872,1.77101 13.106568,1.7278227 11.916016,1.8457031 Z m 8.982422,20.0683589 c 1.000612,0.0056 1.121477,0.144405 1.429687,0.28711 0.141775,0.06564 0.350088,0.05647 0.630859,0.21875 -0.374699,0.225835 -0.688446,0.37953 -0.630859,0.355469 -1.987722,0.830394 -0.603592,0.485216 -1.550781,0.162109 -0.846162,-0.288645 -0.33734,-0.126262 -0.261719,-0.01563 0.279633,0.40914 0.136177,0.428256 -0.199219,-0.574219 -0.05303,-0.158503 -0.0063,-0.151541 -0.03906,-0.3125 0.07937,-0.01867 0.0056,-0.12446 0.621094,-0.121094 z m 4.173828,4.009766 c 0.04297,0.26281 0.01746,0.367623 -0.0078,0.431641 -8.6e-5,-0.06775 -0.0011,-0.07211 0,-0.16211 7.66e-4,-0.06257 0.0065,-0.198167 0.0078,-0.269531 z" />
    <path
       style="mix-blend-mode:normal;fill:url(#linearGradient1276);fill-opacity:1;fill-rule:nonzero;stroke:url(#linearGradient148193);stroke-width:0.149589;stroke-opacity:1"
       d="m 9.6433021,49.58689 c -1.59905,-0.55293 -2.84462,-1.56128 -3.31285,-2.6819 -0.11594,-0.2775 -0.28001,-1.05647 -0.3646,-1.73107 -0.16819,-1.34138 -0.19276,-0.81483 0.76572,-16.409942 0.32615,-5.306653 0.65756,-10.961103 0.73645,-12.565443 0.16299,-3.31427 0.30901,-4.1818 0.92325,-5.48514 1.04828,-2.22432 3.1852399,-3.16448 6.2409799,-2.74571 2.09844,0.28758 3.09849,0.67008 3.93253,1.50412 0.40092,0.40091 0.72894,0.84096 0.72894,0.97788 0,0.18166 0.091,0.22777 0.33658,0.17058 0.18511,-0.0431 0.84143,-0.19714 1.45849,-0.34231 1.62263,-0.38175 4.62915,-0.35376 6.1546,0.0573 3.87733,1.04482 7.23903,4.22204 8.11352,7.66829 1.0297,4.05787 -0.1873,8.6079 -3.1575,11.805028 -2.04168,2.197667 -4.30714,3.641637 -6.84735,4.364397 -1.52695,0.43446 -4.57223,0.4789 -5.97718,0.0872 -0.49014,-0.13664 -0.89941,-0.23435 -0.9095,-0.21714 -0.0101,0.0172 -0.0981,1.54588 -0.19559,3.39704 -0.39899,7.5762 -0.46549,8.34845 -0.79462,9.22815 -0.53734,1.43617 -1.83462,2.46422 -3.75451,2.97533 -1.09841,0.29241 -3.15029,0.26388 -4.0773599,-0.0567 z M 22.103102,27.718831 c 0.78977,-0.358456 1.88471,-1.473196 2.56433,-2.610706 0.60881,-1.01899 1.308,-2.92763 1.44171,-3.9356 0.09,-0.67812 0.0554,-0.78134 -0.56483,-1.68882 -0.74565,-1.09092 -1.81842,-1.97667 -2.7993,-2.31127 -0.82944,-0.28294 -2.1088,-0.29088 -2.76391,-0.0172 -0.48666,0.20334 -0.5023,0.23755 -0.59841,1.3089 -0.27616,3.07816 -0.50647,8.433241 -0.37339,8.681897 0.21876,0.408762 1.18415,0.856339 1.8551,0.860068 0.3291,0.0018 0.88651,-0.127458 1.2387,-0.287307 z"
       id="path29559"
       sodipodi:nodetypes="csssssssssssssssssssccsssssssscss" />
    <path
       style="fill:#0fe6df;fill-opacity:1;stroke-width:0.149589"
       sodipodi:type="inkscape:offset"
       inkscape:radius="0.00032832831"
       inkscape:original="M 34.417969 65.417969 C 33.285005 65.400134 32.271585 65.537144 31.65625 65.833984 C 29.59963 66.826084 28.567872 69.146021 28.513672 72.900391 C 28.494192 74.249281 28.044104 81.79334 27.089844 96.75 C 26.834324 100.75458 26.86608 103.08924 27.1875 104.00391 C 27.64358 105.30176 28.930623 106.47085 30.501953 107.01367 C 31.030973 107.19641 31.729306 107.28706 32.634766 107.28906 C 35.489606 107.29565 37.470182 106.27198 38.357422 104.33398 C 38.764272 103.44531 38.827326 102.83245 39.134766 96.599609 C 39.224046 94.789589 39.336566 92.896758 39.384766 92.392578 L 39.470703 91.476562 L 40.316406 91.716797 C 40.921466 91.889447 41.776318 91.957078 43.330078 91.955078 C 45.397828 91.951958 45.567606 91.928086 46.972656 91.447266 C 50.510826 90.236496 53.805328 87.336396 55.392578 84.035156 C 56.402838 81.933976 56.568453 81.127669 56.564453 78.349609 C 56.561233 76.139089 56.531002 75.872705 56.164062 74.859375 C 55.601682 73.306335 54.929884 72.251514 53.740234 71.052734 C 51.999554 69.298694 49.760628 68.070855 47.517578 67.640625 C 45.925978 67.335345 43.330922 67.424521 41.726562 67.837891 L 40.349609 68.191406 L 40.173828 67.769531 C 39.904548 67.119431 38.745818 66.186984 37.892578 65.933594 C 36.802648 65.609894 35.550933 65.435804 34.417969 65.417969 z M 41.025391 74.595703 C 41.748801 74.293443 42.891366 74.337804 43.884766 74.708984 C 44.889276 75.084314 46.374273 76.455383 46.908203 77.501953 L 47.236328 78.146484 L 46.927734 79.369141 C 46.270044 81.981511 44.679474 84.395104 43.115234 85.152344 C 42.332494 85.531264 41.306421 85.542568 40.712891 85.179688 C 39.806701 84.625637 39.830229 84.826495 40.105469 80.109375 C 40.419969 74.719405 40.395951 74.858703 41.025391 74.595703 z "
       xlink:href="#path29598"
       id="path280530"
       inkscape:href="#path29598"
       d="m 34.417969,65.417969 c -1.132964,-0.01784 -2.146384,0.119175 -2.761719,0.416015 -2.05662,0.9921 -3.088378,3.312037 -3.142578,7.066407 -0.01948,1.34889 -0.469568,8.892949 -1.423828,23.849609 -0.25552,4.00458 -0.223764,6.33924 0.09766,7.25391 0.45608,1.29785 1.743123,2.46694 3.314453,3.00976 0.52902,0.18274 1.227353,0.27339 2.132813,0.27539 2.85484,0.007 4.835416,-1.01708 5.722656,-2.95508 0.40685,-0.88867 0.469904,-1.50153 0.777344,-7.734371 0.08928,-1.81002 0.2018,-3.702851 0.25,-4.207031 l 0.08594,-0.916016 0.845703,0.240235 c 0.60506,0.17265 1.459912,0.240281 3.013672,0.238281 2.06775,-0.0031 2.237528,-0.02699 3.642578,-0.507812 3.53817,-1.21077 6.832672,-4.11087 8.419922,-7.41211 1.01026,-2.10118 1.175875,-2.907487 1.171875,-5.685547 -0.0032,-2.21052 -0.03345,-2.476904 -0.400391,-3.490234 -0.56238,-1.55304 -1.234178,-2.607861 -2.423828,-3.806641 -1.74068,-1.75404 -3.979606,-2.981879 -6.222656,-3.412109 -1.5916,-0.30528 -4.186656,-0.216104 -5.791016,0.197266 l -1.376953,0.353515 -0.175781,-0.421875 c -0.26928,-0.6501 -1.42801,-1.582547 -2.28125,-1.835937 -1.08993,-0.3237 -2.341645,-0.49779 -3.474609,-0.515625 z m 6.607422,9.177734 c 0.72341,-0.30226 1.865975,-0.257899 2.859375,0.113281 1.00451,0.37533 2.489507,1.746399 3.023437,2.792969 l 0.328125,0.644531 -0.308594,1.222657 c -0.65769,2.61237 -2.24826,5.025963 -3.8125,5.783203 -0.78274,0.37892 -1.808813,0.390224 -2.402343,0.02734 -0.90619,-0.554051 -0.882662,-0.353193 -0.607422,-5.070313 0.3145,-5.38997 0.290482,-5.250672 0.919922,-5.513672 z" />
    <path
       id="path280631"
       style="fill:#002a7a;stroke-width:0.149589"
       d="m 34.499512,60.25518 c -1.59759,-0.0252 -3.03426,-0.061 -5.08789,0.92969 -2.14143,1.03302 -3.87277,2.96981 -4.79688,5.04688 -0.9241,2.07706 -1.23191,4.25902 -1.26562,6.59375 -0.007,0.47847 -0.45831,8.64618 -1.41211,23.5957 -0.13268,2.07954 -0.1969,3.7626 -0.17774,5.18359 0.0192,1.421 -0.0424,2.40856 0.55664,4.11329 1.14192,3.24954 3.58838,5.1719 6.5,6.17773 1.36715,0.47225 2.56981,0.55391 3.80665,0.55664 4.09239,0.009 8.61841,-2.00619 10.43164,-5.9668 0.34971,-0.76388 0.73677,-2.19667 0.86718,-3.49804 0.1278,-1.27526 0.2149,-3.00299 0.36329,-6.00977 1.62201,-0.0819 3.14678,-0.23153 4.35937,-0.64648 4.99898,-1.71067 9.11771,-5.3069 11.40234,-10.0586 1.13665,-2.36403 1.6879,-4.94254 1.6836,-7.92968 -0.003,-2.26005 -0.27756,-4.04538 -0.71094,-5.24219 -0.75576,-2.08709 -2.04146,-4.10167 -3.61328,-5.68555 -2.45142,-2.47023 -5.51259,-4.19328 -8.91406,-4.8457 -6.14164,-0.0285 -4.06543,-2.11266 -13.99219,-2.31446 z"
       sodipodi:nodetypes="csssssssssscsscsscc" />
    <path
       style="fill:#0fe6df;fill-opacity:1;stroke-width:0.149589"
       d="m 30.501452,107.01404 c -1.57133,-0.54282 -2.85868,-1.7116 -3.31476,-3.00945 -0.32142,-0.91467 -0.35272,-3.25047 -0.0972,-7.25505 0.95426,-14.95666 1.40478,-22.50077 1.42426,-23.84966 0.0542,-3.75437 1.08541,-6.07319 3.14203,-7.06529 1.23067,-0.59368 4.05726,-0.5492 6.23712,0.0982 0.85324,0.25339 2.01168,1.18578 2.28096,1.83588 l 0.17542,0.42351 1.37814,-0.35509 c 1.60436,-0.41337 4.1994,-0.50114 5.791,-0.19586 2.24305,0.43023 4.48149,1.65756 6.22217,3.4116 1.18965,1.19878 1.8613,2.25372 2.42368,3.80676 0.36694,1.01333 0.39756,1.28008 0.40078,3.4906 0.004,2.77806 -0.162,3.58318 -1.17226,5.68436 -1.58725,3.30124 -4.88177,6.20148 -8.41994,7.41225 -1.40505,0.48082 -1.57516,0.50452 -3.64291,0.50764 -1.55376,0.002 -2.40864,-0.0651 -3.0137,-0.23775 l -0.84466,-0.24102 -0.0877,0.91669 c -0.0482,0.50418 -0.16076,2.39762 -0.25004,4.20764 -0.30744,6.23284 -0.36895,6.84608 -0.7758,7.73475 -0.88724,1.938 -2.86885,2.96077 -5.72369,2.95418 -0.90546,-0.002 -1.60385,-0.0921 -2.13287,-0.27484 z m 12.61299,-21.86193 c 1.56424,-0.75724 3.15516,-3.16991 3.81285,-5.78228 l 0.30818,-1.22414 -0.32793,-0.64281 c -0.53393,-1.04657 -2.01777,-2.41803 -3.02228,-2.79336 -0.9934,-0.37118 -2.13608,-0.41705 -2.85949,-0.11479 -0.62944,0.263 -0.60621,0.1239 -0.92071,5.51387 -0.27524,4.71712 -0.29914,4.51745 0.60705,5.0715 0.59353,0.36288 1.61959,0.35092 2.40233,-0.028 z"
       id="path29598"
       sodipodi:nodetypes="csssssscsssscsscscssscccsscsssssss" />
    <path
       style="fill:#002a7a;fill-opacity:1;stroke-width:0.149589"
       sodipodi:type="inkscape:offset"
       inkscape:radius="5.5225592"
       inkscape:original="M 45.490234 9.1875 C 44.393824 9.3571711 43.472853 9.7310825 42.830078 10.296875 C 41.231448 11.703895 40.838476 13.823006 41.228516 18.910156 C 41.309846 19.970927 41.476802 24.237754 41.601562 28.392578 C 42.111952 45.38951 42.142978 45.941952 42.648438 47.638672 C 43.104777 49.170502 44.857354 50.561744 46.839844 50.964844 C 48.527434 51.307974 51.022424 50.822676 52.396484 49.884766 C 52.794874 49.612836 53.335926 49.07362 53.597656 48.6875 C 54.352726 47.57357 54.440293 46.813076 54.251953 43.009766 C 54.081733 39.572156 53.595857 26.507142 53.341797 18.519531 C 53.163537 12.915284 52.970348 11.794563 51.986328 10.673828 C 51.353448 9.9530161 50.578731 9.5729949 49.207031 9.3105469 C 47.859606 9.0527409 46.586644 9.0178289 45.490234 9.1875 z "
       xlink:href="#path29637"
       id="path149860"
       inkscape:href="#path29637"
       d="m 47.429688,3.5664062 c -0.93285,-0.029721 -1.859214,0.021074 -2.783204,0.1640626 -1.84631,0.2857192 -3.764026,0.9247573 -5.464843,2.421875 -1.66248,1.4637852 -2.916976,3.8501442 -3.328125,6.0625002 -0.411241,2.212846 -0.341156,4.374376 -0.13086,7.117187 0.03908,0.509672 0.235647,5.106103 0.359375,9.226563 0.255242,8.500027 0.388166,12.866019 0.53125,15.49414 0.143084,2.628121 0.451462,4.186206 0.742188,5.16211 1.299712,4.36285 4.593679,6.391267 8.384765,7.162109 3.725401,0.757469 6.557103,0.261109 9.769532,-1.931641 1.283094,-0.875804 1.754917,-1.322739 2.660156,-2.658203 0.649409,-0.958052 1.422004,-2.789435 1.595703,-4.296875 0.173699,-1.507439 0.09911,-2.791862 0.002,-4.753906 C 59.605869,39.470586 59.114359,26.298998 58.861328,18.34375 58.770555,15.489957 58.709014,13.716248 58.408203,11.974609 58.107392,10.232971 57.112679,8.140852 56.136719,7.0292969 54.664519,5.3525509 52.205323,4.2619528 50.244141,3.8867188 49.300341,3.7061393 48.362537,3.5961276 47.429688,3.5664062 Z" />
    <path
       style="fill:#0fe6df;fill-opacity:1;stroke-width:0.149589"
       d="m 46.840432,50.96427 c -1.98249,-0.4031 -3.73595,-1.79427 -4.19229,-3.3261 -0.50546,-1.69672 -0.53542,-2.24808 -1.04581,-19.245012 -0.12476,-4.154824 -0.29338,-8.422129 -0.37471,-9.4829 -0.39004,-5.08715 0.004,-7.205667 1.60263,-8.612687 1.28555,-1.131585 3.68099,-1.502283 6.37584,-0.986671 1.3717,0.262448 2.14753,0.642998 2.78041,1.36381 0.98402,1.120735 1.17769,2.241352 1.35595,7.845599 0.25406,7.987611 0.73924,21.052401 0.90946,24.490011 0.18834,3.80331 0.10066,4.56407 -0.65441,5.678 -0.26173,0.38612 -0.80182,0.92452 -1.20021,1.19645 -1.37406,0.93791 -3.86927,1.42263 -5.55686,1.0795 z"
       id="path29637"
       sodipodi:nodetypes="ssssssssssss" />
    <path
       style="fill:#002a7a;fill-opacity:1;stroke-width:0.149589"
       sodipodi:type="inkscape:offset"
       inkscape:radius="5.7972794"
       inkscape:original="M 70.576172 65.835938 C 68.133502 65.839237 66.809377 67.224989 66.404297 70.199219 C 66.277347 71.130709 66.27783 72.502692 66.40625 75.632812 C 66.50076 77.936482 66.679424 84.33141 66.802734 89.84375 C 67.023584 99.71673 67.173791 102.91516 67.488281 104.31836 C 67.806501 105.73816 69.200186 107.24006 70.509766 107.57422 C 70.855976 107.66255 71.44227 107.86748 71.8125 108.03125 C 72.36966 108.27776 72.691141 108.31575 73.681641 108.24805 C 74.339831 108.20308 77.840897 107.96221 81.460938 107.71289 C 85.080988 107.46357 89.152256 107.19574 90.509766 107.11914 C 93.430816 106.95428 94.339202 106.72786 94.976562 106.00195 C 95.537542 105.36303 95.716861 104.737 95.837891 103.00781 C 95.998861 100.7079 95.509925 98.627664 94.578125 97.646484 C 93.605115 96.621864 92.555826 96.426093 89.628906 96.720703 C 86.858246 96.999593 76.609523 97.609523 76.501953 97.501953 C 76.457503 97.457503 76.383591 96.076474 76.337891 94.433594 L 76.255859 91.447266 L 77.810547 91.359375 C 78.666007 91.311295 81.688894 91.218797 84.527344 91.154297 C 89.295694 91.045967 89.727187 91.015381 90.210938 90.738281 C 90.963068 90.307451 91.365202 89.386809 91.570312 87.630859 C 91.844402 85.284339 91.443228 83.376955 90.486328 82.484375 C 89.626138 81.682005 89.568594 81.676601 82.558594 81.837891 C 79.004714 81.919691 76.073975 81.9646 76.046875 81.9375 C 76.019765 81.91039 75.955444 80.640954 75.902344 79.115234 L 75.804688 76.339844 L 76.240234 76.255859 C 76.479174 76.209809 79.299143 76.131831 82.507812 76.082031 C 93.208572 75.916051 93.368024 75.901499 94.177734 75.042969 C 94.839714 74.341059 95.016069 73.640425 95.105469 71.359375 C 95.226249 68.276355 94.758685 67.02171 93.203125 66.25 L 92.380859 65.841797 L 83.054688 66.015625 C 75.864618 66.150395 73.492459 66.150702 72.693359 66.013672 C 72.123329 65.915912 71.171132 65.835127 70.576172 65.835938 z "
       xlink:href="#path29676"
       id="path288922"
       inkscape:href="#path29676"
       d="m 70.568359,60.039062 c -2.316202,0.0031 -5.162267,0.90035 -7.033203,2.857422 -1.870935,1.957073 -2.574721,4.314787 -2.875,6.519532 -0.23007,1.68813 -0.178115,3.256227 -0.04687,6.455078 0.08876,2.163612 0.27178,8.614171 0.394531,14.101562 0.221539,9.90375 0.184734,12.760004 0.824219,15.613284 0.458715,2.04664 1.399594,3.47674 2.544922,4.71094 1.145328,1.23419 2.505672,2.33481 4.699219,2.89453 -0.215874,-0.0551 0.454869,0.16904 0.390625,0.14062 1.110192,0.4912 3.386534,0.7828 4.609375,0.69922 0.667893,-0.0456 4.162891,-0.28582 7.783203,-0.53516 3.606729,-0.2484 7.727011,-0.51933 8.976563,-0.58984 1.575845,-0.0889 2.754897,-0.15801 4.169921,-0.51172 1.415024,-0.35371 3.30372,-1.40385 4.326172,-2.56836 0.697809,-0.79476 1.477179,-2.14405 1.812499,-3.31055 0.33532,-1.16649 0.40553,-2.08859 0.47656,-3.10351 0.23506,-3.35841 0.21218,-6.544056 -2.83984,-9.757813 -0.574609,-0.605087 -1.425722,-1.202656 -2.359375,-1.703125 0.564593,-1.311175 0.768582,-2.469862 0.90625,-3.648438 0.299361,-2.562869 0.399555,-5.239925 -1.064453,-7.767578 0.953185,-0.553447 1.91832,-1.288318 2.130859,-1.513672 0.815276,-0.864452 1.749559,-2.484515 2.083989,-3.8125 0.33443,-1.327985 0.37029,-2.356673 0.41992,-3.623046 0.0731,-1.864642 0.0849,-3.608339 -0.6836,-5.671876 -0.768256,-2.063042 -2.742758,-4.018137 -4.43359,-4.857421 h -0.002 l -0.820313,-0.408203 a 5.7978591,5.7978591 0 0 0 -2.685546,-0.603516 l -9.326172,0.173828 a 5.7978591,5.7978591 0 0 0 -0.002,0 c -7.166347,0.134325 -10.3575,-0.106152 -9.271484,0.08008 v 0.002 c -1.105694,-0.189626 -1.9773,-0.263256 -3.105469,-0.261719 z" />
    <path
       style="fill:#0fe6df;fill-opacity:1;stroke-width:0.149589"
       d="m 71.812102,108.03185 c -0.37023,-0.16377 -0.9564,-0.37005 -1.30261,-0.45838 -1.30958,-0.33416 -2.70231,-1.83483 -3.02053,-3.25463 -0.31449,-1.4032 -0.46633,-4.60153 -0.68718,-14.47451 -0.12331,-5.51234 -0.30153,-11.90725 -0.39604,-14.21092 -0.12842,-3.13012 -0.12895,-4.50344 -0.002,-5.43493 0.40508,-2.97423 1.72889,-4.35836 4.17156,-4.36166 0.59496,-8.1e-4 1.54813,0.0785 2.11816,0.17626 0.7991,0.13703 3.17172,0.13777 10.36179,0.003 l 9.32537,-0.17451 0.82274,0.40816 c 1.55556,0.77171 2.02255,2.02631 1.90177,5.10933 -0.0894,2.28105 -0.26608,2.98269 -0.92806,3.6846 -0.80971,0.85853 -0.96854,0.87267 -11.6693,1.03865 -3.20867,0.0498 -6.02945,0.12817 -6.26839,0.17422 l -0.43443,0.0837 0.0965,2.77405 c 0.0531,1.52572 0.11871,2.79622 0.14582,2.82333 0.0271,0.0271 2.95701,-0.0176 6.51089,-0.0994 7.01,-0.16129 7.0675,-0.1566 7.92769,0.64577 0.9569,0.89258 1.35924,2.80123 1.08515,5.14775 -0.20511,1.75595 -0.60731,2.67476 -1.35944,3.10559 -0.48375,0.2771 -0.91602,0.30882 -5.68437,0.41715 -2.83845,0.0645 -5.86073,0.15659 -6.71619,0.20467 l -1.55539,0.0874 0.0831,2.98704 c 0.0457,1.64288 0.11951,3.02342 0.16396,3.06787 0.10757,0.10757 10.35556,-0.50238 13.12622,-0.78127 2.92692,-0.29461 3.97706,-0.0981 4.95007,0.92652 0.9318,0.98118 1.42046,3.06124 1.25949,5.36115 -0.12103,1.72919 -0.30136,2.35533 -0.86234,2.99425 -0.63736,0.72591 -1.54437,0.95296 -4.46542,1.11782 -1.35751,0.0766 -5.43006,0.34328 -9.05011,0.5926 -3.62004,0.24932 -7.12042,0.49009 -7.77861,0.53506 -0.9905,0.0677 -1.3127,0.0305 -1.86986,-0.21601 z"
       id="path29676"
       sodipodi:nodetypes="csssscssccssscscsscssssscssssssssscc" />
    <path
       style="fill:#002a7a;fill-opacity:1"
       sodipodi:type="inkscape:offset"
       inkscape:radius="5.6118293"
       inkscape:original="M 66.40625 10.003906 C 64.51225 10.003906 62.037109 12.604303 62.037109 14.595703 C 62.037109 15.646503 63.500525 19.084969 65.578125 22.917969 C 67.525225 26.510269 69.203594 29.779494 69.308594 30.183594 C 69.413594 30.587694 67.93875 33.675922 66.03125 37.044922 C 62.22365 43.769922 61.660853 46.605656 63.689453 48.847656 C 65.108653 50.415656 67.835612 50.456688 69.257812 48.929688 C 69.853713 48.290687 71.277175 46.003609 72.421875 43.849609 C 73.566575 41.694609 74.638134 39.929688 74.802734 39.929688 C 74.967234 39.929687 76.038894 41.694609 77.183594 43.849609 C 78.328294 46.003609 79.751756 48.290687 80.347656 48.929688 C 81.769856 50.456687 84.496816 50.415656 85.916016 48.847656 C 87.938516 46.612656 87.380234 43.766188 83.615234 37.117188 C 81.730434 33.788188 80.1875 30.804175 80.1875 30.484375 C 80.1875 30.164675 81.619894 27.371597 83.371094 24.279297 C 87.706694 16.623697 88.181944 15.148816 87.027344 12.916016 C 86.524644 11.944016 85.445306 10.842703 84.628906 10.470703 C 82.498106 9.4999031 80.544178 11.161137 77.580078 16.460938 C 76.253878 18.832338 74.988731 20.773438 74.769531 20.773438 C 74.550431 20.773438 73.511891 19.163512 72.462891 17.195312 C 70.030691 12.632013 67.81775 10.003906 66.40625 10.003906 z "
       xlink:href="#path29715"
       id="path167597"
       inkscape:href="#path29715"
       d="m 66.40625,4.3925781 c -3.515283,0 -5.392376,1.6427201 -6.960938,3.2910157 -1.568561,1.6482955 -3.019531,3.5914002 -3.019531,6.9121092 0,1.56527 0.278839,2.139678 0.527344,2.916016 0.248505,0.776338 0.552207,1.552643 0.912109,2.398437 0.719806,1.691588 1.668537,3.63238 2.779297,5.681641 0.955595,1.763023 1.848283,3.451245 2.498047,4.716797 0.02094,0.04079 0.02838,0.05773 0.04883,0.09766 -0.515163,1.058248 -1.214817,2.410377 -2.042968,3.873047 -2.012017,3.553632 -3.380659,6.232956 -3.980469,9.255859 -0.599811,3.022903 0.382086,6.892834 2.359375,9.078125 a 5.6123905,5.6123905 0 0 0 0.002,0 c 3.785274,4.182152 9.937067,4.321939 13.832031,0.144531 l 0.002,-0.002 c 0.745327,-0.799569 1.048954,-1.373754 1.439453,-2.003906 0.390068,0.629455 0.693798,1.203791 1.4375,2.001953 l 0.0039,0.0039 c 3.894965,4.177406 10.046755,4.037623 13.832031,-0.144531 1.978913,-2.186833 2.958688,-6.040875 2.367187,-9.05664 -0.5915,-3.015766 -1.952224,-5.68528 -3.945312,-9.205079 -0.829633,-1.465326 -1.545375,-2.794321 -2.109375,-3.873046 0.511556,-0.980235 1.131063,-2.137181 1.865234,-3.433594 2.200623,-3.885758 3.526311,-6.21555 4.345703,-8.761719 0.819393,-2.546169 0.36528,-6.102044 -0.58789,-7.945312 C 90.797895,7.9908905 89.876166,6.6943014 86.955078,5.3632812 84.201739,4.1088505 79.931185,5.0123145 77.783203,6.8378906 76.565556,7.8727729 75.613548,9.0705161 74.71875,10.394531 74.258733,9.7333007 73.829541,8.8502782 73.34375,8.2734375 71.904803,6.5647952 70.594935,4.3925781 66.40625,4.3925781 Z M 85.492188,28.701172 c 0.01624,0.04203 0.106882,0.07479 0.189453,0.392578 -0.03254,-0.06781 -0.105411,-0.208922 -0.128907,-0.259766 -0.05708,-0.123509 -0.08808,-0.204067 -0.06055,-0.132812 z m 0.191406,3.160156 c -0.07735,0.286093 -0.161659,0.323254 -0.179688,0.371094 -0.03145,0.08346 -0.0067,0.01737 0.04297,-0.0918 0.02396,-0.05263 0.101032,-0.204378 0.136719,-0.279297 z" />
    <path
       style="fill:#0fe6df;fill-opacity:1"
       d="m 63.689982,48.84834 c -2.0286,-2.242 -1.4656,-5.079 2.342,-11.804 1.9075,-3.369 3.3823,-6.456 3.2773,-6.8601 -0.105,-0.4041 -1.784,-3.674 -3.7311,-7.2663 -2.0776,-3.833 -3.5403,-7.2713 -3.5403,-8.3221 0,-1.9914 2.4741,-4.5929 4.3681,-4.5929 1.4115,0 3.6256,2.6285 6.0578,7.1918 1.049,1.9682 2.0867,3.5786 2.3058,3.5786 0.2192,0 1.4836,-1.9402 2.8098,-4.3116 2.9641,-5.2998 4.9194,-6.9611 7.0502,-5.9903 0.8164,0.372 1.8956,1.4716 2.3983,2.4436 1.1546,2.2328 0.6797,3.7091 -3.6559,11.3647 -1.7512,3.0923 -3.184,5.884 -3.184,6.2037 0,0.3198 1.5421,3.3049 3.4269,6.6339 3.765,6.649 4.3232,9.496 2.3007,11.731 -1.4192,1.568 -4.1455,1.608 -5.5677,0.081 -0.5959,-0.639 -2.02,-2.926 -3.1647,-5.08 -1.1447,-2.155 -2.2159,-3.919 -2.3804,-3.919 -0.1646,0 -1.2357,1.764 -2.3804,3.919 -1.1447,2.154 -2.5688,4.441 -3.1647,5.08 -1.4222,1.527 -4.1485,1.487 -5.5677,-0.081 z"
       id="path29715"
       sodipodi:nodetypes="csscsscsccccsccccsccc" />
    <path
       style="fill:#002a7a;fill-opacity:1;stroke-width:0.598355"
       sodipodi:type="inkscape:offset"
       inkscape:radius="5.2183108"
       inkscape:original="M 110.50781 66.984375 C 105.70748 67.040728 104.3981 67.818138 103.5 69.986328 C 102.85728 71.537998 102.91489 71.977213 103.95703 73.376953 C 104.99973 74.777433 105.6369 75.007182 108.90625 75.164062 L 112.6582 75.34375 L 112.30078 78.753906 C 112.10358 80.629446 111.76266 87.442091 111.54297 93.894531 C 111.15271 105.35661 111.17275 105.65713 112.42578 106.91016 C 114.01144 108.49583 116.70352 108.56613 118.55078 107.07031 C 119.8606 106.00968 119.96293 105.39477 120.41992 95.851562 C 120.68585 90.298232 121.05903 83.539001 121.24805 80.832031 L 121.5918 75.910156 L 124.98047 76.257812 C 127.87587 76.555372 128.60746 76.416964 130.01367 75.302734 C 131.81795 73.873084 132.19573 71.459177 130.89453 69.679688 C 129.80111 68.184348 126.57434 67.613101 116.58594 67.144531 C 114.09623 67.027739 112.10792 66.965591 110.50781 66.984375 z "
       xlink:href="#path55257"
       id="path300060"
       inkscape:href="#path55257"
       d="m 110.44727,61.765625 c -2.67624,0.03142 -4.80053,0.148108 -7.06641,1.177734 -2.26589,1.029627 -3.993384,3.338135 -4.701172,5.046875 -0.409071,0.987589 -1.020873,2.456653 -0.753907,4.44336 0.266967,1.986706 1.196009,3.187916 1.845703,4.060547 0.743776,0.998992 2.293436,2.515231 4.052736,3.15039 1.15717,0.417775 2.15839,0.546609 3.18359,0.623047 -0.2374,3.055047 -0.48743,7.80244 -0.67969,13.449219 -0.19528,5.735625 -0.31995,8.596703 -0.16601,10.867183 0.077,1.13525 0.23095,2.28474 0.78125,3.51172 0.5503,1.22698 1.41088,2.12182 1.79297,2.50391 3.61932,3.61934 9.26126,3.63191 13.09765,0.52539 0.98656,-0.79887 2.76619,-3.50643 3.11914,-5.625 0.35296,-2.11857 0.45056,-4.61359 0.67969,-9.398438 0.26005,-5.430528 0.62308,-11.983572 0.80664,-14.658203 0.83035,0.03564 1.63286,0.175296 2.58789,-0.0059 1.69024,-0.32061 3.26064,-1.279561 4.22657,-2.044922 3.76735,-2.985124 4.76596,-8.809982 1.85351,-12.792969 -1.80346,-2.466383 -4.43624,-3.235313 -7.12109,-3.710937 -2.68486,-0.475624 -6.08917,-0.719328 -11.15625,-0.957031 -2.53306,-0.118826 -4.59688,-0.186981 -6.38281,-0.166016 z" />
    <path
       style="fill:#53eabc;fill-opacity:1;stroke-width:0.598355"
       d="m 112.42561,106.9096 c -1.25303,-1.25303 -1.27332,-1.55213 -0.88306,-13.01421 0.21969,-6.45244 0.56079,-13.26623 0.75799,-15.14177 l 0.35855,-3.41007 -3.75232,-0.18006 c -3.26935,-0.15688 -3.90636,-0.38694 -4.94906,-1.78742 -1.04214,-1.39974 -1.10139,-1.83754 -0.45867,-3.38921 1.19746,-2.89092 3.12746,-3.31022 13.0863,-2.84305 9.9884,0.46857 13.21603,1.04057 14.30945,2.53591 1.3012,1.77949 0.92277,4.19349 -0.88151,5.62314 -1.40621,1.11423 -2.13813,1.25318 -5.03353,0.95562 l -3.38804,-0.34819 -0.34368,4.92176 c -0.18902,2.70697 -0.56126,9.4654 -0.82719,15.01873 -0.45699,9.54321 -0.55952,10.15852 -1.86934,11.21915 -1.84726,1.49582 -4.54023,1.42534 -6.12589,-0.16033 z"
       id="path55257"
       sodipodi:nodetypes="ssscssssssscssss" />
    <path
       style="fill:#002a7a;fill-opacity:1;stroke-width:0.598355"
       sodipodi:type="inkscape:offset"
       inkscape:radius="6.254456"
       inkscape:original="M 136.63086 9.5214844 C 134.09937 9.4850074 133.36473 9.724577 132.41992 10.890625 C 131.41143 12.135253 131.28072 13.27216 131.32422 20.462891 C 131.35138 24.951489 131.56358 32.971526 131.79688 38.285156 C 132.23815 48.335986 132.5403 49.439341 135.14258 50.494141 C 136.81022 51.170091 138.43641 51.160501 147.26953 50.431641 C 157.75789 49.566211 157.60156 49.656259 157.60156 44.537109 C 157.60156 38.576269 157.31819 38.384366 149.17578 38.878906 L 142.64258 39.275391 L 142.5918 33.052734 C 142.56324 29.630042 142.35397 23.398042 142.12695 19.205078 C 141.6386 10.185668 141.29948 9.5887544 136.63086 9.5214844 z "
       xlink:href="#path55296"
       id="path186285"
       inkscape:href="#path55296"
       d="m 136.7207,3.2675781 c -1.47169,-0.021206 -2.86033,-0.067355 -4.72461,0.5390625 -1.86428,0.6064177 -3.59586,2.1101794 -4.43554,3.1464844 -1.00747,1.2433604 -2.0678,3.782894 -2.29688,5.783203 -0.22907,2.00031 -0.21535,4.128418 -0.19336,7.763672 0.0281,4.640631 0.24041,12.635479 0.47852,18.058594 0.22294,5.077889 0.26596,7.893527 1.07812,10.857422 0.40609,1.481947 1.19916,3.201854 2.49219,4.519531 1.29303,1.317677 2.7105,1.964997 3.67383,2.355469 1.49929,0.607711 3.62612,0.964309 5.75976,0.953125 2.13365,-0.01118 4.7848,-0.213247 9.23047,-0.580079 5.229,-0.431462 7.66264,0.141317 11.6836,-2.152343 2.01048,-1.14683 3.7425,-3.914635 4.12109,-5.753907 0.37859,-1.839271 0.26758,-2.972749 0.26758,-4.220703 0,-1.539764 0.041,-2.859858 -0.27149,-4.583984 -0.31249,-1.724126 -1.47711,-4.394965 -3.65429,-5.857422 -2.17719,-1.462456 -4.12816,-1.572184 -5.78125,-1.630859 -1.64163,-0.05827 -3.27237,0.04584 -5.31446,0.169922 -0.0383,-3.64812 -0.23309,-9.559369 -0.46093,-13.767578 -0.248,-4.580311 0.14548,-7.193373 -1.98633,-10.9492192 -1.06591,-1.8779231 -3.3828,-3.5747816 -5.21875,-4.1191407 C 139.33202,3.254469 138.02,3.2862997 136.7207,3.2675781 Z" />
    <path
       style="fill:#53eabc;fill-opacity:1;stroke-width:0.598355"
       d="m 135.14314,50.49335 c -2.60228,-1.0548 -2.90433,-2.15696 -3.3456,-12.20779 -0.23329,-5.31363 -0.44639,-13.333638 -0.47355,-17.822236 -0.0435,-7.190731 0.0867,-8.329044 1.09519,-9.573672 0.94481,-1.166048 1.67981,-1.404874 4.2113,-1.368397 4.66862,0.06727 5.00791,0.66511 5.49626,9.68452 0.22702,4.192964 0.43613,10.423963 0.46469,13.846655 l 0.0519,6.2231 6.5316,-0.3967 c 8.14241,-0.49454 8.42727,-0.3033 8.42727,5.65754 0,5.11915 0.15544,5.03046 -10.33292,5.89589 -8.83312,0.72886 -10.45851,0.73705 -12.12615,0.0611 z"
       id="path55296"
       sodipodi:nodetypes="ssssssscsssss" />
    <path
       style="fill:#002a7a;fill-opacity:1;stroke-width:0.5"
       sodipodi:type="inkscape:offset"
       inkscape:radius="6.6010551"
       inkscape:original="M 167.54688 67.441406 C 163.29261 67.441406 162.34683 67.61093 159.70898 68.84375 C 154.31942 71.3626 151.49035 75.133641 151.46875 79.832031 C 151.44408 85.203791 153.7973 87.97025 161.44727 91.5625 C 167.89213 94.58887 168.95898 95.353951 168.95898 96.957031 C 168.95898 99.206961 166.80789 99.720904 160.31445 99.021484 C 157.05683 98.670604 156.21361 98.737428 155.16602 99.423828 C 152.55076 101.13739 152.58823 104.67837 155.24023 106.41602 C 155.88994 106.84173 158.28571 107.37107 160.56445 107.5918 C 168.1905 108.3305 171.7898 107.50317 175.0293 104.26367 C 178.7726 100.52036 179.3206 96.415241 176.68164 91.869141 C 175.02028 89.007131 172.90647 87.350206 168.04883 85.097656 C 163.17995 82.839886 161.45898 81.321886 161.45898 79.291016 C 161.45898 76.697296 162.94408 75.945756 168.13672 75.910156 C 170.71792 75.892456 173.19628 75.614804 173.82812 75.271484 C 176.02648 74.076954 176.00815 70.134124 173.79688 68.490234 C 172.59111 67.593854 171.67948 67.441406 167.54688 67.441406 z "
       xlink:href="#path76623"
       id="path306986"
       inkscape:href="#path76623"
       d="m 167.54688,60.839844 c -4.42963,0 -7.65696,0.632645 -10.63282,2.023437 -6.8763,3.213689 -12.01317,9.60561 -12.04687,16.9375 -0.0168,3.654967 1.09555,7.797056 3.68554,10.841797 1.01681,1.195338 2.24251,2.111996 3.49219,3.025391 -0.14672,0.08196 -0.37152,0.152753 -0.49609,0.234375 -3.06318,2.007044 -4.95916,5.561323 -4.92188,9.078126 0.0373,3.5168 1.96273,6.9695 4.9961,8.95703 2.38687,1.56395 2.97939,1.3105 4.24414,1.58984 1.26475,0.27935 2.63812,0.49699 4.06054,0.63477 4.14762,0.40176 7.61158,0.46953 10.99415,-0.30859 3.38256,-0.77813 6.48997,-2.63646 8.77539,-4.92188 2.61089,-2.6109 4.59391,-5.94332 5.09375,-9.691406 0.49983,-3.748089 -0.54822,-7.494831 -2.4004,-10.685546 -1.58082,-2.723274 -3.95433,-4.941957 -6.94531,-6.875 0.47534,-0.172913 0.76712,-0.190095 1.53516,-0.607422 3.78307,-2.055618 5.10049,-5.903612 5.08594,-9.052735 -0.0146,-3.149123 -1.20553,-6.501883 -4.33203,-8.826172 -1.09833,-0.816506 -3.16012,-1.786894 -4.87305,-2.074218 -1.71294,-0.287324 -3.16699,-0.279297 -5.31445,-0.279297 z" />
    <path
       style="fill:#fa9e00;fill-opacity:1;stroke-width:0.5"
       d="m 160.56512,107.59206 c -2.27874,-0.22073 -4.67473,-0.74962 -5.32444,-1.17533 -2.652,-1.73765 -2.68976,-5.28006 -0.0745,-6.99362 1.04759,-0.6864 1.8897,-0.75203 5.14732,-0.40115 6.49344,0.69942 8.64482,0.18572 8.64482,-2.06421 0,-1.60308 -1.06576,-2.36863 -7.51062,-5.395 -7.64997,-3.59225 -10.00307,-6.35845 -9.9784,-11.73021 0.0216,-4.69839 2.84946,-8.47014 8.23902,-10.98899 2.63785,-1.23282 3.58407,-1.40207 7.83834,-1.40207 4.13261,0 5.04424,0.15307 6.25,1.04945 2.21127,1.64389 2.22915,5.58523 0.0308,6.77976 -0.63184,0.34332 -3.10967,0.62173 -5.69087,0.63943 -5.19264,0.0356 -6.67823,0.78786 -6.67823,3.38158 0,2.03087 1.72166,3.54735 6.59054,5.80512 4.85764,2.25255 6.97066,3.91035 8.63202,6.77236 2.63896,4.5461 2.09217,8.65042 -1.65113,12.39373 -3.2395,3.2395 -6.83854,4.06785 -14.46459,3.32915 z"
       id="path76623"
       sodipodi:nodetypes="ssssssssssssssssss" />
    <path
       style="fill:#002a7a;fill-opacity:1;stroke-width:0.5"
       sodipodi:type="inkscape:offset"
       inkscape:radius="5.8521495"
       inkscape:original="M 219.83789 7.8046875 C 213.36907 7.8046875 207.0506 15.003475 204.85352 24.878906 C 204.21853 27.73299 204.08279 30.136746 204.27734 35.150391 C 204.54781 42.120811 205.28419 44.94304 207.08398 45.90625 C 208.19804 46.50248 210.62858 46.619509 211.88672 46.136719 C 212.93286 45.735279 214.16016 43.351593 214.16016 41.720703 C 214.16016 40.533973 214.32426 40.446406 216.53516 40.441406 C 217.84141 40.438376 219.75391 40.29545 220.78516 40.125 L 222.66016 39.816406 L 222.66016 43.345703 C 222.66016 46.562743 222.77563 46.965506 223.97656 47.910156 C 225.74439 49.300726 228.25601 49.245817 229.96094 47.779297 C 231.63548 46.338917 232.07165 43.746254 232.12305 34.933594 C 232.23005 16.574621 228.25893 7.8046875 219.83789 7.8046875 z M 219.98828 17.417969 C 221.37357 18.123841 222.3498 21.547385 222.92773 27.714844 L 223.27734 31.447266 L 221.54102 31.447266 C 220.58655 31.447266 218.42832 31.591548 216.74414 31.767578 C 213.01484 32.157368 212.78588 31.824647 213.64648 27.263672 C 214.29745 23.813676 216.86172 18.682924 218.4668 17.617188 C 219.0201 17.249804 219.52652 17.182678 219.98828 17.417969 z "
       xlink:href="#path76701"
       id="path247738"
       inkscape:href="#path76701"
       d="m 219.83789,1.953125 c -5.40525,0 -10.05441,2.907127 -13.49219,6.8242188 -3.43777,3.9170912 -5.91373,9.0257562 -7.20508,14.8300782 -0.74787,3.36145 -0.91238,6.578076 -0.71093,11.769531 0.14202,3.660248 0.3624,6.377494 1.01562,8.880859 0.65322,2.503366 2.17333,5.361669 4.87696,6.808594 1.97763,1.058405 3.34026,1.133599 4.82812,1.205078 1.48787,0.07148 2.87848,0.07777 4.83203,-0.671875 2.15071,-0.825299 3.03166,-1.796977 3.64844,-2.785156 0.7159,1.622337 1.99499,3.118324 2.72852,3.695313 3.94369,3.102099 9.61365,2.979368 13.41796,-0.292969 1.96286,-1.688381 3.20294,-4.501164 3.64454,-7.125 0.44159,-2.623836 0.52649,-5.625474 0.55273,-10.125 0.056,-9.606844 -0.80626,-17.025515 -3.46484,-22.896485 C 231.85118,6.1993434 226.07995,1.953125 219.83789,1.953125 Z" />
    <path
       style="fill:#ff6680;fill-opacity:1;stroke-width:0.5"
       d="m 223.97719,47.91028 c -1.20093,-0.94465 -1.31743,-1.34838 -1.31743,-4.56542 v -3.52913 l -1.875,0.30992 c -1.03125,0.17045 -2.94375,0.31239 -4.25,0.31542 -2.2109,0.005 -2.375,0.0936 -2.375,1.28033 0,1.63089 -1.22626,4.01314 -2.2724,4.41458 -1.25814,0.48279 -3.68874,0.36657 -4.8028,-0.22966 -1.79979,-0.96321 -2.53609,-3.78485 -2.80656,-10.75527 -0.19455,-5.013645 -0.06,-7.417546 0.57499,-10.27163 2.19708,-9.875431 8.51547,-17.075707 14.98429,-17.075707 8.42104,0 12.39298,8.770764 12.28598,27.129737 -0.0514,8.81266 -0.48783,11.40559 -2.16237,12.84597 -1.70493,1.46652 -4.21587,1.52143 -5.9837,0.13086 z m -2.43534,-16.46371 h 1.7354 l -0.34976,-3.732412 c -0.77058,-8.223278 -2.24776,-11.566797 -4.46099,-10.097265 -1.60508,1.065737 -4.16836,6.196416 -4.81933,9.646412 -0.8606,4.560975 -0.63217,4.893115 3.09713,4.503325 1.68418,-0.17603 3.84308,-0.32006 4.79755,-0.32006 z"
       id="path76701"
       sodipodi:nodetypes="sscscsssscssssscsssss" />
    <path
       style="fill:#002a7a;fill-opacity:1;stroke-width:0.5"
       sodipodi:type="inkscape:offset"
       inkscape:radius="7.0582476"
       inkscape:original="M 246.73242 68.806641 C 238.99629 68.008201 229.28737 74.540287 227.31055 81.873047 C 226.371 85.358167 226.96785 92.467604 228.47461 95.740234 C 230.8018 100.79481 234.95978 104.44474 239.73828 105.63086 C 247.49131 107.55532 257.44305 100.81889 260.1875 91.787109 C 261.19143 88.483309 261.16793 82.301935 260.13867 79.203125 C 258.3968 73.958845 252.52453 69.404441 246.73242 68.806641 z M 246.79102 77.832031 C 253.36772 78.899281 253.68575 89.880686 247.29883 95.347656 C 245.08139 97.245696 243.7765 97.648798 241.67188 97.085938 C 239.55024 96.518517 238.0046 94.814701 236.87695 91.800781 C 235.05009 86.918041 235.75367 83.177336 239.04102 80.291016 C 241.13866 78.449256 244.33678 77.433761 246.79102 77.832031 z "
       xlink:href="#path82432"
       id="path321402"
       inkscape:href="#path82432"
       d="m 247.45703,61.785156 c -6.12325,-0.631976 -11.78612,1.4534 -16.53515,4.648438 -4.74904,3.195037 -8.81856,7.639775 -10.42579,13.601562 -0.88152,3.269875 -0.82071,6.27236 -0.55468,9.441406 0.26603,3.169047 0.70376,6.136445 2.12109,9.214844 3.12306,6.783174 8.8394,12.017954 15.97461,13.789064 6.43072,1.59624 12.70059,-0.39219 17.76172,-3.81836 5.06112,-3.42617 9.22228,-8.5027 11.14258,-14.822266 1.7249,-5.676435 1.80069,-11.128292 -0.10352,-16.861328 -2.85237,-8.587673 -10.43171,-14.269724 -19.38086,-15.19336 z m -2.60742,23.34375 c 4.4e-4,0.01138 0.002,0.0041 0.002,0.01563 0.0317,1.092802 -0.56878,2.592358 -1.43359,3.808594 -0.37786,-1.204405 -0.48787,-2.094101 -0.43945,-2.351563 0.0561,-0.298522 0.0235,-0.395428 0.71875,-1.005859 0.2297,-0.201687 0.63511,-0.30872 1.15234,-0.466797 z" />
    <path
       style="fill:#ff6680;fill-opacity:1;stroke-width:0.5"
       d="m 239.73856,105.63177 c -4.7785,-1.18612 -8.93609,-4.83759 -11.26328,-9.89217 -1.50676,-3.27263 -2.10349,-10.38203 -1.16394,-13.86715 1.97682,-7.33276 11.68449,-13.86352 19.42062,-13.06508 5.79211,0.5978 11.66444,5.15138 13.40631,10.39566 1.02926,3.09881 1.05373,9.27956 0.0498,12.58336 -2.74445,9.03178 -12.6965,15.76984 -20.44953,13.84538 z M 247.299,95.34795 c 6.38692,-5.46697 6.06798,-16.44811 -0.50872,-17.51536 -2.45424,-0.39827 -5.65235,0.61591 -7.74999,2.45767 -3.28735,2.88632 -3.99071,6.62792 -2.16385,11.51066 1.12765,3.01392 2.67373,4.71798 4.79537,5.2854 2.10462,0.56286 3.40975,0.15967 5.62719,-1.73837 z"
       id="path82432"
       sodipodi:nodetypes="ssssssssssssss" />
    <path
       style="fill:#002a7a;fill-opacity:1;stroke-width:0.5"
       sodipodi:type="inkscape:offset"
       inkscape:radius="5.3115907"
       inkscape:original="M 274.72266 66.589844 C 268.91752 66.169934 268.20483 67.418543 267.55859 79.126953 C 267.29735 83.860143 266.84838 91.236701 266.56055 95.519531 C 266.23502 100.36348 266.21154 103.76496 266.5 104.51953 C 266.98705 105.79363 268.31281 107.14375 269.57812 107.6543 C 269.99063 107.82077 271.41731 107.88156 272.74805 107.78906 C 274.54878 107.66383 275.50313 107.28594 276.47656 106.3125 C 277.83389 104.95518 277.81801 105.05691 278.54102 92.578125 C 278.56188 92.218175 278.81106 92.068221 279.0957 92.244141 C 279.38035 92.420051 280.93954 92.556828 282.56055 92.548828 C 289.65073 92.514918 295.54126 86.520194 295.56836 79.308594 C 295.58181 75.727104 294.59031 73.497621 291.99414 71.275391 C 289.48302 69.125971 286.40982 68.267627 282.49023 68.623047 C 279.79137 68.867767 279.32282 68.775586 278.57617 67.853516 C 277.93373 67.060136 276.99858 66.754464 274.72266 66.589844 z M 281.95117 75.132812 C 282.41663 75.212384 282.93996 75.401462 283.51953 75.701172 C 286.06385 77.016882 286.76137 78.505052 286.00977 81.013672 C 285.66207 82.174172 284.66595 83.879184 283.79492 84.802734 C 282.3105 86.376684 281.18291 86.747491 279.70312 86.150391 C 279.0256 85.877001 278.84742 80.695319 279.40039 77.349609 C 279.68264 75.641919 280.5548 74.894098 281.95117 75.132812 z "
       xlink:href="#path86954"
       id="path325130"
       inkscape:href="#path86954"
       d="m 272.61133,61.199219 c -0.85675,0.02412 -1.75693,0.130564 -2.75,0.398437 -1.98614,0.535748 -4.19462,2.200248 -5.26758,4.078125 -2.14593,3.755754 -2.00942,7.207091 -2.33789,13.158203 -0.25952,4.702035 -0.70889,12.085662 -0.99414,16.330078 -0.16777,2.496441 -0.2618,4.635939 -0.27344,6.353518 -0.006,0.85879 0.008,1.60551 0.0547,2.31054 0.0469,0.70504 -0.0599,1.13352 0.49609,2.5879 1.1881,3.108 2.96608,4.91939 6.05078,6.16406 1.96883,0.79453 2.20036,0.51074 3.00391,0.54492 0.80355,0.0342 1.64678,0.0238 2.52344,-0.0371 2.4089,-0.16752 5.4004,-1.30468 7.11523,-3.01953 0.63907,-0.63907 2.42448,-3.38085 2.76758,-5.66406 0.19779,-1.3162 0.34223,-4.36545 0.48633,-6.640628 9.64407,-0.535924 17.35776,-8.651738 17.39453,-18.435547 0.0172,-4.570055 -2.01167,-9.15884 -5.43359,-12.087891 -3.60686,-3.087322 -8.50325,-4.353678 -13.4375,-3.90625 -0.59577,0.05402 -0.32803,0.05984 -0.5586,0.0625 -0.80248,-0.62666 -1.68182,-1.17933 -2.53515,-1.458984 -1.33725,-0.438244 -2.48886,-0.548932 -3.81055,-0.644531 -0.82401,-0.0596 -1.63739,-0.117866 -2.49414,-0.09375 z" />
    <path
       style="fill:#de5cff;fill-opacity:1;stroke-width:0.5"
       d="m 269.57898,107.65455 c -1.26532,-0.51055 -2.59142,-1.86106 -3.07847,-3.13516 -0.28846,-0.75457 -0.26593,-4.15605 0.0596,-9 0.28783,-4.28283 0.73707,-11.65957 0.99831,-16.39276 0.64624,-11.70841 1.35973,-12.95687 7.16487,-12.53696 2.27592,0.16462 3.21004,0.47127 3.85248,1.26465 0.74665,0.92207 1.21473,1.01409 3.91359,0.76937 3.91959,-0.35542 6.99275,0.50192 9.50387,2.65134 2.59617,2.22223 3.5882,4.45146 3.57475,8.03295 -0.0271,7.2116 -5.91648,13.20712 -13.00666,13.24103 -1.62101,0.008 -3.18018,-0.12984 -3.46483,-0.30575 -0.28464,-0.17592 -0.53459,-0.0253 -0.55545,0.33465 -0.72301,12.47878 -0.70778,12.37749 -2.06511,13.73481 -0.97343,0.97344 -1.92672,1.35097 -3.72745,1.4762 -1.33074,0.0925 -2.75702,0.0321 -3.16952,-0.13437 z m 14.2156,-22.85132 c 0.87103,-0.92355 1.86816,-2.6287 2.21586,-3.7892 0.7516,-2.50862 0.0543,-3.99618 -2.49002,-5.31189 -2.3183,-1.19884 -3.74302,-0.62883 -4.11935,1.64809 -0.55297,3.34571 -0.37462,8.52766 0.30291,8.80105 1.47978,0.5971 2.60618,0.2259 4.0906,-1.34805 z"
       id="path86954"
       sodipodi:nodetypes="ssssssssscscssssssssss" />
    <path
       style="fill:#ff6680;fill-opacity:1;stroke-width:0.25"
       sodipodi:type="inkscape:offset"
       inkscape:radius="0"
       inkscape:original="M 213.5918 65.496094 C 211.9639 65.264484 210.58579 65.692841 209.69531 66.707031 C 208.46052 68.113431 208.29728 69.409918 208.49805 76.236328 L 208.67578 82.28125 L 206.9707 82.441406 C 206.03288 82.530006 203.73392 82.604489 201.86328 82.605469 L 198.46289 82.607422 L 198.32031 76.544922 C 198.12398 68.157872 197.79199 67.235512 194.73828 66.601562 C 191.7758 65.986553 189.73878 67.176382 189.16211 69.857422 C 188.70724 71.972172 189.56533 103.2219 190.13086 105.14062 C 190.48666 106.34782 191.23403 107.26222 192.34961 107.85156 C 194.33273 108.89921 197.09145 108.17484 198.34375 106.2793 L 199.01562 105.26367 L 198.93164 98.560547 L 198.84766 91.855469 L 203.45508 91.855469 C 207.52742 91.855469 208.10874 91.906299 208.45508 92.292969 C 208.76741 92.641669 208.89464 93.825577 209.08594 98.123047 C 209.35691 104.21039 209.62323 105.24583 211.22656 106.46875 C 213.40066 108.12701 216.69183 107.31721 218.07422 104.78516 C 218.58629 103.84717 218.58977 104.49591 218.01172 83.855469 C 217.798 76.224219 217.53321 69.530469 217.42383 68.980469 C 216.97246 66.710789 216.01584 65.840974 213.5918 65.496094 z "
       xlink:href="#path91711"
       id="path333170"
       inkscape:href="#path91711"
       d="m 213.5918,65.496094 c -1.6279,-0.23161 -3.00601,0.196747 -3.89649,1.210937 -1.23479,1.4064 -1.39803,2.702887 -1.19726,9.529297 l 0.17773,6.044922 -1.70508,0.160156 c -0.93782,0.0886 -3.23678,0.163083 -5.10742,0.164063 l -3.40039,0.002 -0.14258,-6.0625 c -0.19633,-8.38705 -0.52832,-9.30941 -3.58203,-9.94336 -2.96248,-0.615009 -4.9995,0.57482 -5.57617,3.25586 -0.45487,2.11475 0.40322,33.364478 0.96875,35.283198 0.3558,1.2072 1.10317,2.1216 2.21875,2.71094 1.98312,1.04765 4.74184,0.32328 5.99414,-1.57226 l 0.67187,-1.01563 -0.084,-6.703123 -0.084,-6.705078 h 4.60742 c 4.07234,0 4.65366,0.05083 5,0.4375 0.31233,0.3487 0.43956,1.532608 0.63086,5.830078 0.27097,6.087343 0.53729,7.122783 2.14062,8.345703 2.1741,1.65826 5.46527,0.84846 6.84766,-1.68359 0.51207,-0.93799 0.51555,-0.28925 -0.0625,-20.929691 -0.21372,-7.63125 -0.47851,-14.325 -0.58789,-14.875 -0.45137,-2.26968 -1.40799,-3.139495 -3.83203,-3.484375 z" />
    <path
       style="fill:#ff6680;fill-opacity:1;stroke-width:0.25"
       sodipodi:type="inkscape:offset"
       inkscape:radius="0"
       inkscape:original="M 213.5918 65.496094 C 211.9639 65.264484 210.58579 65.692841 209.69531 66.707031 C 208.46052 68.113431 208.29728 69.409918 208.49805 76.236328 L 208.67578 82.28125 L 206.9707 82.441406 C 206.03288 82.530006 203.73392 82.604489 201.86328 82.605469 L 198.46289 82.607422 L 198.32031 76.544922 C 198.12398 68.157872 197.79199 67.235512 194.73828 66.601562 C 191.7758 65.986553 189.73878 67.176382 189.16211 69.857422 C 188.70724 71.972172 189.56533 103.2219 190.13086 105.14062 C 190.48666 106.34782 191.23403 107.26222 192.34961 107.85156 C 194.33273 108.89921 197.09145 108.17484 198.34375 106.2793 L 199.01562 105.26367 L 198.93164 98.560547 L 198.84766 91.855469 L 203.45508 91.855469 C 207.52742 91.855469 208.10874 91.906299 208.45508 92.292969 C 208.76741 92.641669 208.89464 93.825577 209.08594 98.123047 C 209.35691 104.21039 209.62323 105.24583 211.22656 106.46875 C 213.40066 108.12701 216.69183 107.31721 218.07422 104.78516 C 218.58629 103.84717 218.58977 104.49591 218.01172 83.855469 C 217.798 76.224219 217.53321 69.530469 217.42383 68.980469 C 216.97246 66.710789 216.01584 65.840974 213.5918 65.496094 z "
       xlink:href="#path91711"
       id="path339472"
       inkscape:href="#path91711"
       d="m 213.5918,65.496094 c -1.6279,-0.23161 -3.00601,0.196747 -3.89649,1.210937 -1.23479,1.4064 -1.39803,2.702887 -1.19726,9.529297 l 0.17773,6.044922 -1.70508,0.160156 c -0.93782,0.0886 -3.23678,0.163083 -5.10742,0.164063 l -3.40039,0.002 -0.14258,-6.0625 c -0.19633,-8.38705 -0.52832,-9.30941 -3.58203,-9.94336 -2.96248,-0.615009 -4.9995,0.57482 -5.57617,3.25586 -0.45487,2.11475 0.40322,33.364478 0.96875,35.283198 0.3558,1.2072 1.10317,2.1216 2.21875,2.71094 1.98312,1.04765 4.74184,0.32328 5.99414,-1.57226 l 0.67187,-1.01563 -0.084,-6.703123 -0.084,-6.705078 h 4.60742 c 4.07234,0 4.65366,0.05083 5,0.4375 0.31233,0.3487 0.43956,1.532608 0.63086,5.830078 0.27097,6.087343 0.53729,7.122783 2.14062,8.345703 2.1741,1.65826 5.46527,0.84846 6.84766,-1.68359 0.51207,-0.93799 0.51555,-0.28925 -0.0625,-20.929691 -0.21372,-7.63125 -0.47851,-14.325 -0.58789,-14.875 -0.45137,-2.26968 -1.40799,-3.139495 -3.83203,-3.484375 z" />
    <path
       style="fill:#002a7a;fill-opacity:1;stroke-width:0.25"
       sodipodi:type="inkscape:offset"
       inkscape:radius="5.8664565"
       inkscape:original="M 213.5918 65.496094 C 211.9639 65.264484 210.58579 65.692841 209.69531 66.707031 C 208.46052 68.113431 208.29728 69.409918 208.49805 76.236328 L 208.67578 82.28125 L 206.9707 82.441406 C 206.03288 82.530006 203.73392 82.604489 201.86328 82.605469 L 198.46289 82.607422 L 198.32031 76.544922 C 198.12398 68.157872 197.79199 67.235512 194.73828 66.601562 C 191.7758 65.986553 189.73878 67.176382 189.16211 69.857422 C 188.70724 71.972172 189.56533 103.2219 190.13086 105.14062 C 190.48666 106.34782 191.23403 107.26222 192.34961 107.85156 C 194.33273 108.89921 197.09145 108.17484 198.34375 106.2793 L 199.01562 105.26367 L 198.93164 98.560547 L 198.84766 91.855469 L 203.45508 91.855469 C 207.52742 91.855469 208.10874 91.906299 208.45508 92.292969 C 208.76741 92.641669 208.89464 93.825577 209.08594 98.123047 C 209.35691 104.21039 209.62323 105.24583 211.22656 106.46875 C 213.40066 108.12701 216.69183 107.31721 218.07422 104.78516 C 218.58629 103.84717 218.58977 104.49591 218.01172 83.855469 C 217.798 76.224219 217.53321 69.530469 217.42383 68.980469 C 216.97246 66.710789 216.01584 65.840974 213.5918 65.496094 z "
       xlink:href="#path91711"
       id="path352318"
       inkscape:href="#path91711"
       d="m 212.01758,59.621094 c -2.45567,0.201777 -4.98291,1.224507 -6.73047,3.214844 -0.84562,0.963145 -1.59025,2.617177 -2.08008,4.271484 -0.0479,-0.145885 -0.0343,-0.281057 -0.0879,-0.429688 -0.54966,-1.525908 -1.80368,-3.322341 -3.32422,-4.328125 -1.52054,-1.005784 -2.84336,-1.280451 -3.86328,-1.492187 -2.48048,-0.514946 -5.33109,-0.391241 -7.83398,1.070312 -2.5029,1.461554 -4.12049,4.14091 -4.66993,6.695313 -0.40903,1.901635 -0.22362,2.026678 -0.24414,3.173828 -0.0205,1.14715 -0.0207,2.583704 -0.008,4.242187 0.0258,3.316967 0.10961,7.50689 0.22461,11.695313 0.11501,4.188423 0.26028,8.365035 0.41602,11.658203 0.0779,1.646582 0.15699,3.068062 0.24023,4.199222 0.0416,0.56557 0.0843,1.05368 0.13477,1.50781 0.0505,0.45413 3.6e-4,0.64022 0.3125,1.69922 0.75849,2.57351 2.7307,4.98569 5.10547,6.24023 4.95661,2.6185 10.56899,1.1028 13.62695,-3.52344 l 0.002,-0.002 0.66992,-1.01367 a 5.8670432,5.8670432 0 0 0 0.72266,-1.57422 c 0.79764,1.7253 2.00066,3.41649 3.03711,4.20703 5.17632,3.94816 12.54778,1.97049 15.55469,-3.53711 -0.01,0.0176 0.7538,-1.53686 0.93164,-2.64258 0.17784,-1.10571 0.16804,-1.89457 0.16406,-3.26171 -0.008,-2.734282 -0.15437,-7.681173 -0.44336,-18.000004 -0.10741,-3.835416 -0.22614,-7.432295 -0.33398,-10.160156 -0.0539,-1.36393 -0.10448,-2.507918 -0.1504,-3.376953 -0.023,-0.434517 -0.0455,-0.79792 -0.0684,-1.113281 -0.0228,-0.315362 0.047,-0.242015 -0.14454,-1.205078 -0.35236,-1.77184 -1.15577,-3.997464 -2.98437,-5.660157 -1.8286,-1.662693 -3.98901,-2.234124 -5.77539,-2.488281 -0.77091,-0.109682 -1.58184,-0.133665 -2.40039,-0.06641 z" />
    <path
       style="fill:#ff6680;fill-opacity:1;stroke-width:0.25"
       d="m 192.3504,107.85117 c -1.11558,-0.58934 -1.86451,-1.50378 -2.22031,-2.71098 -0.56553,-1.91873 -1.42283,-33.16882 -0.96796,-35.28357 0.57667,-2.68104 2.61426,-3.87051 5.57674,-3.2555 3.05371,0.63395 3.38589,1.55595 3.58222,9.943 l 0.14191,6.0625 3.40118,-0.002 c 1.87064,-9.8e-4 4.16848,-0.0742 5.1063,-0.1628 l 1.70513,-0.16102 -0.17778,-6.04463 c -0.20077,-6.82641 -0.038,-8.122 1.19679,-9.5284 0.89048,-1.01419 2.26889,-1.44254 3.89679,-1.21093 2.42404,0.34488 3.38081,1.21487 3.83218,3.48455 0.10938,0.55 0.37373,7.24375 0.58745,14.875 0.57805,20.64044 0.57607,19.99151 0.064,20.9295 -1.38239,2.53205 -4.67463,3.34091 -6.84873,1.68265 -1.60333,-1.22292 -1.86869,-2.25788 -2.13966,-8.34522 -0.1913,-4.29747 -0.31956,-5.48073 -0.63189,-5.82943 -0.34634,-0.38667 -0.92724,-0.4375 -4.99958,-0.4375 h -4.60771 l 0.084,6.70405 0.0839,6.70405 -0.671,1.01566 c -1.2523,1.89554 -4.01083,2.61844 -5.99395,1.57079 z"
       id="path91711"
       sodipodi:nodetypes="cssssccccssssscsssscccscc" />
    <path
       style="fill:#002a7a;fill-opacity:1;stroke-width:0.25"
       sodipodi:type="inkscape:offset"
       inkscape:radius="5.7032423"
       inkscape:original="M 110.11328 9.5976562 C 96.595933 9.6945202 97.289884 9.5881652 96.333984 11.691406 C 95.678174 13.134371 95.669102 13.931608 96.107422 31.484375 C 96.431162 44.449115 96.657761 47.770591 97.306641 49.025391 C 97.770601 49.922581 99.127372 50.939142 100.125 51.138672 C 100.56326 51.226322 100.98264 51.395885 101.05664 51.515625 C 101.24503 51.820445 102.98533 51.788807 109.03516 51.367188 C 111.92266 51.165958 116.18512 50.882371 118.50586 50.738281 C 123.52415 50.426721 124.19135 50.19976 124.80469 48.59375 C 125.11905 47.76961 125.19669 46.953886 125.11719 45.291016 C 124.99417 42.717936 124.43304 41.369069 123.17969 40.636719 C 122.38847 40.174349 122.21183 40.173017 114.77148 40.623047 C 109.61624 40.934847 106.94811 41.004674 106.47852 40.839844 L 105.78516 40.597656 L 105.71484 37.791016 C 105.67594 36.247196 105.67594 34.971231 105.71484 34.957031 C 105.75372 34.942891 108.76641 34.85069 112.41016 34.75 C 116.05391 34.64931 119.22661 34.481876 119.45898 34.378906 C 120.49497 33.919856 120.78516 32.982846 120.78516 30.109375 C 120.78516 27.794529 120.7097 27.245451 120.29883 26.638672 C 119.43659 25.365285 118.94765 25.29457 111.92188 25.429688 L 105.49023 25.552734 L 105.32617 23.982422 C 105.06845 21.516684 105.12195 19.980458 105.47266 19.863281 C 105.64454 19.805857 109.50305 19.668915 114.04688 19.558594 C 123.2522 19.335095 123.3372 19.317499 124.06641 17.572266 C 124.59741 16.301465 124.56217 12.502211 124.00781 11.333984 C 123.11312 9.4485684 123.54297 9.5014163 110.11328 9.5976562 z "
       xlink:href="#path97584"
       id="path177643"
       inkscape:href="#path97584"
       d="m 110.07227,3.8945312 c -6.74442,0.04833 -9.68126,-0.055978 -12.41602,0.359375 -1.367378,0.2076766 -3.31858,0.7881629 -4.748047,2.2519532 -1.429467,1.4637902 -1.626708,2.5205178 -1.765625,2.8261718 -0.243754,0.5363271 -0.653909,1.6727598 -0.816406,2.7128908 -0.162497,1.04013 -0.202672,2.032593 -0.21875,3.4375 -0.03216,2.809814 0.07959,7.365012 0.298828,16.144531 0.162396,6.503416 0.296134,10.596711 0.488281,13.408203 0.192148,2.811493 0.202579,4.398809 1.345703,6.609375 0.870208,1.682777 1.821487,2.486605 2.855469,3.261719 0.852169,0.63882 1.813645,1.168349 3.117188,1.556641 0.400109,0.22263 0.804798,0.426296 1.083984,0.52539 0.730065,0.259129 1.177295,0.311351 1.570315,0.357422 0.78604,0.09214 1.35772,0.0838 2.08593,0.07031 1.45644,-0.02699 3.42564,-0.146617 6.47852,-0.359375 2.8699,-0.200004 7.13785,-0.484779 9.42774,-0.626953 2.57902,-0.160119 4.12067,-0.142037 6.28515,-0.878907 2.16449,-0.73687 4.46765,-3.558622 4.98828,-4.921875 a 5.7038126,5.7038126 0 0 0 0,-0.002 c 0.64954,-1.702847 0.77385,-3.678768 0.68164,-5.607422 -0.079,-1.65222 -0.27083,-3.241915 -0.97656,-4.9375 -0.70573,-1.695584 -2.15779,-3.42053 -3.78125,-4.36914 -0.0646,-0.03775 -0.37558,-0.140344 -0.50391,-0.207032 0.10475,-0.224122 0.33768,-0.451426 0.4043,-0.666015 0.55466,-1.786643 0.53125,-3.101745 0.53125,-4.730469 0,-1.219395 0.009,-2.066698 -0.14453,-3.166016 -0.12441,-0.890195 -0.61574,-1.970225 -1.07031,-2.835937 0.76739,-0.337404 1.54415,-0.794393 2.21679,-1.457031 1.27255,-1.253628 1.64171,-2.409377 1.83789,-2.878907 1.06232,-2.542357 0.83394,-3.744026 0.81836,-5.410156 -0.0156,-1.666129 0.29739,-2.767431 -0.98632,-5.4726561 C 129.00789,8.5677962 128.64388,7.3102553 127.10547,5.9628906 125.56706,4.6155259 123.79984,4.2308782 122.46875,4.0644531 119.80657,3.731603 116.77919,3.846468 110.07227,3.8945312 Z M 96.205078,54.513672 c 0.485843,0.786107 1.018009,1.260825 1.523438,1.628906 -0.331551,-0.169545 -0.778815,-0.424026 -1.523438,-1.628906 z m 2.314453,2.052734 c 0.180617,0.04666 0.28815,0.124426 0.486328,0.164063 -0.131335,-0.02627 -0.184533,-0.03448 -0.417968,-0.128907 -0.01353,-0.0055 -0.05356,-0.02915 -0.06836,-0.03516 z" />
    <path
       style="fill:#53eabc;fill-opacity:1;stroke-width:0.25"
       d="m 101.05595,51.51593 c -0.074,-0.11974 -0.49312,-0.28942 -0.93138,-0.37707 -0.997628,-0.19953 -2.353278,-1.21676 -2.817238,-2.11395 -0.64888,-1.2548 -0.87609,-4.57653 -1.19983,-17.54127 -0.43832,-17.552767 -0.42921,-18.34845 0.2266,-19.791415 0.9559,-2.103241 0.26114,-1.997629 13.778488,-2.094493 13.42969,-0.09624 12.9999,-0.149919 13.89459,1.735497 0.55436,1.168227 0.5908,4.968943 0.0598,6.239744 -0.72921,1.745233 -0.81419,1.762074 -10.01951,1.985573 -4.54383,0.110321 -8.40213,0.247568 -8.57401,0.304992 -0.35071,0.117177 -0.40598,1.652328 -0.14826,4.118066 l 0.16423,1.571311 6.43304,-0.123717 c 7.02578,-0.135117 7.51315,-0.06479 8.37539,1.208597 0.41087,0.606779 0.4881,1.155998 0.4881,3.470844 0,2.873471 -0.29151,3.811181 -1.3275,4.270231 -0.23237,0.10297 -3.40375,0.26959 -7.0475,0.37028 -3.64375,0.10069 -6.65681,0.19464 -6.69569,0.20878 -0.0389,0.0142 -0.0389,1.28884 0,2.83266 l 0.0707,2.80694 0.69231,0.24301 c 0.46959,0.16483 3.13716,0.0951 8.2924,-0.2167 7.44035,-0.45003 7.61709,-0.44977 8.40831,0.0126 1.25335,0.73235 1.81531,2.08192 1.93833,4.655 0.0795,1.66287 0.002,2.47818 -0.31236,3.30232 -0.61334,1.60601 -1.28117,1.8334 -6.29946,2.14496 -2.32074,0.14409 -6.58203,0.42662 -9.46953,0.62785 -6.04983,0.42162 -7.79165,0.45423 -7.98004,0.14941 z"
       id="path97584"
       sodipodi:nodetypes="csssssscssscssssscscsscscsscc" />
  </g>
</svg>
