?xml version="1.0" encoding="UTF-8" standalone="no"?>
<svg
   width="318.07324"
   height="113.49383"
   viewBox="0 0 318.07324 113.49383"
   fill="none"
   version="1.1"
   id="svg26"
   sodipodi:docname="pixelnaut-logo.svg"
   inkscape:version="1.1.1 (3bf5ae0d25, 2021-09-20)"
   xmlns:inkscape="http://www.inkscape.org/namespaces/inkscape"
   xmlns:sodipodi="http://sodipodi.sourceforge.net/DTD/sodipodi-0.dtd"
   xmlns:xlink="http://www.w3.org/1999/xlink"
   xmlns="http://www.w3.org/2000/svg"
   xmlns:svg="http://www.w3.org/2000/svg">
  <defs
     id="defs30">
    <linearGradient
       id="linearGradient111072"
       inkscape:swatch="solid">
      <stop
         style="stop-color:#000000;stop-opacity:1;"
         offset="0"
         id="stop111070" />
    </linearGradient>
    <linearGradient
       id="linearGradient111066"
       inkscape:swatch="solid">
      <stop
         style="stop-color:#002a7a;stop-opacity:1;"
         offset="0"
         id="stop111064" />
    </linearGradient>
    <linearGradient
       id="linearGradient109963"
       inkscape:swatch="solid">
      <stop
         style="stop-color:#000000;stop-opacity:1;"
         offset="0"
         id="stop109961" />
    </linearGradient>
    <linearGradient
       id="linearGradient107171"
       inkscape:swatch="solid">
      <stop
         style="stop-color:#0fe6df;stop-opacity:1;"
         offset="0"
         id="stop107169" />
    </linearGradient>
    <linearGradient
       inkscape:collect="always"
       xlink:href="#linearGradient111066"
       id="linearGradient111068"
       x1="-16.341614"
       y1="99.500671"
       x2="13.649074"
       y2="99.500671"
       gradientUnits="userSpaceOnUse"
       gradientTransform="translate(3.403195,-1.5678415)" />
    <linearGradient
       inkscape:collect="always"
       xlink:href="#linearGradient111066"
       id="linearGradient111074"
       x1="-16.341614"
       y1="99.500671"
       x2="13.649074"
       y2="99.500671"
       gradientUnits="userSpaceOnUse"
       gradientTransform="translate(3.403195,-1.5678415)" />
    <linearGradient
       inkscape:collect="always"
       xlink:href="#linearGradient107171"
       id="linearGradient148193"
       gradientUnits="userSpaceOnUse"
       gradientTransform="translate(22.415218,-71.601226)"
       x1="-16.341614"
       y1="99.500671"
       x2="13.649074"
       y2="99.500671" />
    <linearGradient
       inkscape:collect="always"
       xlink:href="#linearGradient111066"
       id="linearGradient148195"
       gradientUnits="userSpaceOnUse"
       gradientTransform="translate(22.415218,-71.601226)"
       x1="-16.341614"
       y1="99.500671"
       x2="13.649074"
       y2="99.500671" />
    <linearGradient
       inkscape:collect="always"
       xlink:href="#linearGradient111066"
       id="linearGradient148218"
       gradientUnits="userSpaceOnUse"
       gradientTransform="translate(3.403195,-1.5678415)"
       x1="-16.341614"
       y1="99.500671"
       x2="13.649074"
       y2="99.500671" />
    <linearGradient
       inkscape:collect="always"
       xlink:href="#linearGradient111066"
       id="linearGradient280528"
       gradientUnits="userSpaceOnUse"
       gradientTransform="translate(3.403195,-1.5678415)"
       x1="-16.341614"
       y1="99.500671"
       x2="13.649074"
       y2="99.500671" />
  </defs>
  <sodipodi:namedview
     id="namedview28"
     pagecolor="#ffffff"
     bordercolor="#666666"
     borderopacity="1.0"
     inkscape:pageshadow="2"
     inkscape:pageopacity="0.0"
     inkscape:pagecheckerboard="0"
     showgrid="false"
     inkscape:zoom="1.4142136"
     inkscape:cx="-198.34345"
     inkscape:cy="119.8546"
     inkscape:window-width="1920"
     inkscape:window-height="1020"
     inkscape:window-x="0"
     inkscape:window-y="0"
     inkscape:window-maximized="1"
     inkscape:current-layer="svg26"
     inkscape:object-paths="true"
     inkscape:snap-bbox="true"
     inkscape:snap-global="false"
     fit-margin-top="0"
     fit-margin-left="0"
     fit-margin-right="0"
     fit-margin-bottom="0" />
  <path
     sodipodi:type="inkscape:offset"
     inkscape:radius="7.9430919"
     inkscape:original="M 288.41406 7.9453125 C 286.92206 7.8879125 285.3725 8.2315869 283.9375 8.7480469 C 281.5275 9.6661869 280.49447 12.133863 281.35547 14.314453 C 282.10147 16.322953 284.34012 17.528553 286.57812 17.126953 C 287.78312 16.897353 288.987 16.897678 290.25 16.955078 C 290.25 17.241978 290.30859 17.470478 290.30859 17.642578 C 289.96459 25.389478 289.38992 35.719897 289.04492 43.466797 C 289.04492 44.327497 289.1018 45.303363 289.2168 46.164062 C 289.6178 48.688963 291.97145 50.352872 294.43945 49.951172 C 297.07845 49.492072 298.45531 47.769591 298.57031 44.900391 C 298.65631 42.132811 298.79027 39.005643 298.93945 35.789062 C 299.18929 30.402082 299.48241 24.767038 299.66211 20.167969 C 299.66211 19.421969 299.77598 18.618513 299.83398 17.757812 L 300.63672 17.757812 C 301.95672 17.872512 303.27766 17.931316 304.59766 18.103516 C 307.29466 18.390416 309.70447 16.783147 310.10547 14.373047 C 310.56547 11.962907 309.072 9.8961056 306.375 9.3222656 C 304.883 8.9779556 303.3338 8.9201969 301.8418 8.7480469 C 300.5218 8.6332769 299.25909 8.6343013 297.99609 8.5195312 C 294.84009 8.2899912 291.62806 8.0026925 288.41406 7.9453125 z "
     xlink:href="#path8-2-9"
     id="path275942"
     inkscape:href="#path8-2-9"
     d="m 265.66602,70.044922 c -2.90752,-0.104568 -5.3534,0.516407 -7.42969,1.263672 a 7.9438862,7.9438862 0 0 0 -0.13867,0.05273 c -6.09095,2.320474 -9.50212,9.716458 -7.17188,15.798828 1.43548,3.813301 4.52584,6.258153 8.08399,7.322266 -0.31384,6.322368 -0.66026,13.008718 -0.91211,18.664058 a 7.9438862,7.9438862 0 0 0 -0.008,0.35352 c 0,1.21065 0.0684,2.44889 0.24219,3.75 a 7.9438862,7.9438862 0 0 0 0.0274,0.19336 c 1.07141,6.7462 7.65259,11.46993 14.34374,10.38086 a 7.9438862,7.9438862 0 0 0 0.0859,-0.0137 c 2.74226,-0.47708 5.79274,-1.95169 7.8125,-4.43555 2.01977,-2.48386 2.78878,-5.48449 2.89453,-8.12305 a 7.9438862,7.9438862 0 0 0 0.002,-0.0723 c 0.0838,-2.6973 0.21494,-5.79183 0.36328,-8.99024 0.16518,-3.56165 0.32303,-6.977768 0.48242,-10.425778 5.01928,-0.861907 9.58546,-4.409932 10.55664,-9.957031 1.14298,-6.29764 -3.97982,-12.932241 -9.84766,-14.205079 -2.41698,-0.543984 -4.26713,-0.588368 -5.3125,-0.708984 a 7.9438862,7.9438862 0 0 0 -0.22265,-0.02344 c -1.7518,-0.152314 -3.02279,-0.154624 -3.81446,-0.226563 a 7.9438862,7.9438862 0 0 0 -0.14257,-0.01172 c -3.02956,-0.220343 -6.35093,-0.516823 -9.89453,-0.585937 z"
     style="fill:#002a7a;fill-opacity:1" />
  <path
     d="m 299.83373,17.758292 h 0.803 c 1.32,0.1147 2.64,0.1721 3.96,0.3443 2.697,0.2869 5.107,-1.3199 5.508,-3.73 0.46,-2.41014 -1.032,-4.4759801 -3.729,-5.0498201 -1.492,-0.34431 -3.042,-0.40169 -4.534,-0.57384 -1.32,-0.11477 -2.582,-0.11477 -3.845,-0.22954 -3.156,-0.22954 -6.369,-0.51646 -9.583,-0.57384 -1.492,-0.0574 -3.041,0.28692 -4.476,0.80338 -2.41,0.91814 -3.443,3.3856701 -2.582,5.5662601 0.746,2.0085 2.984,3.2135 5.222,2.8119 1.205,-0.2296 2.41,-0.2296 3.673,-0.1722 0,0.2869 0.057,0.5165 0.057,0.6886 -0.344,7.7469 -0.918,18.076104 -1.263,25.823004 0,0.8607 0.058,1.8363 0.173,2.697 0.401,2.5249 2.754,4.1891 5.222,3.7874 2.639,-0.4591 4.016,-2.1806 4.131,-5.0498 0.086,-2.76758 0.22006,-5.89612 0.36924,-9.1127 0.24984,-5.38698 0.54206,-11.020935 0.72176,-15.620004 0,-0.746 0.114,-1.5494 0.172,-2.4101 z"
     fill="#de5cff"
     id="path8-2-9"
     sodipodi:nodetypes="cccccccccccccccccscc" />
  <path
     sodipodi:type="inkscape:offset"
     inkscape:radius="6.3754573"
     inkscape:original="M 248.14648 9.5136719 C 245.73648 9.3989019 243.78434 10.775407 243.15234 13.185547 C 242.63634 15.308747 242.23498 17.545962 241.83398 19.726562 C 241.02998 24.546862 240.51389 29.367198 241.08789 34.1875 C 243.32589 51.4602 267.02564 49.281025 270.18164 33.328125 C 271.04264 27.704416 271.04102 22.195647 271.04102 15.998047 C 270.98402 14.047047 270.06611 12.555353 268.28711 11.751953 C 265.13111 10.317343 261.63122 12.611688 261.57422 16.054688 C 261.51622 20.071587 261.45911 24.088569 261.28711 28.105469 C 260.88511 38.606871 249.35141 40.960324 250.44141 28.794922 C 250.90041 23.974622 252.04722 19.095691 252.44922 14.275391 C 252.67822 11.693091 250.72848 9.6284419 248.14648 9.5136719 z "
     xlink:href="#path10-6"
     id="path255600"
     inkscape:href="#path10-6"
     d="m 225.42383,73.179688 c -4.98852,-0.23029 -10.15245,3.476606 -11.44922,8.421874 a 6.3760948,6.3760948 0 0 0 -0.0293,0.111329 c -0.57974,2.385511 -0.99513,4.735188 -1.39258,6.896484 a 6.3760948,6.3760948 0 0 0 -0.0195,0.103516 c -0.84463,5.063924 -1.47317,10.502255 -0.78711,16.263669 a 6.3760948,6.3760948 0 0 0 0.008,0.0645 c 0.74592,5.757 3.55101,10.62937 7.49804,13.64453 3.94704,3.01515 8.76442,4.19838 13.39258,3.93164 9.25632,-0.53348 18.6205,-7.11713 20.77735,-18.01953 a 6.3760948,6.3760948 0 0 0 0.0488,-0.27149 c 0.95522,-6.239124 0.9336,-12.097094 0.9336,-18.29492 a 6.3760948,6.3760948 0 0 0 -0.002,-0.185547 c -0.11253,-3.851962 -2.77493,-8.184697 -6.5,-9.869141 -4.83399,-2.190414 -10.24724,-0.285617 -13.29101,3.554688 -1.73228,-3.530386 -5.21339,-6.17239 -9.1875,-6.351562 z"
     style="fill:#002a7a;fill-opacity:1" />
  <path
     d="m 270.18089,33.327546 c 0.861,-5.623709 0.861,-11.132502 0.861,-17.330102 -0.057,-1.951 -0.975,-3.443 -2.754,-4.2464 -3.156,-1.43461 -6.657,0.8608 -6.714,4.3038 -0.058,4.0169 -0.115,8.0338 -0.287,12.0507 -0.402,10.501402 -11.936,12.854102 -10.846,0.6887 0.459,-4.8203 1.607,-9.698 2.009,-14.5183 0.229,-2.5823 -1.722,-4.6481201 -4.304,-4.7628901 -2.41,-0.11477 -4.361,1.2624501 -4.993,3.6725901 -0.516,2.1232 -0.918,4.3612 -1.319,6.5418 -0.804,4.8203 -1.32,9.6406 -0.746,14.460902 2.238,17.2727 25.937,15.0921 29.093,-0.8608 z"
     fill="#ff6680"
     id="path10-6"
     sodipodi:nodetypes="cccccccccccc" />
  <path
     d="m 223.37753,39.495526 c -0.172,1.2624 -0.287,2.4675 -0.459,3.6152 -0.402,2.238 0.746,4.3612 2.869,5.1072 3.099,1.1477 6.255,-0.8034 6.714,-4.2464 0.746,-7.6322 0.861,-15.206899 -0.574,-24.216198 -0.574,-2.6971 -1.262,-5.3368 -2.697,-7.7469 -3.156,-5.3941401 -9.239,-6.8287501 -14.461,-3.4430701 -4.82,3.0987701 -8.034,9.0093701 -9.411,14.7477701 -1.492,6.254896 -1.033,12.567198 0,18.822098 0.115,0.5164 0.345,1.0903 0.631,1.5493 1.148,2.0085 3.616,2.8693 5.854,2.1233 2.238,-0.8034 3.385,-2.7545 3.041,-5.1646 -0.057,-0.2296 0,-0.4017 0,-0.6313 2.812,-0.1721 5.509,-0.3443 8.493,-0.5164 z m 0.172,-9.0094 c -3.271,0.1722 -6.312,0.3444 -9.354,0.5165 -0.573,-3.557798 0.919,-8.550298 3.157,-11.935898 4.992,-7.8043 5.508,5.0498 6.025,8.2633 0.057,1.032899 0.115,2.008496 0.172,3.156098 z"
     fill="#ff6680"
     id="path12-0"
     sodipodi:nodetypes="ccccccccccccccccccc" />
  <path
     sodipodi:type="inkscape:offset"
     inkscape:radius="9.1559477"
     inkscape:original="M 192.7793 9.2890625 C 190.50117 9.2621647 188.42455 10.833772 188.12305 13.373047 C 187.60605 17.734247 187.31961 22.151712 186.97461 26.570312 C 186.80261 28.062317 186.74622 29.555082 186.57422 31.333984 C 186.05722 30.645384 185.71278 30.243499 185.42578 29.841797 C 182.32678 25.250996 179.22827 20.661112 176.07227 16.070312 C 175.21127 14.750512 174.35077 13.42895 173.25977 12.28125 C 171.76777 10.67446 169.87459 10.273551 167.80859 11.019531 C 165.85759 11.650731 164.65234 13.371375 164.65234 15.609375 C 164.48034 24.216975 164.365 32.883828 164.25 41.548828 C 164.25 42.524328 164.42369 43.499434 165.05469 44.302734 C 166.20269 45.852134 167.80912 46.539612 169.70312 46.195312 C 171.65412 45.851013 172.97323 44.761647 173.49023 42.810547 C 173.66223 42.121947 173.71934 41.4335 173.77734 40.6875 C 173.89234 37.474 173.94945 34.202541 174.06445 30.931641 C 174.06445 30.816841 174.17933 30.702916 174.23633 30.416016 C 174.58033 30.817716 174.8673 31.161559 175.1543 31.505859 C 177.2773 34.432459 179.34244 37.415956 181.52344 40.285156 C 182.72844 41.891956 184.10542 43.441594 185.48242 44.933594 C 186.51542 46.023894 187.83613 46.712666 189.32812 46.884766 C 192.19712 47.171766 194.54905 45.277294 195.12305 42.121094 C 195.46705 40.284794 195.6405 38.390987 195.8125 36.554688 C 196.2145 31.217987 196.55698 25.881722 196.95898 20.544922 C 197.13098 18.536522 197.36156 16.471291 197.47656 14.462891 C 197.64856 12.454391 196.90341 10.846624 195.06641 9.8710938 C 194.32041 9.4837488 193.53867 9.2980284 192.7793 9.2890625 z "
     xlink:href="#path14-6"
     id="path209290"
     inkscape:href="#path14-6"
     d="m 169.87305,70.166016 c -4.81425,-0.05684 -9.54288,2.795486 -12.06446,7.064453 -0.35198,-0.429181 -0.46089,-0.722961 -0.88281,-1.169922 -3.57346,-3.819928 -10.36386,-5.271422 -15.08008,-3.648438 -5.46666,1.849089 -9.3613,7.755044 -9.36132,13.232422 -0.17079,8.587997 -0.2862,17.212339 -0.4004,25.816409 a 9.1568633,9.1568633 0 0 0 -0.002,0.12109 c 0,2.02046 0.40938,5.31162 2.67578,8.27735 2.83014,3.74382 8.68304,6.25583 13.55274,5.3789 2.5097,-0.45054 5.17019,-2.06238 7.32031,-4.19336 0.0357,0.0388 0.0758,0.0923 0.11133,0.13086 a 9.1568633,9.1568633 0 0 0 0.082,0.0879 c 2.38869,2.52119 5.79984,4.32973 9.44336,4.75 a 9.1568633,9.1568633 0 0 0 0.13672,0.0156 c 7.32867,0.73312 14.45836,-5.37604 15.71093,-12.22461 0.44674,-2.39769 0.62952,-4.55372 0.79883,-6.36133 a 9.1568633,9.1568633 0 0 0 0.0156,-0.16602 c 0.40673,-5.39948 0.75161,-10.734995 1.14843,-16.003902 2e-4,-0.0026 -1.9e-4,-0.0053 0,-0.0078 0.15239,-1.760282 0.37296,-3.800645 0.50782,-6.013672 0.38693,-4.660019 -2.63265,-10.988832 -7.23633,-13.433594 a 9.1568633,9.1568633 0 0 0 -0.0762,-0.03906 c -2.01117,-1.044257 -4.22285,-1.587571 -6.40039,-1.613281 z" />
  <path
     sodipodi:type="inkscape:offset"
     inkscape:radius="6.6479516"
     inkscape:original="M 192.7793 9.2890625 C 190.50117 9.2621647 188.42455 10.833772 188.12305 13.373047 C 187.60605 17.734247 187.31961 22.151712 186.97461 26.570312 C 186.80261 28.062317 186.74622 29.555082 186.57422 31.333984 C 186.05722 30.645384 185.71278 30.243499 185.42578 29.841797 C 182.32678 25.250996 179.22827 20.661112 176.07227 16.070312 C 175.21127 14.750512 174.35077 13.42895 173.25977 12.28125 C 171.76777 10.67446 169.87459 10.273551 167.80859 11.019531 C 165.85759 11.650731 164.65234 13.371375 164.65234 15.609375 C 164.48034 24.216975 164.365 32.883828 164.25 41.548828 C 164.25 42.524328 164.42369 43.499434 165.05469 44.302734 C 166.20269 45.852134 167.80912 46.539612 169.70312 46.195312 C 171.65412 45.851013 172.97323 44.761647 173.49023 42.810547 C 173.66223 42.121947 173.71934 41.4335 173.77734 40.6875 C 173.89234 37.474 173.94945 34.202541 174.06445 30.931641 C 174.06445 30.816841 174.17933 30.702916 174.23633 30.416016 C 174.58033 30.817716 174.8673 31.161559 175.1543 31.505859 C 177.2773 34.432459 179.34244 37.415956 181.52344 40.285156 C 182.72844 41.891956 184.10542 43.441594 185.48242 44.933594 C 186.51542 46.023894 187.83613 46.712666 189.32812 46.884766 C 192.19712 47.171766 194.54905 45.277294 195.12305 42.121094 C 195.46705 40.284794 195.6405 38.390987 195.8125 36.554688 C 196.2145 31.217987 196.55698 25.881722 196.95898 20.544922 C 197.13098 18.536522 197.36156 16.471291 197.47656 14.462891 C 197.64856 12.454391 196.90341 10.846624 195.06641 9.8710938 C 194.32041 9.4837488 193.53867 9.2980284 192.7793 9.2890625 z "
     xlink:href="#path14-6"
     id="path236873"
     inkscape:href="#path14-6"
     d="m 169.84375,72.673828 c -5.30766,-0.06267 -10.46163,4.082987 -11.26172,9.726563 v 0.002 c -2.1e-4,0.0015 -0.002,0.0024 -0.002,0.0039 -0.8455,-1.297665 -1.88562,-2.941718 -3.48438,-4.632812 -3.00169,-3.212012 -8.45516,-4.375832 -12.43945,-2.994141 -4.50392,1.51327 -7.66404,6.275142 -7.66406,10.865234 -0.17113,8.593613 -0.28598,17.228719 -0.40039,25.849609 a 6.6486164,6.6486164 0 0 0 -0.002,0.0879 c 0,1.73798 0.35207,4.40765 2.18555,6.78711 2.37209,3.12541 7.04575,5.1291 11.08789,4.40234 2.92999,-0.52287 6.03145,-2.71711 7.8125,-5.54492 0.64311,0.73731 1.28606,1.57184 1.91016,2.24805 a 6.6486164,6.6486164 0 0 0 0.0586,0.0645 c 2.01734,2.12924 4.85599,3.63013 7.91016,3.98242 a 6.6486164,6.6486164 0 0 0 0.0996,0.0117 c 6.10809,0.61102 11.93094,-4.34552 12.99609,-10.18359 0.41822,-2.24321 0.59766,-4.32658 0.76758,-6.14063 a 6.6486164,6.6486164 0 0 0 0.01,-0.11914 c 0.40558,-5.38419 0.75002,-10.7224 1.14844,-16.011715 0.15732,-1.823383 0.37983,-3.865896 0.50977,-6.027344 0.33147,-3.933697 -2.0662,-8.974189 -5.91406,-11.017578 a 6.6486164,6.6486164 0 0 0 -0.0547,-0.0293 c -1.66462,-0.864316 -3.48436,-1.308954 -5.27344,-1.330078 z"
     style="fill:#002a7a;fill-opacity:1" />
  <path
     d="m 174.23578,30.415446 c 0.344,0.4017 0.631,0.746 0.918,1.0903 2.123,2.9266 4.189,5.9106 6.37,8.7798 1.205,1.6068 2.582,3.1562 3.959,4.6482 1.033,1.0903 2.353,1.7789 3.845,1.951 2.869,0.287 5.222,-1.6067 5.796,-4.7629 0.344,-1.8363 0.516,-3.73 0.688,-5.5663 0.402,-5.3367 0.746,-10.673403 1.148,-16.010203 0.172,-2.0084 0.402,-4.0743 0.517,-6.0827 0.172,-2.0085 -0.574,-3.61524 -2.411,-4.5907701 -2.984,-1.54938 -6.541,0.11477 -6.943,3.5004701 -0.517,4.3612 -0.803,8.7798 -1.148,13.1984 -0.172,1.492004 -0.229,2.984001 -0.401,4.762903 -0.517,-0.6886 -0.861,-1.0903 -1.148,-1.492002 -3.099,-4.590801 -6.198,-9.181501 -9.354,-13.772301 -0.861,-1.3198 -1.721,-2.6396 -2.812,-3.7873 -1.492,-1.60679 -3.385,-2.00848 -5.451,-1.2625 -1.951,0.6312 -3.156,2.3528 -3.156,4.5908 -0.172,8.6076 -0.287,17.272703 -0.402,25.937703 0,0.9755 0.172,1.9511 0.803,2.7544 1.148,1.5494 2.755,2.238 4.649,1.8937 1.951,-0.3443 3.27,-1.4346 3.787,-3.3857 0.172,-0.6886 0.229,-1.3772 0.287,-2.1232 0.115,-3.2135 0.172,-6.4844 0.287,-9.7553 0,-0.1148 0.115,-0.2296 0.172,-0.5165 z"
     fill="#fa9e00"
     id="path14-6"
     sodipodi:nodetypes="ccccccccccccccccccccccccc" />
  <path
     style="opacity:1;mix-blend-mode:normal;fill:url(#linearGradient111068);fill-opacity:1;fill-rule:nonzero;stroke:url(#linearGradient111074);stroke-width:0.149589;stroke-opacity:1"
     sodipodi:type="inkscape:offset"
     inkscape:radius="0"
     inkscape:original="M 12.787109 6.9472656 C 10.847811 7.139282 9.4502725 8.0856662 8.6640625 9.7539062 C 8.0498225 11.057246 7.9032244 11.924011 7.7402344 15.238281 C 7.6613444 16.842621 7.3300563 22.496081 7.0039062 27.802734 C 6.0454262 43.397846 6.0700912 42.871511 6.2382812 44.212891 C 6.3228712 44.887491 6.4875756 45.667812 6.6035156 45.945312 C 7.0717456 47.065933 8.3169656 48.074023 9.9160156 48.626953 C 10.843086 48.947533 12.893778 48.976004 13.992188 48.683594 C 15.912078 48.172484 17.210707 47.143201 17.748047 45.707031 C 18.077177 44.827331 18.143979 44.056669 18.542969 36.480469 C 18.640459 34.629309 18.728181 33.099231 18.738281 33.082031 C 18.748371 33.064821 19.156344 33.162188 19.646484 33.298828 C 21.051426 33.690528 24.09805 33.647351 25.625 33.212891 C 28.16521 32.490131 30.430976 31.045323 32.472656 28.847656 C 35.442856 25.650528 36.658606 21.100839 35.628906 17.042969 C 34.754416 13.596719 31.392955 10.41982 27.515625 9.375 C 25.990175 8.96394 22.983963 8.9366094 21.361328 9.3183594 C 20.744275 9.4635294 20.08746 9.6170562 19.902344 9.6601562 C 19.65674 9.7173462 19.566406 9.6699413 19.566406 9.4882812 C 19.566406 9.3513612 19.238809 8.9126287 18.837891 8.5117188 C 18.003851 7.6776787 17.002737 7.2953925 14.904297 7.0078125 C 14.140362 6.90312 13.433542 6.8832602 12.787109 6.9472656 z M 20.253906 16.195312 C 20.909016 15.921632 22.188137 15.929951 23.017578 16.212891 C 23.99846 16.547491 25.070756 17.432517 25.816406 18.523438 C 26.436636 19.430917 26.470859 19.534771 26.380859 20.212891 C 26.247149 21.220861 25.548263 23.129448 24.939453 24.148438 C 24.259833 25.285948 23.164774 26.399356 22.375 26.757812 C 22.022813 26.917661 21.465814 27.046722 21.136719 27.044922 C 20.465767 27.041193 19.500014 26.594309 19.28125 26.185547 C 19.148174 25.936891 19.378142 20.582066 19.654297 17.503906 C 19.750413 16.432556 19.767247 16.398653 20.253906 16.195312 z "
     xlink:href="#path29559"
     id="path113612"
     inkscape:href="#path29559"
     d="m -10.224609,76.980469 c -1.939299,0.192016 -3.336837,1.1384 -4.123047,2.80664 -0.61424,1.30334 -0.760838,2.170105 -0.923828,5.484375 -0.07889,1.60434 -0.410178,7.259754 -0.736328,12.566407 -0.95848,15.595109 -0.933815,15.066819 -0.765626,16.408199 0.08459,0.6746 0.247342,1.45493 0.363282,1.73243 0.46823,1.12062 1.715403,2.12871 3.314453,2.68164 0.92707,0.32058 2.977761,0.34905 4.0761718,0.0566 1.9198899,-0.51111 3.2185193,-1.5404 3.7558593,-2.97657 0.32913,-0.8797 0.3939788,-1.65036 0.7929688,-9.22656 0.09749,-1.85116 0.1871656,-3.38124 0.1972656,-3.39844 0.01009,-0.0172 0.4180631,0.0821 0.9082031,0.21875 1.404942,0.3917 4.4515656,0.34657 5.9785156,-0.0879 2.5402101,-0.72276 4.8040232,-2.16756 6.8457032,-4.365231 2.9701996,-3.197128 4.1879036,-7.746817 3.1582036,-11.804687 -0.87449,-3.44625 -4.235952,-6.623149 -8.1132818,-7.667969 -1.52545,-0.41106 -4.53166183,-0.43839 -6.1542968,-0.05664 -0.617053,0.145171 -1.2738684,0.298697 -1.4589844,0.341797 -0.245604,0.05719 -0.3359375,0.01174 -0.3359375,-0.169921 0,-0.13692 -0.3295508,-0.577606 -0.7304687,-0.978516 -0.83404,-0.83404 -1.8332007,-1.216326 -3.9316407,-1.503906 -0.763935,-0.104693 -1.4707546,-0.124553 -2.1171871,-0.06055 z m 7.4667965,9.248047 c 0.65511,-0.27368 1.93423088,-0.265362 2.76367188,0.01758 0.98088199,0.3346 2.05317812,1.219627 2.79882812,2.310547 0.62023,0.90748 0.6544531,1.011333 0.5644531,1.689453 -0.13371,1.00797 -0.8325962,2.916557 -1.4414062,3.935547 -0.67962,1.13751 -1.77467915,2.250919 -2.56445315,2.609375 -0.352187,0.159849 -0.90918625,0.288909 -1.23828125,0.287109 -0.670952,-0.0037 -1.6367047,-0.450613 -1.8554688,-0.859375 -0.133076,-0.248656 0.096892,-5.603481 0.3730469,-8.681641 0.096116,-1.07135 0.1129504,-1.105253 0.5996094,-1.308593 z" />
  <path
     style="opacity:1;mix-blend-mode:normal;fill:url(#linearGradient148218);fill-opacity:1;fill-rule:nonzero;stroke:url(#linearGradient280528);stroke-width:0.149589;stroke-opacity:1"
     sodipodi:type="inkscape:offset"
     inkscape:radius="6.091434"
     inkscape:original="M 12.787109 6.9472656 C 10.847811 7.139282 9.4502725 8.0856662 8.6640625 9.7539062 C 8.0498225 11.057246 7.9032244 11.924011 7.7402344 15.238281 C 7.6613444 16.842621 7.3300563 22.496081 7.0039062 27.802734 C 6.0454262 43.397846 6.0700912 42.871511 6.2382812 44.212891 C 6.3228712 44.887491 6.4875756 45.667812 6.6035156 45.945312 C 7.0717456 47.065933 8.3169656 48.074023 9.9160156 48.626953 C 10.843086 48.947533 12.893778 48.976004 13.992188 48.683594 C 15.912078 48.172484 17.210707 47.143201 17.748047 45.707031 C 18.077177 44.827331 18.143979 44.056669 18.542969 36.480469 C 18.640459 34.629309 18.728181 33.099231 18.738281 33.082031 C 18.748371 33.064821 19.156344 33.162188 19.646484 33.298828 C 21.051426 33.690528 24.09805 33.647351 25.625 33.212891 C 28.16521 32.490131 30.430976 31.045323 32.472656 28.847656 C 35.442856 25.650528 36.658606 21.100839 35.628906 17.042969 C 34.754416 13.596719 31.392955 10.41982 27.515625 9.375 C 25.990175 8.96394 22.983963 8.9366094 21.361328 9.3183594 C 20.744275 9.4635294 20.08746 9.6170562 19.902344 9.6601562 C 19.65674 9.7173462 19.566406 9.6699413 19.566406 9.4882812 C 19.566406 9.3513612 19.238809 8.9126287 18.837891 8.5117188 C 18.003851 7.6776787 17.002737 7.2953925 14.904297 7.0078125 C 14.140362 6.90312 13.433542 6.8832602 12.787109 6.9472656 z M 20.253906 16.195312 C 20.909016 15.921632 22.188137 15.929951 23.017578 16.212891 C 23.99846 16.547491 25.070756 17.432517 25.816406 18.523438 C 26.436636 19.430917 26.470859 19.534771 26.380859 20.212891 C 26.247149 21.220861 25.548263 23.129448 24.939453 24.148438 C 24.259833 25.285948 23.164774 26.399356 22.375 26.757812 C 22.022813 26.917661 21.465814 27.046722 21.136719 27.044922 C 20.465767 27.041193 19.500014 26.594309 19.28125 26.185547 C 19.148174 25.936891 19.378142 20.582066 19.654297 17.503906 C 19.750413 16.432556 19.767247 16.398653 20.253906 16.195312 z "
     xlink:href="#path29559"
     id="path148197"
     inkscape:href="#path29559"
     d="m -10.824219,70.917969 c -3.606717,0.357112 -7.439001,2.888787 -9.033203,6.271484 -0.898889,1.90733 -1.328814,4.341998 -1.498047,7.783203 -0.07229,1.470178 -0.407034,7.197936 -0.732422,12.492188 -0.479178,7.796546 -0.712436,11.536026 -0.810547,13.638676 -0.09811,2.10264 0.01284,3.36412 0.08008,3.90039 0.132449,1.05627 -0.113043,1.16777 0.787109,3.32226 1.450668,3.4719 4.109628,5.11126 6.945312,6.0918 3.443955,1.19092 4.618097,0.9881 7.632813,0.18555 3.2246452,-0.85846 6.56316393,-3.17012 7.89453125,-6.72852 0.32312708,-0.86366 0.60974775,-2.26436 0.73437495,-3.7168 0.077436,-0.90245 0.1796731,-2.90364 0.2714844,-4.55078 0.904356,-0.13392 1.7530823,-0.1944 2.8339844,-0.50195 3.6791663,-1.04683 6.976831,-3.21081 9.640625,-6.07813 4.366492,-4.700096 6.177893,-11.22947 4.599609,-17.449215 C 16.951195,79.389822 12.106458,75.149161 6.0878906,73.527344 3.2762476,72.769696 1.0584057,72.793101 -1.4726562,73.21875 -3.2462402,72.07589 -5.315031,71.275319 -7.28125,71.005859 c -1.1620175,-0.159248 -2.3403191,-0.20697 -3.542969,-0.08789 z m 8.9824221,20.068359 c 1.00060788,0.0056 1.12147732,0.144405 1.42968752,0.28711 0.14269496,0.06607 0.35097512,0.05476 0.63476563,0.220703 -0.3893479,0.236054 -0.69525146,0.381557 -0.6328125,0.355468 -1.98772015,0.830394 -0.60359785,0.485214 -1.55078125,0.16211 -0.8416453,-0.287104 -0.3401803,-0.129514 -0.2636719,-0.01758 0.278484,0.407459 0.1347685,0.422317 -0.1992187,-0.578125 -0.05231,-0.156693 -0.00654,-0.149485 -0.039063,-0.308594 0.079362,-0.01867 0.00561,-0.12446 0.6210937,-0.121094 z m 4.1738281,4.009766 c 0.042968,0.262803 0.017457,0.367627 -0.00781,0.43164 -8.62e-5,-0.06775 -0.0011,-0.07211 0,-0.162109 7.657e-4,-0.06257 0.00648,-0.198167 0.00781,-0.269531 z" />
  <path
     style="opacity:1;mix-blend-mode:normal;fill:url(#linearGradient148193);fill-opacity:1;fill-rule:nonzero;stroke:url(#linearGradient148195);stroke-width:0.149589;stroke-opacity:1"
     d="m 9.9155806,48.626446 c -1.59905,-0.55293 -2.84462,-1.56128 -3.31285,-2.6819 -0.11594,-0.2775 -0.28001,-1.05647 -0.3646,-1.73107 -0.16819,-1.34138 -0.19276,-0.81483 0.76572,-16.409942 0.32615,-5.306653 0.65756,-10.961103 0.73645,-12.565443 0.16299,-3.31427 0.30901,-4.1818 0.92325,-5.4851401 1.04828,-2.22432 3.1852404,-3.16448 6.2409804,-2.74571 2.09844,0.28758 3.09849,0.67008 3.93253,1.50412 0.400918,0.40091 0.728941,0.84096 0.728941,0.97788 0,0.18166 0.09097,0.22777 0.336574,0.17058 0.185116,-0.0431 0.841436,-0.19714 1.458489,-0.34231 1.622635,-0.38175 4.629157,-0.35376 6.154607,0.0573 3.87733,1.0448201 7.23903,4.2220401 8.11352,7.6682901 1.0297,4.05787 -0.1873,8.6079 -3.1575,11.805028 -2.04168,2.197667 -4.30714,3.641637 -6.84735,4.364397 -1.52695,0.43446 -4.572236,0.4789 -5.977178,0.0872 -0.49014,-0.13664 -0.899413,-0.23435 -0.909503,-0.21714 -0.0101,0.0172 -0.0981,1.54588 -0.19559,3.39704 -0.39899,7.5762 -0.46549,8.34845 -0.79462,9.22815 -0.53734,1.43617 -1.83462,2.46422 -3.75451,2.97533 -1.09841,0.29241 -3.15029,0.26388 -4.0773604,-0.0567 z M 22.375378,26.758387 c 0.789774,-0.358456 1.884714,-1.473196 2.564334,-2.610706 0.60881,-1.01899 1.308,-2.92763 1.44171,-3.9356 0.09,-0.67812 0.0554,-0.78134 -0.56483,-1.68882 -0.74565,-1.09092 -1.81842,-1.97667 -2.799302,-2.31127 -0.829441,-0.28294 -2.108799,-0.29088 -2.763909,-0.0172 -0.486659,0.20334 -0.502299,0.23755 -0.598415,1.3089 -0.276155,3.07816 -0.506465,8.433241 -0.373389,8.681897 0.218764,0.408762 1.184153,0.856339 1.855105,0.860068 0.329095,0.0018 0.886509,-0.127458 1.238696,-0.287307 z"
     id="path29559"
     sodipodi:nodetypes="csssssssssssssssssssccsssssssscss" />
  <path
     style="fill:#0fe6df;fill-opacity:1;stroke-width:0.149589"
     sodipodi:type="inkscape:offset"
     inkscape:radius="0.00032832831"
     inkscape:original="M 34.691406 64.457031 C 33.558442 64.439196 32.543071 64.57816 31.927734 64.875 C 29.871122 65.8671 28.839366 68.185083 28.785156 71.939453 C 28.765679 73.288343 28.315586 80.832403 27.361328 95.789062 C 27.105828 99.793643 27.137565 102.13025 27.458984 103.04492 C 27.915057 104.34277 29.202101 105.50991 30.773438 106.05273 C 31.302458 106.23547 32.000783 106.32613 32.90625 106.32812 C 35.761084 106.33472 37.743615 105.313 38.630859 103.375 C 39.037704 102.48633 39.098805 101.87152 39.40625 95.638672 C 39.495532 93.828652 39.60801 91.935821 39.65625 91.431641 L 39.744141 90.515625 L 40.587891 90.755859 C 41.192953 90.928509 42.047804 90.996141 43.601562 90.994141 C 45.669313 90.991021 45.839082 90.967148 47.244141 90.486328 C 50.782302 89.275558 54.078766 86.375459 55.666016 83.074219 C 56.676276 80.973039 56.841891 80.168685 56.837891 77.390625 C 56.834677 75.180105 56.804436 74.911767 56.4375 73.898438 C 55.875123 72.345398 55.203324 71.290577 54.013672 70.091797 C 52.272989 68.337757 50.034069 67.111871 47.791016 66.681641 C 46.199414 66.376361 43.604363 66.463583 42 66.876953 L 40.621094 67.232422 L 40.445312 66.808594 C 40.176034 66.158494 39.019256 65.226046 38.166016 64.972656 C 37.076084 64.648956 35.824371 64.474866 34.691406 64.457031 z M 41.298828 73.634766 C 42.022245 73.332506 43.1648 73.37882 44.158203 73.75 C 45.162708 74.12533 46.645766 75.496399 47.179688 76.542969 L 47.507812 77.185547 L 47.199219 78.410156 C 46.541534 81.022526 44.950962 83.434166 43.386719 84.191406 C 42.603979 84.570326 41.577898 84.58163 40.984375 84.21875 C 40.078182 83.6647 40.101713 83.865557 40.376953 79.148438 C 40.691454 73.758468 40.669395 73.897766 41.298828 73.634766 z "
     xlink:href="#path29598"
     id="path280530"
     inkscape:href="#path29598"
     d="m 11.677734,134.49219 c -1.132964,-0.0178 -2.1463821,0.11917 -2.7617184,0.41601 -2.056612,0.9921 -3.0883681,3.31009 -3.1425781,7.06446 -0.019477,1.34889 -0.4695701,8.89295 -1.4238281,23.84961 -0.2555,4.00458 -0.2237628,6.34118 0.097656,7.25585 0.456073,1.29785 1.7431162,2.46695 3.3144532,3.00977 0.5290199,0.18274 1.2273455,0.27144 2.1328124,0.27344 2.8548338,0.007 4.8373658,-1.01513 5.7246098,-2.95313 0.406845,-0.88867 0.467945,-1.50153 0.77539,-7.73437 0.08928,-1.81002 0.20176,-3.70481 0.25,-4.20899 l 0.08789,-0.91601 0.84375,0.24023 c 0.605062,0.17265 1.459913,0.24028 3.013672,0.23828 2.067751,-0.003 2.237519,-0.027 3.642578,-0.50781 3.538161,-1.21077 6.832672,-4.11087 8.419922,-7.41211 1.01026,-2.10118 1.177828,-2.90553 1.173828,-5.68359 -0.0032,-2.21052 -0.03541,-2.47886 -0.402344,-3.49219 C 32.861451,142.3786 32.189652,141.32378 31,140.125 c -1.740683,-1.75404 -3.97765,-2.97993 -6.220703,-3.41016 -1.591602,-0.30528 -4.186653,-0.21805 -5.791016,0.19532 l -1.378906,0.35546 -0.175781,-0.42382 c -0.269278,-0.6501 -1.42801,-1.58255 -2.28125,-1.83594 -1.089932,-0.3237 -2.341645,-0.49584 -3.47461,-0.51367 z m 6.607422,9.17578 c 0.723417,-0.30226 1.867925,-0.25595 2.861328,0.11523 1.004505,0.37533 2.487563,1.7464 3.021485,2.79297 l 0.328125,0.64258 -0.308594,1.22461 c -0.657685,2.61237 -2.248257,5.02401 -3.8125,5.78125 -0.78274,0.37892 -1.808821,0.39218 -2.402344,0.0293 -0.906193,-0.55405 -0.882662,-0.35515 -0.607422,-5.07227 0.314501,-5.38997 0.290489,-5.25067 0.919922,-5.51367 z" />
  <path
     id="path280631"
     style="fill:#002a7a;stroke-width:0.149589"
     d="m 34.771789,59.294736 c -1.597586,-0.0252 -3.034257,-0.061 -5.087891,0.92969 -2.14143,1.03302 -3.872772,2.96981 -4.796875,5.04688 -0.924104,2.07706 -1.231914,4.25902 -1.265625,6.59375 -0.0069,0.47847 -0.458308,8.64618 -1.41211,23.5957 -0.132678,2.07954 -0.196902,3.7626 -0.177734,5.183594 0.01917,1.421 -0.04241,2.40856 0.55664,4.11329 1.141911,3.24954 3.588371,5.1719 6.5,6.17773 1.367146,0.47225 2.569809,0.55391 3.806641,0.55664 4.092394,0.009 8.618417,-2.00619 10.431641,-5.9668 0.349715,-0.76388 0.736775,-2.19667 0.867188,-3.49804 0.127795,-1.27526 0.214894,-3.002994 0.363281,-6.009774 1.622013,-0.0819 3.146788,-0.23153 4.359375,-0.64648 4.998983,-1.71067 9.117707,-5.3069 11.402344,-10.0586 1.136641,-2.36403 1.687894,-4.94254 1.683593,-7.92968 -0.0033,-2.26005 -0.277559,-4.04538 -0.710937,-5.24219 -0.755762,-2.08709 -2.041463,-4.10167 -3.613281,-5.68555 -2.451422,-2.47023 -5.512589,-4.19328 -8.914063,-4.8457 -6.141637,-0.0285 -4.065423,-2.11266 -13.992187,-2.31446 z"
     sodipodi:nodetypes="csssssssssscsscsscc" />
  <path
     style="fill:#0fe6df;fill-opacity:1;stroke-width:0.149589"
     d="m 30.773734,106.0536 c -1.571337,-0.54282 -2.858689,-1.7116 -3.314762,-3.00945 -0.321419,-0.91467 -0.35272,-3.250474 -0.09722,-7.255054 0.954258,-14.95666 1.404777,-22.50077 1.424254,-23.84966 0.05421,-3.75437 1.085417,-6.07319 3.142029,-7.06529 1.230673,-0.59368 4.057263,-0.5492 6.237126,0.0982 0.85324,0.25339 2.011681,1.18578 2.280959,1.83588 l 0.175424,0.42351 1.378134,-0.35509 c 1.604363,-0.41337 4.199397,-0.50114 5.790999,-0.19586 2.243053,0.43023 4.481489,1.65756 6.222172,3.4116 1.189652,1.19878 1.861303,2.25372 2.42368,3.80676 0.366936,1.01333 0.397565,1.28008 0.400779,3.4906 0.004,2.77806 -0.161994,3.58318 -1.172254,5.68436 -1.58725,3.30124 -4.881779,6.20148 -8.41994,7.41225 -1.405059,0.48082 -1.575168,0.50452 -3.642919,0.50764 -1.553759,0.002 -2.408634,-0.0651 -3.013696,-0.23775 l -0.844662,-0.24102 -0.08771,0.91669 c -0.04824,0.50418 -0.160754,2.39762 -0.250036,4.20764 -0.307445,6.232844 -0.368954,6.846084 -0.775799,7.734754 -0.887244,1.938 -2.868855,2.96077 -5.723689,2.95418 -0.905467,-0.002 -1.603853,-0.0921 -2.132873,-0.27484 z M 43.386719,84.191666 c 1.564243,-0.75724 3.155161,-3.16991 3.812846,-5.78228 l 0.308187,-1.22414 -0.327936,-0.64281 c -0.533922,-1.04657 -2.01777,-2.41803 -3.022275,-2.79336 -0.993403,-0.37118 -2.136077,-0.41705 -2.859494,-0.11479 -0.629433,0.263 -0.606207,0.1239 -0.920708,5.51387 -0.27524,4.71712 -0.299139,4.51745 0.607054,5.0715 0.593523,0.36288 1.619586,0.35092 2.402326,-0.028 z"
     id="path29598"
     sodipodi:nodetypes="csssssscsssscsscscssscccsscsssssss" />
  <path
     style="fill:#002a7a;fill-opacity:1;stroke-width:0.149589"
     sodipodi:type="inkscape:offset"
     inkscape:radius="5.5225592"
     inkscape:original="M 45.761719 8.2265625 C 44.665308 8.3962336 43.744337 8.7720981 43.101562 9.3378906 C 41.503131 10.744911 41.109963 12.862069 41.5 17.949219 C 41.58133 19.00999 41.750239 23.27877 41.875 27.433594 C 42.385386 44.430526 42.414461 44.981014 42.919922 46.677734 C 43.376263 48.209564 45.130796 49.600806 47.113281 50.003906 C 48.800873 50.347036 51.295865 49.861738 52.669922 48.923828 C 53.068309 48.651898 53.607415 48.114636 53.869141 47.728516 C 54.624213 46.614586 54.711771 45.854091 54.523438 42.050781 C 54.353214 38.613171 53.869298 25.548158 53.615234 17.560547 C 53.436979 11.9563 53.24183 10.835579 52.257812 9.7148438 C 51.624931 8.9940317 50.850213 8.6120574 49.478516 8.3496094 C 48.131087 8.0918034 46.85813 8.0568914 45.761719 8.2265625 z "
     xlink:href="#path29637"
     id="path149860"
     inkscape:href="#path29637"
     d="m 24.695312,72.638672 c -0.93269,-0.03045 -1.861906,0.02058 -2.789062,0.164062 -1.852639,0.286699 -3.768754,0.930869 -5.464844,2.423828 -1.66184,1.462836 -2.916726,3.847875 -3.328125,6.060547 -0.411399,2.212673 -0.341155,4.37436 -0.130859,7.117188 0.03955,0.515876 0.237649,5.109731 0.361328,9.228515 0.255234,8.499828 0.386756,12.865048 0.529297,15.492188 0.142541,2.62714 0.451071,4.1849 0.742187,5.16211 1.30095,4.36698 4.596334,6.39141 8.386719,7.16211 3.725404,0.75747 6.5571,0.26111 9.769531,-1.93164 1.279339,-0.87325 1.755868,-1.32523 2.658204,-2.65625 v -0.002 c 0.649257,-0.95839 1.422076,-2.7881 1.595703,-4.29493 0.173696,-1.50743 0.09911,-2.79186 0.002,-4.7539 -0.161609,-3.26364 -0.651234,-16.436428 -0.904297,-24.392581 -0.09079,-2.854437 -0.153397,-4.628822 -0.455078,-6.371094 -0.301681,-1.742272 -1.296726,-3.83317 -2.271485,-4.943359 -1.472201,-1.676743 -3.931399,-2.767344 -5.892578,-3.142578 -0.941269,-0.180095 -1.875903,-0.291813 -2.808594,-0.322266 z" />
  <path
     style="fill:#0fe6df;fill-opacity:1;stroke-width:0.149589"
     d="m 47.112706,50.003826 c -1.982485,-0.4031 -3.735947,-1.79427 -4.192288,-3.3261 -0.505461,-1.69672 -0.535423,-2.24808 -1.045809,-19.245012 -0.124761,-4.154824 -0.293382,-8.422129 -0.374712,-9.4829 -0.390037,-5.08715 0.0042,-7.205667 1.602631,-8.6126871 1.285548,-1.131585 3.680989,-1.502283 6.375846,-0.986671 1.371697,0.262448 2.147524,0.642998 2.780406,1.36381 0.984018,1.1207351 1.177694,2.2413521 1.355949,7.8455991 0.254064,7.987611 0.739241,21.052401 0.909465,24.490011 0.188334,3.80331 0.100653,4.56407 -0.654419,5.678 -0.261726,0.38612 -0.80182,0.92452 -1.200207,1.19645 -1.374057,0.93791 -3.86927,1.42263 -5.556862,1.0795 z"
     id="path29637"
     sodipodi:nodetypes="ssssssssssss" />
  <path
     style="fill:#002a7a;fill-opacity:1;stroke-width:0.149589"
     sodipodi:type="inkscape:offset"
     inkscape:radius="5.7972794"
     inkscape:original="M 70.847656 64.876953 C 68.40498 64.880253 67.080864 66.264051 66.675781 69.238281 C 66.548933 70.169771 66.549312 71.543708 66.677734 74.673828 C 66.772248 76.977498 66.950913 83.372426 67.074219 88.884766 C 67.29507 98.757746 67.447225 101.95618 67.761719 103.35938 C 68.079934 104.77917 69.471671 106.27912 70.78125 106.61328 C 71.127454 106.70161 71.713752 106.9085 72.083984 107.07227 L 72.083984 107.07031 C 72.64114 107.31682 72.964579 107.35481 73.955078 107.28711 C 74.613268 107.24214 78.112377 107.00127 81.732422 106.75195 C 85.352467 106.50263 89.425686 106.23676 90.783203 106.16016 C 93.704247 105.9953 94.610684 105.76693 95.248047 105.04102 C 95.809028 104.4021 95.990299 103.77607 96.111328 102.04688 C 96.272303 99.746961 95.783355 97.666727 94.851562 96.685547 C 93.87855 95.660927 92.827313 95.465156 89.900391 95.759766 C 87.129724 96.038656 76.882964 96.648586 76.775391 96.541016 C 76.730943 96.496566 76.657058 95.115536 76.611328 93.472656 L 76.527344 90.486328 L 78.083984 90.398438 C 78.939444 90.350357 81.960383 90.257859 84.798828 90.193359 C 89.567185 90.085029 90.000628 90.054444 90.484375 89.777344 C 91.236508 89.346514 91.63864 88.427825 91.84375 86.671875 C 92.117843 84.325355 91.714707 82.416017 90.757812 81.523438 C 89.897619 80.721067 89.840072 80.715663 82.830078 80.876953 C 79.276198 80.958753 76.347422 81.003663 76.320312 80.976562 C 76.293202 80.949453 76.226918 79.680017 76.173828 78.154297 L 76.076172 75.378906 L 76.511719 75.296875 C 76.750656 75.250825 79.570621 75.170894 82.779297 75.121094 C 93.480054 74.955114 93.639515 74.942514 94.449219 74.083984 C 95.111201 73.382074 95.287593 72.679487 95.376953 70.398438 C 95.497727 67.315417 95.030174 66.060772 93.474609 65.289062 L 92.652344 64.880859 L 83.328125 65.054688 C 76.138058 65.189457 73.763944 65.189764 72.964844 65.052734 C 72.394815 64.954974 71.442613 64.876143 70.847656 64.876953 z "
     xlink:href="#path29676"
     id="path288922"
     inkscape:href="#path29676"
     d="m 47.828125,129.11328 c -2.314651,0.003 -5.159386,0.89876 -7.03125,2.85547 -1.871864,1.95671 -2.57665,4.31462 -2.876953,6.51953 -0.229894,1.68821 -0.178126,3.25795 -0.04687,6.45703 0.08877,2.1636 0.271783,8.61418 0.394531,14.10157 0.221556,9.90451 0.187791,12.76497 0.826172,15.61328 0.458282,2.04474 1.399595,3.47471 2.544922,4.70898 1.145327,1.23427 2.505683,2.33531 4.697266,2.89453 -0.235754,-0.0601 0.439223,0.16408 0.390624,0.14258 1.120604,0.4958 3.394129,0.78033 4.609376,0.69727 0.667836,-0.0456 4.162876,-0.28582 7.783203,-0.53516 3.604513,-0.24825 7.723123,-0.51705 8.978515,-0.58789 1.577199,-0.089 2.75787,-0.15845 4.173828,-0.51367 1.415959,-0.35523 3.301492,-1.408 4.320313,-2.56836 0.695611,-0.79226 1.473825,-2.13769 1.810547,-3.30469 0.336722,-1.167 0.409281,-2.09229 0.480468,-3.10937 0.235064,-3.35844 0.212138,-6.54407 -2.839843,-9.75782 -0.575636,-0.60616 -1.426797,-1.20266 -2.361328,-1.70312 0.563977,-1.3099 0.770645,-2.46885 0.908203,-3.64649 0.299632,-2.56516 0.397516,-5.24054 -1.066406,-7.76757 0.952725,-0.55318 1.917887,-1.28786 2.130859,-1.51368 0.817085,-0.86637 1.749924,-2.48679 2.083984,-3.81445 0.33406,-1.32766 0.370313,-2.3567 0.419922,-3.62305 0.07304,-1.86463 0.08485,-3.60833 -0.683594,-5.67187 -0.768257,-2.06304 -2.742759,-4.01814 -4.433593,-4.85742 h -0.002 L 72.21875,129.7207 a 5.7978591,5.7978591 0 0 0 -2.6875,-0.60351 l -9.326172,0.17578 c -7.165298,0.1343 -10.348486,-0.10656 -9.271484,0.0781 v 0.002 c -1.118391,-0.19181 -1.990011,-0.26129 -3.105469,-0.25977 z" />
  <path
     style="fill:#0fe6df;fill-opacity:1;stroke-width:0.149589"
     d="m 72.084383,107.07141 c -0.370232,-0.16377 -0.956406,-0.37005 -1.30261,-0.45838 -1.309579,-0.33416 -2.702314,-1.83483 -3.020529,-3.25463 -0.314494,-1.4032 -0.466337,-4.601534 -0.687188,-14.474514 -0.123306,-5.51234 -0.301523,-11.90725 -0.396037,-14.21092 -0.128422,-3.13012 -0.128948,-4.50344 -0.0021,-5.43493 0.405083,-2.97423 1.728887,-4.35836 4.171563,-4.36166 0.594957,-8.1e-4 1.548129,0.0785 2.118158,0.17626 0.7991,0.13703 3.171722,0.13777 10.361789,0.003 l 9.325372,-0.17451 0.822737,0.40816 c 1.555565,0.77171 2.022548,2.02631 1.901774,5.10933 -0.08936,2.28105 -0.266085,2.98269 -0.928067,3.6846 -0.809704,0.85853 -0.968537,0.87267 -11.669294,1.03865 -3.208676,0.0498 -6.02945,0.12817 -6.268387,0.17422 l -0.434431,0.0837 0.09653,2.77405 c 0.05309,1.52572 0.118711,2.79622 0.145821,2.82333 0.02711,0.0271 2.95701,-0.0176 6.51089,-0.0994 7.009994,-0.16129 7.067494,-0.1566 7.927687,0.64577 0.956894,0.89258 1.359237,2.80123 1.085144,5.14775 -0.20511,1.75595 -0.607307,2.67476 -1.35944,3.10559 -0.483747,0.2771 -0.916011,0.30882 -5.684368,0.41715 -2.838445,0.0645 -5.860731,0.15659 -6.716191,0.20467 l -1.555384,0.0874 0.08314,2.98704 c 0.04573,1.64288 0.119507,3.02342 0.163955,3.06787 0.107573,0.10757 10.355558,-0.50238 13.126225,-0.78127 2.926922,-0.29461 3.977058,-0.0981 4.950071,0.92652 0.931792,0.98118 1.420459,3.06124 1.259484,5.361154 -0.121029,1.72919 -0.301354,2.35533 -0.862335,2.99425 -0.637363,0.72591 -1.544376,0.95296 -4.46542,1.11782 -1.357517,0.0766 -5.430067,0.34328 -9.050112,0.5926 -3.620045,0.24932 -7.120419,0.49009 -7.778609,0.53506 -0.990499,0.0677 -1.312702,0.0305 -1.869858,-0.21601 z"
     id="path29676"
     sodipodi:nodetypes="csssscssccssscscsscssssscssssssssscc" />
  <path
     style="fill:#002a7a;fill-opacity:1"
     sodipodi:type="inkscape:offset"
     inkscape:radius="5.6118293"
     inkscape:original="M 66.677734 9.0429688 C 64.783734 9.0429688 62.310547 11.643366 62.310547 13.634766 C 62.310547 14.685566 63.772009 18.124031 65.849609 21.957031 C 67.796709 25.549331 69.477031 28.820509 69.582031 29.224609 C 69.687031 29.628709 68.212187 32.714984 66.304688 36.083984 C 62.497087 42.808984 61.934291 45.646672 63.962891 47.888672 C 65.382091 49.456672 68.107097 49.49575 69.529297 47.96875 C 70.125197 47.32975 71.550612 45.042672 72.695312 42.888672 C 73.840013 40.733672 74.909619 38.970703 75.074219 38.970703 C 75.238719 38.970703 76.310378 40.733672 77.455078 42.888672 C 78.599778 45.042672 80.025194 47.32975 80.621094 47.96875 C 82.043294 49.49575 84.7683 49.456672 86.1875 47.888672 C 88.21 45.653672 87.651719 42.80525 83.886719 36.15625 C 82.001919 32.82725 80.460938 29.843238 80.460938 29.523438 C 80.460937 29.203738 81.893331 26.410659 83.644531 23.318359 C 87.980131 15.662759 88.455381 14.187878 87.300781 11.955078 C 86.798081 10.983078 85.718744 9.8837187 84.902344 9.5117188 C 82.771544 8.5409187 80.815663 10.202153 77.851562 15.501953 C 76.525362 17.873353 75.260216 19.8125 75.041016 19.8125 C 74.821916 19.8125 73.785328 18.202575 72.736328 16.234375 C 70.304128 11.671075 68.089234 9.0429688 66.677734 9.0429688 z "
     xlink:href="#path29715"
     id="path167597"
     inkscape:href="#path29715"
     d="m 43.666016,73.464844 c -3.515283,0 -5.392895,1.644277 -6.960938,3.292968 -1.568043,1.648692 -3.017578,3.591282 -3.017578,6.910157 0,1.563531 0.279122,2.137774 0.527344,2.914062 0.248221,0.776289 0.550469,1.554443 0.910156,2.400391 0.719375,1.691896 1.668186,3.631733 2.779297,5.68164 0.955766,1.76334 1.847715,3.452536 2.498047,4.71875 0.02093,0.04075 0.0284,0.05777 0.04883,0.09766 -0.515169,1.057731 -1.213152,2.408931 -2.041016,3.871091 -2.01213,3.55384 -3.380766,6.23465 -3.980468,9.25782 -0.599703,3.02316 0.38155,6.89223 2.359374,9.07812 a 5.6123905,5.6123905 0 0 0 0.002,0 c 3.785119,4.18195 9.938481,4.31637 13.830078,0.14258 l 0.002,-0.002 c 0.743716,-0.79784 1.048553,-1.37195 1.439453,-2.00195 0.389809,0.62896 0.694279,1.20236 1.4375,2 l 0.0039,0.004 c 3.893341,4.17566 10.045194,4.04127 13.832032,-0.14258 1.97946,-2.18744 2.958579,-6.04061 2.367187,-9.05664 -0.591392,-3.01603 -1.952108,-5.68703 -3.945313,-9.20703 -0.829134,-1.46445 -1.54352,-2.79263 -2.107421,-3.871096 0.512111,-0.980105 1.130895,-2.136884 1.865234,-3.433593 2.200724,-3.885936 3.526426,-6.217087 4.345703,-8.763672 0.819278,-2.546585 0.365587,-6.10145 -0.58789,-7.945313 -1.215233,-2.349723 -2.142299,-3.64471 -5.056641,-4.972656 -2.753928,-1.254699 -7.023234,-0.350735 -9.171875,1.474609 -1.217624,1.034414 -2.171472,2.23101 -3.066406,3.554688 -0.460194,-0.661213 -0.889041,-1.544326 -1.375,-2.121094 -1.439649,-1.708669 -2.748817,-3.880859 -6.9375,-3.880859 z m 19.085937,24.308594 c 0.01624,0.04203 0.106882,0.07479 0.189453,0.392578 -0.03254,-0.06781 -0.10541,-0.208923 -0.128906,-0.259766 -0.05708,-0.123509 -0.08808,-0.204068 -0.06055,-0.132812 z m 0.189453,3.164062 c -0.07756,0.28534 -0.161592,0.32121 -0.179687,0.36914 -0.0316,0.0837 -0.0068,0.0173 0.04297,-0.0918 0.02386,-0.0523 0.101215,-0.20291 0.136718,-0.27734 z" />
  <path
     style="fill:#0fe6df;fill-opacity:1"
     d="m 63.962264,47.887896 c -2.0286,-2.242 -1.4656,-5.079 2.342,-11.804 1.9075,-3.369 3.3823,-6.456 3.2773,-6.8601 -0.105,-0.4041 -1.784,-3.674 -3.7311,-7.2663 -2.0776,-3.833 -3.5403,-7.2713 -3.5403,-8.3221 0,-1.9914 2.4741,-4.5929001 4.3681,-4.5929001 1.4115,0 3.6256,2.6285001 6.0578,7.1918001 1.049,1.9682 2.0867,3.5786 2.3058,3.5786 0.2192,0 1.4836,-1.9402 2.8098,-4.3116 2.9641,-5.2998 4.9194,-6.9611001 7.0502,-5.9903001 0.8164,0.372 1.8956,1.4716001 2.3983,2.4436001 1.1546,2.2328 0.6797,3.7091 -3.6559,11.3647 -1.7512,3.0923 -3.184,5.884 -3.184,6.2037 0,0.3198 1.5421,3.3049 3.4269,6.6339 3.765,6.649 4.3232,9.496 2.3007,11.731 -1.4192,1.568 -4.1455,1.608 -5.5677,0.081 -0.5959,-0.639 -2.02,-2.926 -3.1647,-5.08 -1.1447,-2.155 -2.2159,-3.919 -2.3804,-3.919 -0.1646,0 -1.2357,1.764 -2.3804,3.919 -1.1447,2.154 -2.5688,4.441 -3.1647,5.08 -1.4222,1.527 -4.1485,1.487 -5.5677,-0.081 z"
     id="path29715"
     sodipodi:nodetypes="csscsscsccccsccccsccc" />
  <path
     style="fill:#002a7a;fill-opacity:1;stroke-width:0.598355"
     sodipodi:type="inkscape:offset"
     inkscape:radius="5.2183108"
     inkscape:original="M 110.7793 66.023438 C 105.97897 66.07979 104.66958 66.859154 103.77148 69.027344 C 103.12876 70.579014 103.18833 71.016276 104.23047 72.416016 C 105.27317 73.816496 105.91034 74.046245 109.17969 74.203125 L 112.93164 74.382812 L 112.57227 77.792969 C 112.37507 79.668509 112.03414 86.483107 111.81445 92.935547 C 111.42419 104.39763 111.44424 104.69619 112.69727 105.94922 C 114.28293 107.53489 116.97696 107.60519 118.82422 106.10938 C 120.13404 105.04874 120.23637 104.43384 120.69336 94.890625 C 120.95929 89.337295 121.33051 82.578064 121.51953 79.871094 L 121.86328 74.949219 L 125.25195 75.298828 C 128.14735 75.596388 128.87895 75.456027 130.28516 74.341797 C 132.08944 72.912147 132.46917 70.49824 131.16797 68.71875 C 130.07455 67.22341 126.84582 66.652164 116.85742 66.183594 C 114.36771 66.066801 112.37941 66.004653 110.7793 66.023438 z "
     xlink:href="#path55257"
     id="path300060"
     inkscape:href="#path55257"
     d="m 87.707031,130.83789 c -2.676948,0.0314 -4.800592,0.14903 -7.066406,1.17969 -2.265814,1.03066 -3.993597,3.33864 -4.701172,5.04687 -0.409492,0.9886 -1.023244,2.46199 -0.753906,4.44922 0.269338,1.98723 1.199583,3.18229 1.847656,4.05274 0.74378,0.99899 2.29344,2.51523 4.052735,3.15039 1.156463,0.41752 2.157128,0.54656 3.18164,0.62304 -0.237423,3.05559 -0.487422,7.80432 -0.679687,13.45118 -0.195288,5.73561 -0.319987,8.59501 -0.166016,10.86523 0.07698,1.13511 0.230678,2.28472 0.78125,3.51172 0.550572,1.227 1.411364,2.1223 1.792969,2.50391 3.620827,3.62084 9.261812,3.63304 13.099609,0.52539 0.986557,-0.79887 2.766187,-3.50643 3.119137,-5.625 0.35295,-2.11858 0.45056,-4.6136 0.67969,-9.39844 0.26007,-5.43101 0.62132,-11.98327 0.80469,-14.65625 0.83166,0.0355 1.63601,0.17413 2.5918,-0.008 1.69045,-0.3218 3.25789,-1.28048 4.22265,-2.04493 3.76736,-2.98512 4.76596,-8.80998 1.85352,-12.79296 -1.80347,-2.4664 -4.43624,-3.23532 -7.1211,-3.71094 -2.68485,-0.47562 -6.08917,-0.71933 -11.156246,-0.95703 -2.533076,-0.11884 -4.596904,-0.18698 -6.382813,-0.16602 z" />
  <path
     style="fill:#53eabc;fill-opacity:1;stroke-width:0.598355"
     d="m 112.69789,105.94916 c -1.25303,-1.25303 -1.27332,-1.55213 -0.88306,-13.014214 0.21969,-6.45244 0.56079,-13.26623 0.75799,-15.14177 l 0.35855,-3.41007 -3.75232,-0.18006 c -3.26935,-0.15688 -3.90636,-0.38694 -4.94906,-1.78742 -1.04214,-1.39974 -1.10139,-1.83754 -0.45867,-3.38921 1.19746,-2.89092 3.12746,-3.31022 13.0863,-2.84305 9.9884,0.46857 13.21603,1.04057 14.30945,2.53591 1.3012,1.77949 0.92277,4.19349 -0.88151,5.62314 -1.40621,1.11423 -2.13813,1.25318 -5.03353,0.95562 l -3.38804,-0.34819 -0.34368,4.92176 c -0.18902,2.70697 -0.56126,9.4654 -0.82719,15.01873 -0.45699,9.543214 -0.55952,10.158524 -1.86934,11.219154 -1.84726,1.49582 -4.54023,1.42534 -6.12589,-0.16033 z"
     id="path55257"
     sodipodi:nodetypes="ssscssssssscssss" />
  <path
     style="fill:#002a7a;fill-opacity:1;stroke-width:0.598355"
     sodipodi:type="inkscape:offset"
     inkscape:radius="6.254456"
     inkscape:original="M 136.90234 8.5605469 C 134.37085 8.5240699 133.63622 8.7636395 132.69141 9.9296875 C 131.68292 11.174316 131.5522 12.311222 131.5957 19.501953 C 131.62286 23.990551 131.83702 32.010589 132.07031 37.324219 C 132.51158 47.375049 132.81374 48.478403 135.41602 49.533203 C 137.08366 50.209153 138.7079 50.201516 147.54102 49.472656 C 158.02938 48.607226 157.875 48.695322 157.875 43.576172 C 157.875 37.615332 157.58968 37.423429 149.44727 37.917969 L 142.91602 38.314453 L 142.86328 32.091797 C 142.83472 28.669105 142.62546 22.439058 142.39844 18.246094 C 141.91009 9.2266837 141.57096 8.6278169 136.90234 8.5605469 z "
     xlink:href="#path55296"
     id="path186285"
     inkscape:href="#path55296"
     d="m 113.98047,72.339844 c -1.4717,-0.02121 -2.86033,-0.06736 -4.72461,0.539062 -1.86428,0.606422 -3.59587,2.110188 -4.43555,3.146485 -1.00846,1.244595 -2.06786,3.782728 -2.29687,5.783203 -0.22902,2.000475 -0.21535,4.130364 -0.19336,7.765625 0.0281,4.642451 0.24244,12.637011 0.48047,18.058591 0.22294,5.07791 0.26571,7.89351 1.07812,10.85742 0.40621,1.48196 1.2009,3.20223 2.49414,4.51954 1.29325,1.3173 2.70918,1.96329 3.67188,2.35351 1.49656,0.60661 3.62197,0.96371 5.75586,0.95313 2.13389,-0.0106 4.78633,-0.21126 9.23242,-0.57813 5.22935,-0.43149 7.66527,0.14159 11.68555,-2.15234 2.01013,-1.14697 3.74207,-3.91631 4.12109,-5.75586 0.37902,-1.83955 0.26758,-2.97235 0.26758,-4.2207 0,-1.54011 0.0415,-2.86135 -0.27149,-4.58594 -0.31295,-1.7246 -1.47921,-4.39571 -3.65625,-5.85742 -2.17704,-1.46171 -4.1261,-1.57024 -5.77929,-1.62891 -1.64173,-0.0583 -3.2743,0.0458 -5.31641,0.16992 -0.0383,-3.648038 -0.2331,-9.557522 -0.46094,-13.765624 -0.24799,-4.580286 0.14453,-7.19365 -1.98633,-10.949218 -1.06542,-1.877785 -3.38049,-3.576148 -5.21679,-4.121094 -1.8363,-0.544947 -3.14948,-0.512522 -4.44922,-0.53125 z" />
  <path
     style="fill:#53eabc;fill-opacity:1;stroke-width:0.598355"
     d="m 135.41542,49.532906 c -2.60228,-1.0548 -2.90433,-2.15696 -3.3456,-12.20779 -0.23329,-5.31363 -0.44639,-13.333638 -0.47355,-17.822236 -0.0435,-7.190731 0.0867,-8.329044 1.09519,-9.5736721 0.94481,-1.166048 1.67981,-1.404874 4.2113,-1.368397 4.66862,0.06727 5.00791,0.66511 5.49626,9.6845201 0.22702,4.192964 0.43613,10.423963 0.46469,13.846655 l 0.0519,6.2231 6.5316,-0.3967 c 8.14241,-0.49454 8.42727,-0.3033 8.42727,5.65754 0,5.11915 0.15544,5.03046 -10.33292,5.89589 -8.83312,0.72886 -10.45851,0.73705 -12.12615,0.0611 z"
     id="path55296"
     sodipodi:nodetypes="ssssssscsssss" />
  <path
     style="fill:#002a7a;fill-opacity:1;stroke-width:0.5"
     sodipodi:type="inkscape:offset"
     inkscape:radius="6.6010551"
     inkscape:original="M 167.81836 66.480469 C 163.56409 66.480469 162.61832 66.649992 159.98047 67.882812 C 154.59091 70.401663 151.76379 74.174657 151.74219 78.873047 C 151.71752 84.244807 154.07073 87.009312 161.7207 90.601562 C 168.16556 93.627933 169.23047 94.394967 169.23047 95.998047 C 169.23047 98.247977 167.07938 98.759967 160.58594 98.060547 C 157.32832 97.709667 156.48509 97.776491 155.4375 98.462891 C 152.82224 100.17645 152.86167 103.71938 155.51367 105.45703 C 156.16338 105.88274 158.55915 106.41013 160.83789 106.63086 C 168.46394 107.36956 172.06323 106.54223 175.30273 103.30273 C 179.04603 99.55942 179.59208 95.454303 176.95312 90.908203 C 175.29177 88.046193 173.17795 86.389269 168.32031 84.136719 C 163.45143 81.878949 161.73047 80.362901 161.73047 78.332031 C 161.73047 75.738311 163.21556 74.984819 168.4082 74.949219 C 170.9894 74.931519 173.46777 74.653867 174.09961 74.310547 C 176.29796 73.116017 176.27963 69.17514 174.06836 67.53125 C 172.8626 66.63487 171.95097 66.480469 167.81836 66.480469 z "
     xlink:href="#path76623"
     id="path306986"
     inkscape:href="#path76623"
     d="m 144.80664,129.91211 c -4.42963,0 -7.65696,0.63265 -10.63281,2.02344 -6.87804,3.2145 -12.01123,9.60939 -12.04492,16.93945 -0.0168,3.65416 1.0938,7.79519 3.68359,10.83984 1.0168,1.19539 2.24448,2.11209 3.49414,3.02539 -0.14729,0.0822 -0.37298,0.15244 -0.49805,0.23438 -3.06414,2.00767 -4.95915,5.5636 -4.92187,9.08008 0.0373,3.51647 1.96178,6.96888 4.99609,8.95703 2.39327,1.56814 2.98533,1.30934 4.25,1.58789 1.26467,0.27855 2.63626,0.49718 4.05664,0.63477 4.14761,0.40175 7.61158,0.46952 10.99414,-0.3086 3.38257,-0.77812 6.48997,-2.63645 8.77539,-4.92187 2.61131,-2.61131 4.59479,-5.94517 5.09375,-9.69336 0.49897,-3.7482 -0.55052,-7.49349 -2.40234,-10.6836 -1.58083,-2.72327 -3.95433,-4.94195 -6.94531,-6.875 0.47534,-0.17291 0.76711,-0.19009 1.53515,-0.60742 3.78175,-2.05491 5.10051,-5.90344 5.08594,-9.05273 -0.0146,-3.14929 -1.20653,-6.50068 -4.33203,-8.82422 -1.09649,-0.81515 -3.15548,-1.78584 -4.86914,-2.07422 -1.71366,-0.28838 -3.16985,-0.28125 -5.31836,-0.28125 z" />
  <path
     style="fill:#fa9e00;fill-opacity:1;stroke-width:0.5"
     d="m 160.8374,106.63162 c -2.27874,-0.22073 -4.67473,-0.74962 -5.32444,-1.17533 -2.652,-1.73765 -2.68976,-5.28006 -0.0745,-6.993624 1.04759,-0.6864 1.8897,-0.75203 5.14732,-0.40115 6.49344,0.69942 8.64482,0.18572 8.64482,-2.06421 0,-1.60308 -1.06576,-2.36863 -7.51062,-5.395 -7.64997,-3.59225 -10.00307,-6.35845 -9.9784,-11.73021 0.0216,-4.69839 2.84946,-8.47014 8.23902,-10.98899 2.63785,-1.23282 3.58407,-1.40207 7.83834,-1.40207 4.13261,0 5.04424,0.15307 6.25,1.04945 2.21127,1.64389 2.22915,5.58523 0.0308,6.77976 -0.63184,0.34332 -3.10967,0.62173 -5.69087,0.63943 -5.19264,0.0356 -6.67823,0.78786 -6.67823,3.38158 0,2.03087 1.72166,3.54735 6.59054,5.80512 4.85764,2.25255 6.97066,3.91035 8.63202,6.77236 2.63896,4.5461 2.09217,8.65042 -1.65113,12.393734 -3.2395,3.2395 -6.83854,4.06785 -14.46459,3.32915 z"
     id="path76623"
     sodipodi:nodetypes="ssssssssssssssssss" />
  <path
     style="fill:#002a7a;fill-opacity:1;stroke-width:0.5"
     sodipodi:type="inkscape:offset"
     inkscape:radius="5.8521495"
     inkscape:original="M 220.10938 6.84375 C 213.64055 6.84375 207.32208 14.044491 205.125 23.919922 C 204.49001 26.774006 204.35623 29.177761 204.55078 34.191406 C 204.82125 41.161826 205.55763 43.982103 207.35742 44.945312 C 208.47148 45.541543 210.90202 45.658571 212.16016 45.175781 C 213.2063 44.774341 214.43164 42.392609 214.43164 40.761719 C 214.43164 39.574989 214.59574 39.485469 216.80664 39.480469 C 218.11289 39.477439 220.02539 39.336466 221.05664 39.166016 L 222.93164 38.855469 L 222.93164 42.384766 C 222.93164 45.601806 223.04907 46.004569 224.25 46.949219 C 226.01783 48.339789 228.52749 48.284879 230.23242 46.818359 C 231.90696 45.377979 232.34508 42.785316 232.39648 33.972656 C 232.50348 15.613683 228.53042 6.84375 220.10938 6.84375 z M 220.26172 16.457031 C 221.647 17.162903 222.62128 20.586448 223.19922 26.753906 L 223.54883 30.486328 L 221.81445 30.486328 C 220.85998 30.486328 218.6998 30.630611 217.01562 30.806641 C 213.28633 31.196431 213.05932 30.863709 213.91992 26.302734 C 214.57089 22.852738 217.1332 17.721987 218.73828 16.65625 C 219.29159 16.288867 219.79996 16.221741 220.26172 16.457031 z "
     xlink:href="#path76701"
     id="path247738"
     inkscape:href="#path76701"
     d="m 197.09766,71.025391 c -5.40585,0 -10.05458,2.908644 -13.49219,6.826171 -3.43761,3.917528 -5.91375,9.025835 -7.20508,14.830079 -0.74842,3.363941 -0.91037,6.579597 -0.70898,11.769529 0.14202,3.66027 0.36226,6.37768 1.01562,8.88086 0.65336,2.50318 2.17477,5.36049 4.87695,6.80664 1.97765,1.05841 3.34026,1.1336 4.82813,1.20508 1.48786,0.0715 2.87849,0.0778 4.83203,-0.67187 2.14787,-0.82422 3.02936,-1.79563 3.64648,-2.78321 0.71657,1.62271 1.9977,3.11696 2.73047,3.69336 3.94205,3.1008 9.61339,2.97792 13.41602,-0.29297 1.96286,-1.68838 3.20294,-4.50116 3.64453,-7.125 0.44159,-2.62383 0.52649,-5.62547 0.55274,-10.125 0.056,-9.60684 -0.80627,-17.025513 -3.46485,-22.896482 -2.65858,-5.870969 -8.42982,-10.117187 -14.67187,-10.117187 z" />
  <path
     style="fill:#ff6680;fill-opacity:1;stroke-width:0.5"
     d="m 224.24947,46.949836 c -1.20093,-0.94465 -1.31743,-1.34838 -1.31743,-4.56542 v -3.52913 l -1.875,0.30992 c -1.03125,0.17045 -2.94375,0.31239 -4.25,0.31542 -2.2109,0.005 -2.375,0.0936 -2.375,1.28033 0,1.63089 -1.22626,4.01314 -2.2724,4.41458 -1.25814,0.48279 -3.68874,0.36657 -4.8028,-0.22966 -1.79979,-0.96321 -2.53609,-3.78485 -2.80656,-10.75527 -0.19455,-5.013645 -0.06,-7.417546 0.57499,-10.27163 2.19708,-9.875431 8.51547,-17.0757071 14.98429,-17.0757071 8.42104,0 12.39298,8.7707641 12.28598,27.1297371 -0.0514,8.81266 -0.48783,11.40559 -2.16237,12.84597 -1.70493,1.46652 -4.21587,1.52143 -5.9837,0.13086 z m -2.43534,-16.46371 h 1.7354 l -0.34976,-3.732412 c -0.77058,-8.223278 -2.24776,-11.566797 -4.46099,-10.097265 -1.60508,1.065737 -4.16836,6.196416 -4.81933,9.646412 -0.8606,4.560975 -0.63217,4.893115 3.09713,4.503325 1.68418,-0.17603 3.84308,-0.32006 4.79755,-0.32006 z"
     id="path76701"
     sodipodi:nodetypes="sscscsssscssssscsssss" />
  <path
     style="fill:#002a7a;fill-opacity:1;stroke-width:0.5"
     sodipodi:type="inkscape:offset"
     inkscape:radius="7.0582476"
     inkscape:original="M 247.00391 67.847656 C 239.26778 67.049216 229.5608 73.579349 227.58398 80.912109 C 226.64443 84.397229 227.24129 91.506667 228.74805 94.779297 C 231.07524 99.833877 235.23322 103.48575 240.01172 104.67188 C 247.76475 106.59633 257.71649 99.857952 260.46094 90.826172 C 261.46487 87.522372 261.43942 81.340998 260.41016 78.242188 C 258.66829 72.997908 252.79602 68.445456 247.00391 67.847656 z M 247.0625 76.873047 C 253.6392 77.940297 253.95723 88.919749 247.57031 94.386719 C 245.35287 96.284759 244.04798 96.68786 241.94336 96.125 C 239.82172 95.55758 238.27609 93.853764 237.14844 90.839844 C 235.32158 85.957104 236.02515 82.216398 239.3125 79.330078 C 241.41014 77.488318 244.60826 76.474777 247.0625 76.873047 z "
     xlink:href="#path82432"
     id="path321402"
     inkscape:href="#path82432"
     d="m 224.7168,130.85938 c -6.12261,-0.63191 -11.78446,1.4538 -16.53321,4.64843 -4.74874,3.19463 -8.81867,7.63824 -10.42578,13.59961 -0.88152,3.26988 -0.82071,6.27236 -0.55469,9.44141 0.26603,3.16905 0.70376,6.13644 2.1211,9.21484 3.12214,6.78119 8.83525,12.01937 15.97266,13.79102 6.4314,1.5964 12.70032,-0.3918 17.76171,-3.81836 5.0614,-3.42657 9.22414,-8.50435 11.14453,-14.82422 1.72565,-5.67887 1.79791,-11.13082 -0.10546,-16.86133 -2.85254,-8.58817 -10.43328,-14.26793 -19.38086,-15.1914 z m -2.60742,23.34179 c 4.4e-4,0.0114 0.002,0.004 0.002,0.0156 0.0316,1.09219 -0.56873,2.59239 -1.4336,3.80859 -0.37786,-1.20441 -0.48786,-2.0941 -0.43945,-2.35156 0.0561,-0.29853 0.0235,-0.39543 0.71875,-1.00586 0.2287,-0.2008 0.63506,-0.30892 1.15235,-0.4668 z" />
  <path
     style="fill:#ff6680;fill-opacity:1;stroke-width:0.5"
     d="m 240.01084,104.67133 c -4.7785,-1.18612 -8.93609,-4.837594 -11.26328,-9.892174 -1.50676,-3.27263 -2.10349,-10.38203 -1.16394,-13.86715 1.97682,-7.33276 11.68449,-13.86352 19.42062,-13.06508 5.79211,0.5978 11.66444,5.15138 13.40631,10.39566 1.02926,3.09881 1.05373,9.27956 0.0498,12.58336 -2.74445,9.03178 -12.6965,15.769844 -20.44953,13.845384 z m 7.56044,-10.283824 c 6.38692,-5.46697 6.06798,-16.44811 -0.50872,-17.51536 -2.45424,-0.39827 -5.65235,0.61591 -7.74999,2.45767 -3.28735,2.88632 -3.99071,6.62792 -2.16385,11.51066 1.12765,3.01392 2.67373,4.71798 4.79537,5.2854 2.10462,0.56286 3.40975,0.15967 5.62719,-1.73837 z"
     id="path82432"
     sodipodi:nodetypes="ssssssssssssss" />
  <path
     style="fill:#002a7a;fill-opacity:1;stroke-width:0.5"
     sodipodi:type="inkscape:offset"
     inkscape:radius="5.3115907"
     inkscape:original="M 274.99609 65.628906 C 269.19095 65.208996 268.47632 66.457606 267.83008 78.166016 C 267.56884 82.899206 267.11986 90.275764 266.83203 94.558594 C 266.5065 99.402544 266.48498 102.80402 266.77344 103.55859 C 267.26049 104.83269 268.58624 106.18281 269.85156 106.69336 C 270.26406 106.85983 271.69074 106.92063 273.02148 106.82812 C 274.82221 106.7029 275.77462 106.325 276.74805 105.35156 C 278.10538 103.99424 278.08949 104.09597 278.8125 91.617188 C 278.83336 91.257238 279.0845 91.107283 279.36914 91.283203 C 279.65379 91.459113 281.21297 91.595891 282.83398 91.587891 C 289.92416 91.553981 295.81274 85.559256 295.83984 78.347656 C 295.85329 74.766166 294.86179 72.536683 292.26562 70.314453 C 289.7545 68.165033 286.68131 67.308643 282.76172 67.664062 C 280.06286 67.908783 279.59431 67.816601 278.84766 66.894531 C 278.20522 66.101151 277.27201 65.793526 274.99609 65.628906 z M 282.22461 74.173828 C 282.69007 74.2534 283.21339 74.442477 283.79297 74.742188 C 286.33729 76.057898 287.0348 77.544114 286.2832 80.052734 C 285.9355 81.213234 284.93744 82.9202 284.06641 83.84375 C 282.58199 85.4177 281.45634 85.788506 279.97656 85.191406 C 279.29903 84.918016 279.12086 79.736335 279.67383 76.390625 C 279.95608 74.682935 280.82823 73.935113 282.22461 74.173828 z "
     xlink:href="#path86954"
     id="path325130"
     inkscape:href="#path86954"
     d="m 249.87305,130.27148 c -0.85678,0.0241 -1.75699,0.13064 -2.75,0.39844 -1.98604,0.53561 -4.19413,2.19838 -5.26758,4.07617 -2.1469,3.75559 -2.01136,7.20876 -2.33985,13.16016 -0.25952,4.70203 -0.70889,12.08565 -0.99414,16.33008 -0.16781,2.49715 -0.26038,4.63752 -0.27148,6.35547 -0.006,0.85897 0.006,1.60557 0.0527,2.31054 0.0471,0.70498 -0.0572,1.13344 0.49805,2.58594 1.18809,3.10799 2.96609,4.9194 6.05078,6.16406 1.96617,0.79348 2.19867,0.51072 3.00196,0.54493 0.80328,0.0342 1.64694,0.0238 2.52343,-0.0371 2.40891,-0.16753 5.40039,-1.30467 7.11524,-3.01954 0.63908,-0.63907 2.42448,-3.38084 2.76758,-5.66406 0.19778,-1.31619 0.34222,-4.36544 0.48632,-6.64062 9.64489,-0.53498 17.35777,-8.65201 17.39453,-18.43555 0.0172,-4.57004 -2.01166,-9.15884 -5.43359,-12.08789 -3.60806,-3.08836 -8.50498,-4.35157 -13.4375,-3.9043 -0.59576,0.054 -0.32803,0.0598 -0.55859,0.0625 -0.80019,-0.62538 -1.67652,-1.17663 -2.5293,-1.45703 -1.33777,-0.43986 -2.49115,-0.55272 -3.81445,-0.64844 -0.82402,-0.0596 -1.63737,-0.11786 -2.49414,-0.0937 z" />
  <path
     style="fill:#de5cff;fill-opacity:1;stroke-width:0.5"
     d="m 269.85126,106.69411 c -1.26532,-0.51055 -2.59142,-1.86106 -3.07847,-3.13516 -0.28846,-0.75457 -0.26593,-4.156054 0.0596,-9.000004 0.28783,-4.28283 0.73707,-11.65957 0.99831,-16.39276 0.64624,-11.70841 1.35973,-12.95687 7.16487,-12.53696 2.27592,0.16462 3.21004,0.47127 3.85248,1.26465 0.74665,0.92207 1.21473,1.01409 3.91359,0.76937 3.91959,-0.35542 6.99275,0.50192 9.50387,2.65134 2.59617,2.22223 3.5882,4.45146 3.57475,8.03295 -0.0271,7.2116 -5.91648,13.20712 -13.00666,13.24103 -1.62101,0.008 -3.18018,-0.12984 -3.46483,-0.30575 -0.28464,-0.17592 -0.53459,-0.0253 -0.55545,0.33465 -0.72301,12.478784 -0.70778,12.377494 -2.06511,13.734814 -0.97343,0.97344 -1.92672,1.35097 -3.72745,1.4762 -1.33074,0.0925 -2.75702,0.0321 -3.16952,-0.13437 z m 14.2156,-22.851324 c 0.87103,-0.92355 1.86816,-2.6287 2.21586,-3.7892 0.7516,-2.50862 0.0543,-3.99618 -2.49002,-5.31189 -2.3183,-1.19884 -3.74302,-0.62883 -4.11935,1.64809 -0.55297,3.34571 -0.37462,8.52766 0.30291,8.80105 1.47978,0.5971 2.60618,0.2259 4.0906,-1.34805 z"
     id="path86954"
     sodipodi:nodetypes="ssssssssscscssssssssss" />
  <path
     style="fill:#ff6680;fill-opacity:1;stroke-width:0.25"
     sodipodi:type="inkscape:offset"
     inkscape:radius="0"
     inkscape:original="M 213.86328 64.537109 C 212.23538 64.305499 210.85728 64.733857 209.9668 65.748047 C 208.73201 67.154447 208.56876 68.448981 208.76953 75.275391 L 208.94727 81.320312 L 207.24219 81.480469 C 206.30437 81.569069 204.00736 81.643551 202.13672 81.644531 L 198.73438 81.646484 L 198.59375 75.583984 C 198.39742 67.196934 198.06543 66.274575 195.01172 65.640625 C 192.04924 65.025615 190.01026 66.215444 189.43359 68.896484 C 188.97872 71.011234 189.83681 102.26096 190.40234 104.17969 C 190.75814 105.38689 191.50747 106.30128 192.62305 106.89062 C 194.60617 107.93827 197.36489 107.21585 198.61719 105.32031 L 199.28711 104.30469 L 199.20312 97.599609 L 199.11914 90.896484 L 203.72656 90.896484 C 207.7989 90.896484 208.38022 90.947314 208.72656 91.333984 C 209.03889 91.682684 209.16807 92.864639 209.35938 97.162109 C 209.63035 103.24945 209.89472 104.28489 211.49805 105.50781 C 213.67215 107.16607 216.96527 106.35822 218.34766 103.82617 C 218.85973 102.88818 218.86125 103.53693 218.2832 82.896484 C 218.06948 75.265234 217.80469 68.571484 217.69531 68.021484 C 217.24394 65.751804 216.28732 64.881989 213.86328 64.537109 z "
     xlink:href="#path91711"
     id="path333170"
     inkscape:href="#path91711"
     d="m 190.85156,134.57031 c -1.6279,-0.23161 -3.006,0.19675 -3.89648,1.21094 -1.23479,1.4064 -1.39804,2.70093 -1.19727,9.52734 l 0.17774,6.04493 -1.70508,0.1621 c -0.93782,0.0886 -3.23483,0.16113 -5.10547,0.16211 l -3.40234,0.002 -0.14063,-6.0625 c -0.19633,-8.38705 -0.52832,-9.30941 -3.58203,-9.94336 -2.96248,-0.61501 -5.00145,0.57482 -5.57812,3.25586 -0.45488,2.11475 0.40322,33.36447 0.96874,35.2832 0.35581,1.2072 1.10513,2.1216 2.22071,2.71094 1.98312,1.04765 4.74184,0.32523 5.99414,-1.57031 l 0.66992,-1.01563 -0.084,-6.70508 -0.084,-6.70312 h 4.60742 c 4.07234,0 4.65366,0.0508 5,0.4375 0.31233,0.3487 0.44152,1.53065 0.63282,5.82812 0.27097,6.08734 0.53534,7.12279 2.13867,8.34571 2.1741,1.65826 5.46722,0.8504 6.84961,-1.68164 0.51207,-0.938 0.51359,-0.28925 -0.0645,-20.92969 -0.21372,-7.63125 -0.47851,-14.325 -0.58789,-14.875 -0.45137,-2.26968 -1.40799,-3.1395 -3.83203,-3.48438 z" />
  <path
     style="fill:#ff6680;fill-opacity:1;stroke-width:0.25"
     sodipodi:type="inkscape:offset"
     inkscape:radius="0"
     inkscape:original="M 213.86328 64.537109 C 212.23538 64.305499 210.85728 64.733857 209.9668 65.748047 C 208.73201 67.154447 208.56876 68.448981 208.76953 75.275391 L 208.94727 81.320312 L 207.24219 81.480469 C 206.30437 81.569069 204.00736 81.643551 202.13672 81.644531 L 198.73438 81.646484 L 198.59375 75.583984 C 198.39742 67.196934 198.06543 66.274575 195.01172 65.640625 C 192.04924 65.025615 190.01026 66.215444 189.43359 68.896484 C 188.97872 71.011234 189.83681 102.26096 190.40234 104.17969 C 190.75814 105.38689 191.50747 106.30128 192.62305 106.89062 C 194.60617 107.93827 197.36489 107.21585 198.61719 105.32031 L 199.28711 104.30469 L 199.20312 97.599609 L 199.11914 90.896484 L 203.72656 90.896484 C 207.7989 90.896484 208.38022 90.947314 208.72656 91.333984 C 209.03889 91.682684 209.16807 92.864639 209.35938 97.162109 C 209.63035 103.24945 209.89472 104.28489 211.49805 105.50781 C 213.67215 107.16607 216.96527 106.35822 218.34766 103.82617 C 218.85973 102.88818 218.86125 103.53693 218.2832 82.896484 C 218.06948 75.265234 217.80469 68.571484 217.69531 68.021484 C 217.24394 65.751804 216.28732 64.881989 213.86328 64.537109 z "
     xlink:href="#path91711"
     id="path339472"
     inkscape:href="#path91711"
     d="m 190.85156,134.57031 c -1.6279,-0.23161 -3.006,0.19675 -3.89648,1.21094 -1.23479,1.4064 -1.39804,2.70093 -1.19727,9.52734 l 0.17774,6.04493 -1.70508,0.1621 c -0.93782,0.0886 -3.23483,0.16113 -5.10547,0.16211 l -3.40234,0.002 -0.14063,-6.0625 c -0.19633,-8.38705 -0.52832,-9.30941 -3.58203,-9.94336 -2.96248,-0.61501 -5.00145,0.57482 -5.57812,3.25586 -0.45488,2.11475 0.40322,33.36447 0.96874,35.2832 0.35581,1.2072 1.10513,2.1216 2.22071,2.71094 1.98312,1.04765 4.74184,0.32523 5.99414,-1.57031 l 0.66992,-1.01563 -0.084,-6.70508 -0.084,-6.70312 h 4.60742 c 4.07234,0 4.65366,0.0508 5,0.4375 0.31233,0.3487 0.44152,1.53065 0.63282,5.82812 0.27097,6.08734 0.53534,7.12279 2.13867,8.34571 2.1741,1.65826 5.46722,0.8504 6.84961,-1.68164 0.51207,-0.938 0.51359,-0.28925 -0.0645,-20.92969 -0.21372,-7.63125 -0.47851,-14.325 -0.58789,-14.875 -0.45137,-2.26968 -1.40799,-3.1395 -3.83203,-3.48438 z" />
  <path
     style="fill:#002a7a;fill-opacity:1;stroke-width:0.25"
     sodipodi:type="inkscape:offset"
     inkscape:radius="5.8664565"
     inkscape:original="M 213.86328 64.537109 C 212.23538 64.305499 210.85728 64.733857 209.9668 65.748047 C 208.73201 67.154447 208.56876 68.448981 208.76953 75.275391 L 208.94727 81.320312 L 207.24219 81.480469 C 206.30437 81.569069 204.00736 81.643551 202.13672 81.644531 L 198.73438 81.646484 L 198.59375 75.583984 C 198.39742 67.196934 198.06543 66.274575 195.01172 65.640625 C 192.04924 65.025615 190.01026 66.215444 189.43359 68.896484 C 188.97872 71.011234 189.83681 102.26096 190.40234 104.17969 C 190.75814 105.38689 191.50747 106.30128 192.62305 106.89062 C 194.60617 107.93827 197.36489 107.21585 198.61719 105.32031 L 199.28711 104.30469 L 199.20312 97.599609 L 199.11914 90.896484 L 203.72656 90.896484 C 207.7989 90.896484 208.38022 90.947314 208.72656 91.333984 C 209.03889 91.682684 209.16807 92.864639 209.35938 97.162109 C 209.63035 103.24945 209.89472 104.28489 211.49805 105.50781 C 213.67215 107.16607 216.96527 106.35822 218.34766 103.82617 C 218.85973 102.88818 218.86125 103.53693 218.2832 82.896484 C 218.06948 75.265234 217.80469 68.571484 217.69531 68.021484 C 217.24394 65.751804 216.28732 64.881989 213.86328 64.537109 z "
     xlink:href="#path91711"
     id="path352318"
     inkscape:href="#path91711"
     d="m 189.27734,128.69531 c -2.45567,0.20179 -4.98292,1.22452 -6.73046,3.21485 -0.84444,0.96179 -1.58793,2.61441 -2.07813,4.26757 -0.0477,-0.14525 -0.0346,-0.27975 -0.0879,-0.42773 -0.54966,-1.52591 -1.80368,-3.32234 -3.32422,-4.32812 -1.52054,-1.00579 -2.84336,-1.28046 -3.86328,-1.49219 -2.48073,-0.515 -5.33103,-0.39053 -7.83398,1.07031 -2.50296,1.46084 -4.12216,4.13958 -4.67188,6.69531 -0.40905,1.90167 -0.22363,2.02668 -0.24414,3.17383 -0.0205,1.14715 -0.0207,2.5837 -0.008,4.24219 0.0258,3.31697 0.1096,7.50689 0.22461,11.69531 0.115,4.18842 0.26028,8.36504 0.41601,11.6582 0.0779,1.64659 0.157,3.06807 0.24024,4.19922 0.0416,0.56558 0.0842,1.05369 0.13476,1.50782 0.0505,0.45412 3.8e-4,0.64023 0.3125,1.69921 0.76015,2.57906 2.73516,4.98702 5.10742,6.24024 4.95483,2.61755 10.57029,1.10623 13.62891,-3.52344 a 5.8670432,5.8670432 0 0 0 0.002,-0.004 l 0.66993,-1.01562 a 5.8670432,5.8670432 0 0 0 0.71874,-1.57031 c 0.79722,1.72491 2.00033,3.41623 3.03711,4.20703 5.17591,3.94784 12.54801,1.97557 15.55665,-3.53516 -0.009,0.0162 0.75438,-1.53923 0.93164,-2.64453 0.17725,-1.1053 0.16635,-1.89299 0.1621,-3.25977 -0.008,-2.73354 -0.15437,-7.68135 -0.44335,-18 -0.10742,-3.83541 -0.22615,-7.43229 -0.33399,-10.16015 -0.0539,-1.36393 -0.10447,-2.50792 -0.15039,-3.37695 -0.023,-0.43452 -0.0455,-0.79792 -0.0684,-1.11329 -0.0228,-0.31536 0.047,-0.24201 -0.14453,-1.20507 -0.35236,-1.77184 -1.15578,-3.99747 -2.98438,-5.66016 -1.82859,-1.66269 -3.989,-2.23412 -5.77539,-2.48828 -0.77091,-0.10968 -1.58183,-0.13367 -2.40039,-0.0664 z" />
  <path
     style="fill:#ff6680;fill-opacity:1;stroke-width:0.25"
     d="m 192.62268,106.89073 c -1.11558,-0.58934 -1.86451,-1.50378 -2.22031,-2.71098 -0.56553,-1.91873 -1.42283,-33.168824 -0.96796,-35.283574 0.57667,-2.68104 2.61426,-3.87051 5.57674,-3.2555 3.05371,0.63395 3.38589,1.55595 3.58222,9.943 l 0.14191,6.0625 3.40118,-0.002 c 1.87064,-9.8e-4 4.16848,-0.0742 5.1063,-0.1628 l 1.70513,-0.16102 -0.17778,-6.04463 c -0.20077,-6.82641 -0.038,-8.122 1.19679,-9.5284 0.89048,-1.01419 2.26889,-1.44254 3.89679,-1.21093 2.42404,0.34488 3.38081,1.21487 3.83218,3.48455 0.10938,0.55 0.37373,7.24375 0.58745,14.875 0.57805,20.640444 0.57607,19.991514 0.064,20.929504 -1.38239,2.53205 -4.67463,3.34091 -6.84873,1.68265 -1.60333,-1.22292 -1.86869,-2.25788 -2.13966,-8.345224 -0.1913,-4.29747 -0.31956,-5.48073 -0.63189,-5.82943 -0.34634,-0.38667 -0.92724,-0.4375 -4.99958,-0.4375 h -4.60771 l 0.084,6.70405 0.0839,6.704054 -0.671,1.01566 c -1.2523,1.89554 -4.01083,2.61844 -5.99395,1.57079 z"
     id="path91711"
     sodipodi:nodetypes="cssssccccssssscsssscccscc" />
  <path
     style="fill:#002a7a;fill-opacity:1;stroke-width:0.25"
     sodipodi:type="inkscape:offset"
     inkscape:radius="5.7032423"
     inkscape:original="M 110.38477 8.6367188 C 96.867416 8.7335827 97.561365 8.6291808 96.605469 10.732422 C 95.94966 12.175387 95.940592 12.970671 96.378906 30.523438 C 96.702651 43.488178 96.931198 46.809653 97.580078 48.064453 C 98.044036 48.961643 99.398855 49.978204 100.39648 50.177734 C 100.83474 50.265384 101.25413 50.434947 101.32812 50.554688 C 101.51651 50.859508 103.25876 50.82787 109.30859 50.40625 C 112.19609 50.20502 116.4566 49.921434 118.77734 49.777344 C 123.79563 49.465784 124.46479 49.238822 125.07812 47.632812 C 125.39249 46.808673 125.46817 45.992948 125.38867 44.330078 C 125.26565 41.756998 124.70452 40.408131 123.45117 39.675781 C 122.65995 39.213411 122.48332 39.214033 115.04297 39.664062 C 109.88773 39.975863 107.21959 40.045689 106.75 39.880859 L 106.05859 39.636719 L 105.98828 36.830078 C 105.94938 35.286258 105.94938 34.012247 105.98828 33.998047 C 106.02716 33.983907 109.03984 33.889753 112.68359 33.789062 C 116.32734 33.688372 119.4981 33.520939 119.73047 33.417969 C 120.76646 32.958919 121.05859 32.021909 121.05859 29.148438 C 121.05859 26.833591 120.98118 26.284513 120.57031 25.677734 C 119.70807 24.404347 119.22109 24.333633 112.19531 24.46875 L 105.76172 24.591797 L 105.59766 23.021484 C 105.33994 20.555746 105.39538 19.019521 105.74609 18.902344 C 105.91797 18.84492 109.77648 18.707977 114.32031 18.597656 C 123.52563 18.374157 123.61063 18.358514 124.33984 16.613281 C 124.87084 15.34248 124.83366 11.541274 124.2793 10.373047 C 123.38461 8.4876308 123.81446 8.5404788 110.38477 8.6367188 z "
     xlink:href="#path97584"
     id="path177643"
     inkscape:href="#path97584"
     d="m 87.332031,72.966797 c -6.744693,0.04833 -9.682306,-0.05693 -12.417969,0.359375 -1.367831,0.208154 -3.317595,0.792126 -4.746093,2.255859 -1.428499,1.463733 -1.626847,2.518868 -1.765625,2.824219 -0.243554,0.535888 -0.653859,1.670824 -0.816406,2.710938 -0.162548,1.040113 -0.202673,2.032812 -0.21875,3.4375 -0.03216,2.809374 0.07959,7.365018 0.298828,16.144532 0.162405,6.5037 0.297534,10.59632 0.490234,13.4082 0.1927,2.81188 0.203647,4.40088 1.345703,6.60938 0.868706,1.67988 1.81793,2.48614 2.851563,3.26172 0.847247,0.63572 1.805479,1.16226 3.097656,1.55078 0.411058,0.23139 0.825964,0.43413 1.111328,0.53515 0.730382,0.25856 1.177511,0.30971 1.570312,0.35547 0.785603,0.0915 1.356026,0.0841 2.083985,0.0703 1.455918,-0.0275 3.424247,-0.1486 6.476562,-0.36132 2.867519,-0.19984 7.132902,-0.48264 9.425782,-0.625 2.579764,-0.16017 4.124099,-0.14262 6.289059,-0.88086 2.16497,-0.73825 4.46403,-3.55935 4.98438,-4.92188 a 5.7038126,5.7038126 0 0 0 0,-0.002 c 0.64847,-1.70006 0.77384,-3.67703 0.68164,-5.60547 -0.079,-1.65215 -0.27133,-3.24202 -0.97656,-4.9375 -0.70524,-1.69548 -2.15589,-3.42137 -3.78125,-4.37109 -0.0646,-0.0377 -0.37439,-0.13879 -0.50196,-0.20508 0.10442,-0.22333 0.33577,-0.45012 0.40235,-0.66406 0.55613,-1.78707 0.5332,-3.10437 0.5332,-4.734379 0,-1.220998 0.008,-2.069321 -0.14648,-3.169922 -0.12522,-0.889752 -0.61553,-1.965336 -1.06836,-2.828125 0.76687,-0.336959 1.54221,-0.794889 2.21484,-1.457032 1.27354,-1.253694 1.64352,-2.410975 1.83984,-2.880859 1.06371,-2.545626 0.83458,-3.747591 0.81836,-5.414062 -0.0162,-1.666472 0.29485,-2.766707 -0.98828,-5.470703 -0.15226,-0.320876 -0.51628,-1.578417 -2.05469,-2.925782 -1.5384,-1.347365 -3.30563,-1.732012 -4.636714,-1.898437 -2.662177,-0.33285 -5.689555,-0.217985 -12.396485,-0.169922 z M 73.464844,123.58789 c 0.484632,0.78416 1.015199,1.25502 1.519531,1.62305 -0.32893,-0.16866 -0.775226,-0.41868 -1.519531,-1.62305 z m 2.302734,2.04688 c 0.184458,0.0479 0.295233,0.1274 0.498047,0.16796 -0.139295,-0.0279 -0.195126,-0.0373 -0.429687,-0.13281 -0.01362,-0.006 -0.0535,-0.0291 -0.06836,-0.0352 z" />
  <path
     style="fill:#53eabc;fill-opacity:1;stroke-width:0.25"
     d="m 101.32823,50.555486 c -0.074,-0.11974 -0.49312,-0.28942 -0.93138,-0.37707 -0.997629,-0.19953 -2.35328,-1.21676 -2.817238,-2.11395 -0.64888,-1.2548 -0.876089,-4.57653 -1.199834,-17.54127 -0.438314,-17.552767 -0.429204,-18.34845 0.226605,-19.791415 0.955896,-2.1032411 0.261137,-1.9976291 13.778487,-2.0944931 13.42969,-0.09624 12.9999,-0.149919 13.89459,1.7354971 0.55436,1.168227 0.5908,4.968943 0.0598,6.239744 -0.72921,1.745233 -0.81419,1.762074 -10.01951,1.985573 -4.54383,0.110321 -8.40213,0.247568 -8.57401,0.304992 -0.35071,0.117177 -0.40598,1.652328 -0.14826,4.118066 l 0.16423,1.571311 6.43304,-0.123717 c 7.02578,-0.135117 7.51315,-0.06479 8.37539,1.208597 0.41087,0.606779 0.4881,1.155998 0.4881,3.470844 0,2.873471 -0.29151,3.811181 -1.3275,4.270231 -0.23237,0.10297 -3.40375,0.26959 -7.0475,0.37028 -3.64375,0.10069 -6.65681,0.19464 -6.69569,0.20878 -0.0389,0.0142 -0.0389,1.28884 0,2.83266 l 0.0707,2.80694 0.69231,0.24301 c 0.46959,0.16483 3.13716,0.0951 8.2924,-0.2167 7.44035,-0.45003 7.61709,-0.44977 8.40831,0.0126 1.25335,0.73235 1.81531,2.08192 1.93833,4.655 0.0795,1.66287 0.002,2.47818 -0.31236,3.30232 -0.61334,1.60601 -1.28117,1.8334 -6.29946,2.14496 -2.32074,0.14409 -6.58203,0.42662 -9.46953,0.62785 -6.04983,0.42162 -7.79165,0.45423 -7.98004,0.14941 z"
     id="path97584"
     sodipodi:nodetypes="csssssscssscssssscscsscscsscc" />
</svg>
